<svg width="1744" height="1057" viewBox="0 0 1744 1057" fill="none" xmlns="http://www.w3.org/2000/svg"><path class="tp_lines_path" d="M1741.64 0.285156L1743.14 2.88323L1088.43 380.883L1086.93 378.285L1741.64 0.285156Z" fill="url(#paint0_linear_13395_35750)"/><path class="tp_lines_path" d="M1392.72 676L1394.22 678.598L739.5 1056.6L738 1054L1392.72 676Z" fill="url(#paint1_linear_13395_35750)"/><path class="tp_lines_path" d="M654.715 0L656.215 2.59808L1.5 380.598L0 378L654.715 0Z" fill="url(#paint2_linear_13395_35750)"/><path class="tp_lines_path" d="M1569.39 119.332L1570.89 121.93L1163.05 357.397L1161.55 354.799L1569.39 119.332Z" fill="url(#paint3_linear_13395_35750)"/><path class="tp_lines_path" d="M1220.46 795.047L1221.96 797.645L814.121 1033.11L812.621 1030.51L1220.46 795.047Z" fill="url(#paint4_linear_13395_35750)"/><path class="tp_lines_path" d="M445.34 143.01L454.34 158.598L46.5 394.065L37.5 378.477L445.34 143.01Z" fill="url(#paint5_linear_13395_35750)"/><path class="tp_lines_path" d="M305.568 553.999L307.068 556.597L31.5 715.696L30 713.098L305.568 553.999Z" fill="url(#paint6_linear_13395_35750)"/><path class="tp_lines_path" d="M1242.57 17.9985L1244.07 20.5966L968.5 179.696L967 177.098L1242.57 17.9985Z" fill="url(#paint7_linear_13395_35750)"/><path class="tp_lines_path" d="M1082.57 88.3384L1089.07 99.5967L813.5 258.696L807 247.438L1082.57 88.3384Z" fill="url(#paint8_linear_13395_35750)"/><path class="tp_lines_path" d="M566.568 819.338L573.068 830.597L297.5 989.696L291 978.438L566.568 819.338Z" fill="url(#paint9_linear_13395_35750)"/><path class="tp_lines_path" d="M1642.57 731.338L1649.07 742.597L1373.5 901.696L1367 890.438L1642.57 731.338Z" fill="url(#paint10_linear_13395_35750)"/><defs><linearGradient id="paint0_linear_13395_35750" x1="1088.68" y1="381.316" x2="1743.39" y2="3.31625" gradientUnits="userSpaceOnUse"><stop stop-color="#56D9FD"/><stop offset="1" stop-color="#FCA2FD"/></linearGradient><linearGradient id="paint1_linear_13395_35750" x1="739.75" y1="1057.03" x2="1394.47" y2="679.031" gradientUnits="userSpaceOnUse"><stop stop-color="#56D9FD"/><stop offset="1" stop-color="#FCA2FD"/></linearGradient><linearGradient id="paint2_linear_13395_35750" x1="1.75" y1="381.031" x2="656.465" y2="3.0311" gradientUnits="userSpaceOnUse"><stop stop-color="#56D9FD"/><stop offset="1" stop-color="#FCA2FD"/></linearGradient><linearGradient id="paint3_linear_13395_35750" x1="1163.3" y1="357.83" x2="1571.14" y2="122.363" gradientUnits="userSpaceOnUse"><stop stop-color="#56D9FD"/><stop offset="1" stop-color="#FCA2FD"/></linearGradient><linearGradient id="paint4_linear_13395_35750" x1="814.371" y1="1033.54" x2="1222.21" y2="798.078" gradientUnits="userSpaceOnUse"><stop stop-color="#56D9FD"/><stop offset="1" stop-color="#FCA2FD"/></linearGradient><linearGradient id="paint5_linear_13395_35750" x1="46.75" y1="394.498" x2="454.59" y2="159.031" gradientUnits="userSpaceOnUse"><stop stop-color="#56D9FD"/><stop offset="1" stop-color="#FCA2FD"/></linearGradient><linearGradient id="paint6_linear_13395_35750" x1="31.75" y1="716.129" x2="307.318" y2="557.03" gradientUnits="userSpaceOnUse"><stop stop-color="#56D9FD"/><stop offset="1" stop-color="#FCA2FD"/></linearGradient><linearGradient id="paint7_linear_13395_35750" x1="968.75" y1="180.129" x2="1244.32" y2="21.0297" gradientUnits="userSpaceOnUse"><stop stop-color="#56D9FD"/><stop offset="1" stop-color="#FCA2FD"/></linearGradient><linearGradient id="paint8_linear_13395_35750" x1="813.75" y1="259.129" x2="1089.32" y2="100.03" gradientUnits="userSpaceOnUse"><stop stop-color="#56D9FD"/><stop offset="1" stop-color="#FCA2FD"/></linearGradient><linearGradient id="paint9_linear_13395_35750" x1="297.75" y1="990.129" x2="573.318" y2="831.03" gradientUnits="userSpaceOnUse"><stop stop-color="#56D9FD"/><stop offset="1" stop-color="#FCA2FD"/></linearGradient><linearGradient id="paint10_linear_13395_35750" x1="1373.75" y1="902.129" x2="1649.32" y2="743.03" gradientUnits="userSpaceOnUse"><stop stop-color="#56D9FD"/><stop offset="1" stop-color="#FCA2FD"/></linearGradient></defs></svg>