<svg width="3150" height="259" viewBox="0 0 3150 259" fill="none" xmlns="http://www.w3.org/2000/svg"><path d="M3001.54 63.6582C3034.56 63.6582 3059.52 82.8982 3059.52 125.538V205.618H3018.96V131.778C3018.96 109.158 3008.56 98.7582 2990.62 98.7582C2971.12 98.7582 2957.08 110.718 2957.08 136.458V205.618H2916.52V65.7382H2955.26V82.1182C2966.18 70.1582 2982.56 63.6582 3001.54 63.6582Z" fill="white" fill-opacity="0.2"/><path d="M2832.17 63.6582C2865.19 63.6582 2890.15 82.8982 2890.15 125.538V205.618H2849.59V131.778C2849.59 109.158 2839.19 98.7582 2821.25 98.7582C2801.75 98.7582 2787.71 110.718 2787.71 136.458V205.618H2747.15V65.7382H2785.89V82.1182C2796.81 70.1582 2813.19 63.6582 2832.17 63.6582Z" fill="white" fill-opacity="0.2"/><path d="M2653.74 207.698C2609.28 207.698 2576.78 177.798 2576.78 135.678C2576.78 93.5582 2609.28 63.6582 2653.74 63.6582C2698.2 63.6582 2730.44 93.5582 2730.44 135.678C2730.44 177.798 2698.2 207.698 2653.74 207.698ZM2653.74 174.418C2674.02 174.418 2689.36 159.858 2689.36 135.678C2689.36 111.498 2674.02 96.9382 2653.74 96.9382C2633.46 96.9382 2617.86 111.498 2617.86 135.678C2617.86 159.858 2633.46 174.418 2653.74 174.418Z" fill="white" fill-opacity="0.2"/><path d="M2513.34 207.698C2467.84 207.698 2435.34 177.798 2435.34 135.678C2435.34 93.5582 2467.84 63.6582 2513.34 63.6582C2542.72 63.6582 2565.86 76.3982 2576 99.2782L2544.54 116.178C2537 102.918 2525.82 96.9382 2513.08 96.9382C2492.54 96.9382 2476.42 111.238 2476.42 135.678C2476.42 160.118 2492.54 174.418 2513.08 174.418C2525.82 174.418 2537 168.698 2544.54 155.178L2576 172.338C2565.86 194.698 2542.72 207.698 2513.34 207.698Z" fill="white" fill-opacity="0.2"/><path d="M2314.81 12.6992H2355.37V205.619H2316.63V189.499C2306.49 201.719 2291.67 207.699 2272.95 207.699C2233.43 207.699 2203.01 179.619 2203.01 135.679C2203.01 91.7392 2233.43 63.6592 2272.95 63.6592C2290.11 63.6592 2304.67 69.1192 2314.81 80.5592V12.6992ZM2279.97 174.419C2299.99 174.419 2315.59 159.859 2315.59 135.679C2315.59 111.499 2299.99 96.9392 2279.97 96.9392C2259.69 96.9392 2244.09 111.499 2244.09 135.679C2244.09 159.859 2259.69 174.419 2279.97 174.419Z" fill="white" fill-opacity="0.2"/><path d="M2127.02 63.6582C2160.04 63.6582 2185 82.8982 2185 125.538V205.618H2144.44V131.778C2144.44 109.158 2134.04 98.7582 2116.1 98.7582C2096.6 98.7582 2082.56 110.718 2082.56 136.458V205.618H2042V65.7382H2080.74V82.1182C2091.66 70.1582 2108.04 63.6582 2127.02 63.6582Z" fill="white" fill-opacity="0.2"/><path d="M1948.35 63.6582C1990.99 63.6582 2015.69 83.4182 2015.69 125.798V205.618H1977.73V188.198C1970.19 200.938 1955.63 207.698 1935.09 207.698C1902.33 207.698 1882.83 189.498 1882.83 165.318C1882.83 140.618 1900.25 123.458 1942.89 123.458H1975.13C1975.13 106.038 1964.73 95.8982 1942.89 95.8982C1928.07 95.8982 1912.73 100.838 1902.59 108.898L1888.03 80.5582C1903.37 69.6382 1925.99 63.6582 1948.35 63.6582ZM1945.23 180.398C1958.75 180.398 1970.45 174.158 1975.13 161.418V147.118H1947.31C1928.33 147.118 1922.35 154.138 1922.35 163.498C1922.35 173.638 1930.93 180.398 1945.23 180.398Z" fill="white" fill-opacity="0.2"/><path d="M1748.03 207.698C1724.37 207.698 1700.45 201.198 1687.45 192.618L1700.97 163.498C1713.45 171.558 1732.43 177.018 1749.59 177.018C1768.31 177.018 1775.33 172.078 1775.33 164.278C1775.33 141.398 1690.83 164.798 1690.83 108.898C1690.83 82.3782 1714.75 63.6582 1755.57 63.6582C1774.81 63.6582 1796.13 68.0782 1809.39 75.8782L1795.87 104.738C1782.09 96.9382 1768.31 94.3382 1755.57 94.3382C1737.37 94.3382 1729.57 100.058 1729.57 107.338C1729.57 131.258 1814.07 108.118 1814.07 163.238C1814.07 189.238 1789.89 207.698 1748.03 207.698Z" fill="white" fill-opacity="0.2"/><path d="M1607.32 63.6582C1649.96 63.6582 1674.66 83.4182 1674.66 125.798V205.618H1636.7V188.198C1629.16 200.938 1614.6 207.698 1594.06 207.698C1561.3 207.698 1541.8 189.498 1541.8 165.318C1541.8 140.618 1559.22 123.458 1601.86 123.458H1634.1C1634.1 106.038 1623.7 95.8982 1601.86 95.8982C1587.04 95.8982 1571.7 100.838 1561.56 108.898L1547 80.5582C1562.34 69.6382 1584.96 63.6582 1607.32 63.6582ZM1604.2 180.398C1617.72 180.398 1629.42 174.158 1634.1 161.418V147.118H1606.28C1587.3 147.118 1581.32 154.138 1581.32 163.498C1581.32 173.638 1589.9 180.398 1604.2 180.398Z" fill="white" fill-opacity="0.2"/><path d="M1538.11 136.198C1538.11 139.318 1537.59 143.738 1537.33 147.118H1431.51C1435.41 164.538 1450.23 175.198 1471.55 175.198C1486.37 175.198 1497.03 170.778 1506.65 161.678L1528.23 185.078C1515.23 199.898 1495.73 207.698 1470.51 207.698C1422.15 207.698 1390.69 177.278 1390.69 135.678C1390.69 93.8182 1422.67 63.6582 1465.31 63.6582C1506.39 63.6582 1538.11 91.2182 1538.11 136.198ZM1465.57 94.3382C1447.11 94.3382 1433.85 105.518 1430.99 123.458H1499.89C1497.03 105.778 1483.77 94.3382 1465.57 94.3382Z" fill="white" fill-opacity="0.2"/><path d="M1333.39 12.6992H1373.95V205.619H1335.21V189.499C1325.07 201.719 1310.25 207.699 1291.53 207.699C1252.01 207.699 1221.59 179.619 1221.59 135.679C1221.59 91.7392 1252.01 63.6592 1291.53 63.6592C1308.69 63.6592 1323.25 69.1192 1333.39 80.5592V12.6992ZM1298.55 174.419C1318.57 174.419 1334.17 159.859 1334.17 135.679C1334.17 111.499 1318.57 96.9392 1298.55 96.9392C1278.27 96.9392 1262.67 111.499 1262.67 135.679C1262.67 159.859 1278.27 174.419 1298.55 174.419Z" fill="white" fill-opacity="0.2"/><path d="M1183.95 46.24C1168.87 46.24 1158.73 36.36 1158.73 23.62C1158.73 10.88 1168.87 1 1183.95 1C1199.03 1 1209.17 10.36 1209.17 22.84C1209.17 36.36 1199.03 46.24 1183.95 46.24ZM1163.67 205.62V65.74H1204.23V205.62H1163.67Z" fill="white" fill-opacity="0.2"/><path d="M1034.6 65.7382H1073.08V182.218C1073.08 234.218 1045 258.138 994.563 258.138C968.043 258.138 942.303 251.638 925.923 238.898L942.043 209.778C954.003 219.398 973.503 225.638 991.443 225.638C1020.04 225.638 1032.52 212.638 1032.52 187.418V181.438C1021.86 193.138 1006.52 198.858 988.323 198.858C949.583 198.858 918.383 172.078 918.383 131.258C918.383 90.4382 949.583 63.6582 988.323 63.6582C1007.82 63.6582 1023.94 70.1582 1034.6 83.6782V65.7382ZM996.383 165.578C1017.7 165.578 1033.04 151.798 1033.04 131.258C1033.04 110.718 1017.7 96.9382 996.383 96.9382C975.063 96.9382 959.463 110.718 959.463 131.258C959.463 151.798 975.063 165.578 996.383 165.578Z" fill="white" fill-opacity="0.2"/><path d="M842.915 63.6582C875.935 63.6582 900.895 82.8982 900.895 125.538V205.618H860.335V131.778C860.335 109.158 849.935 98.7582 831.995 98.7582C812.495 98.7582 798.455 110.718 798.455 136.458V205.618H757.895V65.7382H796.635V82.1182C807.555 70.1582 823.935 63.6582 842.915 63.6582Z" fill="white" fill-opacity="0.2"/><path d="M710.372 46.24C695.292 46.24 685.152 36.36 685.152 23.62C685.152 10.88 695.292 1 710.372 1C725.452 1 735.592 10.36 735.592 22.84C735.592 36.36 725.452 46.24 710.372 46.24ZM690.092 205.62V65.74H730.652V205.62H690.092Z" fill="white" fill-opacity="0.2"/><path d="M605.747 63.6582C638.767 63.6582 663.727 82.8982 663.727 125.538V205.618H623.167V131.778C623.167 109.158 612.767 98.7582 594.827 98.7582C575.327 98.7582 561.287 110.718 561.287 136.458V205.618H520.727V65.7382H559.467V82.1182C570.387 70.1582 586.767 63.6582 605.747 63.6582Z" fill="white" fill-opacity="0.2"/><path d="M473.258 46.24C458.178 46.24 448.038 36.36 448.038 23.62C448.038 10.88 458.178 1 473.258 1C488.338 1 498.478 10.36 498.478 22.84C498.478 36.36 488.338 46.24 473.258 46.24ZM394.478 42.6C382.518 42.6 376.018 49.1 376.018 62.88V68.86H411.898V100.06H377.058V205.62H336.498V100.06H314.918V68.86H336.498V62.62C336.498 31.16 355.738 10.62 390.578 10.62C402.018 10.62 413.978 12.96 421.518 18.16L410.858 47.54C406.438 44.42 400.718 42.6 394.478 42.6ZM452.978 205.62V65.74H493.538V205.62H452.978Z" fill="white" fill-opacity="0.2"/><path d="M314.955 136.198C314.955 139.318 314.435 143.738 314.175 147.118H208.355C212.255 164.538 227.075 175.198 248.395 175.198C263.215 175.198 273.875 170.778 283.495 161.678L305.075 185.078C292.075 199.898 272.575 207.698 247.355 207.698C198.995 207.698 167.535 177.278 167.535 135.678C167.535 93.8182 199.515 63.6582 242.155 63.6582C283.235 63.6582 314.955 91.2182 314.955 136.198ZM242.415 94.3382C223.955 94.3382 210.695 105.518 207.835 123.458H276.735C273.875 105.778 260.615 94.3382 242.415 94.3382Z" fill="white" fill-opacity="0.2"/><path d="M161.2 205.619H115.96L80.86 154.919H78.78H42.12V205.619H0V23.6191H78.78C127.4 23.6191 157.82 48.8391 157.82 89.6591C157.82 116.959 144.04 136.979 120.38 147.119L161.2 205.619ZM115.18 89.6591C115.18 69.6392 102.18 57.9391 76.44 57.9391H42.12V121.379H76.44C102.18 121.379 115.18 109.419 115.18 89.6591Z" fill="white" fill-opacity="0.2"/></svg>