<svg width="80" height="145" viewBox="0 0 80 145" fill="none" xmlns="http://www.w3.org/2000/svg"><path d="M72.3604 122.354H60.8991V145H53.2586V122.354H33.9516V114.704H53.2586V40.0457C53.2586 32.7521 47.2861 26.7719 40 26.7719C32.7139 26.7719 26.7414 32.7223 26.7414 40.0457V145H19.1009V122.354H7.63963V145H0V40.0457C0 18.0519 18.0313 0 40 0C61.9687 0 80 17.9958 80 40.0457V145H72.3595V122.354H72.3604ZM60.8991 114.704H72.3604V40.0457C72.3604 22.1902 57.7438 7.64835 40 7.64835C22.2562 7.64835 7.64053 22.2345 7.64053 40.0457V114.704H19.1018V40.0457C19.1018 28.5496 28.5171 19.1236 40 19.1236C51.4829 19.1236 60.8982 28.5496 60.8982 40.0457V114.704H60.8991Z" fill="white"/></svg>