<svg width="13" height="79" viewBox="0 0 13 79" fill="none" xmlns="http://www.w3.org/2000/svg"><path d="M10.7457 4.14015L10.7457 0.000152126L12.7437 0.000152039L12.7437 6.66016L0.179688 6.66016L0.179687 4.14015L10.7457 4.14015Z" fill="white"/><path d="M10.7457 14.9214L10.7457 10.7814L12.7437 10.7814L12.7437 17.4414L0.179688 17.4414L0.179687 14.9214L10.7457 14.9214Z" fill="white"/><path d="M12.87 28.263C12.87 29.439 12.594 30.519 12.042 31.503C11.49 32.487 10.728 33.267 9.756 33.843C8.772 34.419 7.662 34.707 6.426 34.707C5.202 34.707 4.104 34.419 3.132 33.843C2.148 33.267 1.38 32.487 0.827998 31.503C0.275999 30.519 -2.30272e-07 29.439 -2.81676e-07 28.263C-3.33605e-07 27.075 0.275999 25.995 0.827998 25.023C1.38 24.039 2.148 23.265 3.132 22.701C4.104 22.125 5.202 21.837 6.426 21.837C7.662 21.837 8.772 22.125 9.756 22.701C10.728 23.265 11.49 24.039 12.042 25.023C12.594 26.007 12.87 27.087 12.87 28.263ZM10.62 28.263C10.62 27.507 10.452 26.841 10.116 26.265C9.768 25.689 9.276 25.239 8.64 24.915C8.004 24.591 7.266 24.429 6.426 24.429C5.586 24.429 4.854 24.591 4.23 24.915C3.594 25.239 3.108 25.689 2.772 26.265C2.436 26.841 2.268 27.507 2.268 28.263C2.268 29.019 2.436 29.691 2.772 30.279C3.108 30.855 3.594 31.305 4.23 31.629C4.854 31.953 5.586 32.115 6.426 32.115C7.266 32.115 8.004 31.953 8.64 31.629C9.276 31.305 9.768 30.855 10.116 30.279C10.452 29.691 10.62 29.019 10.62 28.263Z" fill="white"/><path d="M12.7437 41.6665L7.84769 44.4385L7.84769 45.6265L12.7437 45.6265L12.7437 48.1465L0.179688 48.1465L0.179687 43.4305C0.179687 42.4585 0.353687 41.6305 0.701687 40.9465C1.03769 40.2625 1.49969 39.7525 2.08769 39.4165C2.66369 39.0685 3.31169 38.8945 4.03169 38.8945C4.85969 38.8945 5.60969 39.1345 6.28169 39.6145C6.94169 40.0945 7.39769 40.8085 7.64969 41.7565L12.7437 38.7505L12.7437 41.6665ZM5.95769 45.6265L5.95769 43.5205C5.95769 42.8365 5.79569 42.3265 5.47169 41.9905C5.13569 41.6545 4.67369 41.4865 4.08569 41.4865C3.50969 41.4865 3.06569 41.6545 2.75369 41.9905C2.42969 42.3265 2.26769 42.8365 2.26769 43.5205L2.26769 45.6265L5.95769 45.6265Z" fill="white"/><path d="M6.44163 65.0937C5.20563 65.0937 4.10163 64.8177 3.12962 64.2657C2.14562 63.7017 1.38362 62.9398 0.843625 61.9798C0.291625 61.0078 0.0156248 59.9217 0.0156247 58.7217C0.0156247 57.3177 0.375625 56.0877 1.09562 55.0317C1.81562 53.9757 2.81162 53.2377 4.08362 52.8177L4.08362 55.7157C3.48362 56.0037 3.03362 56.4117 2.73362 56.9397C2.43362 57.4557 2.28362 58.0557 2.28362 58.7397C2.28362 59.4717 2.45762 60.1258 2.80562 60.7018C3.14162 61.2658 3.62162 61.7097 4.24562 62.0337C4.86963 62.3457 5.60163 62.5017 6.44163 62.5017C7.26963 62.5017 8.00162 62.3457 8.63762 62.0337C9.26162 61.7097 9.74762 61.2658 10.0956 60.7018C10.4316 60.1258 10.5996 59.4717 10.5996 58.7397C10.5996 58.0557 10.4496 57.4557 10.1496 56.9397C9.83763 56.4117 9.38163 56.0037 8.78163 55.7157L8.78163 52.8177C10.0656 53.2377 11.0676 53.9757 11.7876 55.0317C12.4956 56.0757 12.8496 57.3057 12.8496 58.7217C12.8496 59.9217 12.5796 61.0078 12.0396 61.9798C11.4876 62.9398 10.7256 63.7017 9.75363 64.2657C8.78163 64.8177 7.67763 65.0937 6.44163 65.0937Z" fill="white"/><path d="M12.87 73.6329C12.87 74.5089 12.72 75.3009 12.42 76.0089C12.12 76.7049 11.688 77.2569 11.124 77.6649C10.56 78.0729 9.894 78.2829 9.126 78.2949L9.126 75.5949C9.642 75.5589 10.05 75.3789 10.35 75.0549C10.65 74.7189 10.8 74.2629 10.8 73.6869C10.8 73.0989 10.662 72.6369 10.386 72.3009C10.098 71.9649 9.726 71.7969 9.27 71.7969C8.898 71.7969 8.592 71.9109 8.352 72.1389C8.112 72.3669 7.926 72.6549 7.794 73.0029C7.65 73.3389 7.494 73.8069 7.326 74.4069C7.086 75.2229 6.852 75.8889 6.624 76.4049C6.384 76.9089 6.03 77.3469 5.562 77.7189C5.082 78.0789 4.446 78.2589 3.654 78.2589C2.91 78.2589 2.262 78.0729 1.71 77.7009C1.158 77.3289 0.737999 76.8069 0.449999 76.1349C0.149999 75.4629 -1.57361e-07 74.6949 -1.95128e-07 73.8309C-2.51778e-07 72.5349 0.318 71.4849 0.953999 70.6809C1.578 69.8649 2.454 69.4149 3.582 69.3309L3.582 72.1029C3.15 72.1269 2.796 72.3129 2.52 72.6609C2.232 72.9969 2.088 73.4469 2.088 74.0109C2.088 74.5029 2.214 74.8989 2.466 75.1989C2.718 75.4869 3.084 75.6309 3.564 75.6309C3.9 75.6309 4.182 75.5229 4.41 75.3069C4.626 75.0789 4.806 74.8029 4.95 74.4789C5.082 74.1429 5.238 73.6749 5.418 73.0749C5.658 72.2589 5.898 71.5929 6.138 71.0769C6.378 70.5609 6.738 70.1169 7.218 69.7449C7.698 69.3729 8.328 69.1869 9.108 69.1869C9.78 69.1869 10.404 69.3609 10.98 69.7089C11.556 70.0569 12.018 70.5669 12.366 71.2389C12.702 71.9109 12.87 72.7089 12.87 73.6329Z" fill="white"/></svg>