<svg width="73" height="73" viewBox="0 0 73 73" fill="none" xmlns="http://www.w3.org/2000/svg"><path d="M72 36.5C72 16.8943 56.1057 1 36.5 1C16.8943 1 1 16.8943 1 36.5C1 43.1944 2.85355 49.4518 6.07129 54.7939L6.3291 55.2227L5.47266 55.7383L5.21484 55.3105C1.90601 49.8172 0 43.3816 0 36.5C0 16.342 16.342 0 36.5 0C56.6579 0 73 16.342 73 36.5C73 56.6579 56.6579 73 36.5 73C29.6597 73 23.2567 71.117 17.7861 67.8447L17.3564 67.5879L17.8701 66.7295L18.2988 66.9863C23.6187 70.1685 29.8454 72 36.5 72C56.1057 72 72 56.1057 72 36.5Z" fill="white"/></svg>