<svg width="80" height="730" viewBox="0 0 80 730" fill="none" xmlns="http://www.w3.org/2000/svg"><path opacity="0.3" d="M65.12 714.95C67.8187 716.71 69.9307 718.91 71.456 721.55C73.04 724.19 73.832 727.124 73.832 730.35L57.904 730.35L57.904 726.214C57.904 722.46 57.0827 719.644 55.44 717.766C53.856 715.889 51.04 714.95 46.992 714.95L24.2 714.95L24.2 699.902L73.304 699.902L73.304 714.95L65.12 714.95Z" fill="white"/><path opacity="0.3" d="M49.5438 695.483C48.1358 695.483 46.6691 695.395 45.1438 695.219L45.1438 661.163C42.0931 661.398 39.7465 662.366 38.1038 664.067C36.5198 665.827 35.7278 667.968 35.7278 670.491C35.7278 674.246 37.3118 676.856 40.4798 678.323L40.4798 694.339C37.2531 693.518 34.3491 692.022 31.7678 689.851C29.1865 687.739 27.1625 685.07 25.6958 681.843C24.2291 678.616 23.4958 675.008 23.4958 671.019C23.4958 666.208 24.5225 661.926 26.5758 658.171C28.6291 654.416 31.5625 651.483 35.3758 649.371C39.1891 647.259 43.6478 646.203 48.7518 646.203C53.8558 646.203 58.3145 647.23 62.1278 649.283C65.9411 651.395 68.8745 654.328 70.9278 658.083C72.9811 661.838 74.0078 666.15 74.0078 671.019C74.0078 675.771 73.0105 679.995 71.0158 683.691C69.0211 687.387 66.1758 690.262 62.4798 692.315C58.7838 694.427 54.4718 695.483 49.5438 695.483ZM53.5038 680.083C56.0851 680.083 58.1385 679.203 59.6638 677.443C61.1891 675.683 61.9518 673.483 61.9518 670.843C61.9518 668.32 61.2185 666.179 59.7518 664.419C58.2851 662.718 56.2025 661.662 53.5038 661.251L53.5038 680.083Z" fill="white"/><path opacity="0.3" d="M73.832 623.338C73.832 629.087 71.9547 633.663 68.2 637.066C64.504 640.527 59.4 642.258 52.888 642.258L24.2 642.258L24.2 627.298L50.864 627.298C54.1494 627.298 56.7014 626.447 58.52 624.746C60.3387 623.045 61.248 620.757 61.248 617.882C61.248 615.007 60.3387 612.719 58.52 611.018C56.7014 609.317 54.1494 608.466 50.864 608.466L24.2 608.466L24.2 593.418L73.304 593.418L73.304 608.466L66.792 608.466C68.9627 609.991 70.664 612.045 71.896 614.626C73.1867 617.207 73.832 620.111 73.832 623.338Z" fill="white"/><path opacity="0.3" d="M36.9575 588.558L24.1975 588.558L24.1975 580.902C24.1975 575.446 25.5175 571.193 28.1575 568.142C30.8562 565.091 35.2269 563.566 41.2695 563.566L60.8055 563.566L60.8055 557.582L73.3015 557.582L73.3015 563.566L85.2695 563.566L85.2695 578.614L73.3015 578.614L73.3015 588.47L60.8055 588.47L60.8055 578.614L41.0935 578.614C39.6269 578.614 38.5709 578.966 37.9255 579.67C37.2802 580.374 36.9575 581.547 36.9575 583.19L36.9575 588.558Z" fill="white"/><path opacity="0.3" d="M65.12 542.114C67.8187 543.874 69.9307 546.074 71.456 548.714C73.04 551.354 73.832 554.288 73.832 557.514L57.904 557.514L57.904 553.378C57.904 549.624 57.0827 546.808 55.44 544.93C53.856 543.053 51.04 542.114 46.992 542.114L24.2 542.114L24.2 527.066L73.304 527.066L73.304 542.114L65.12 542.114Z" fill="white"/><path opacity="0.3" d="M48.8398 467.871C53.8851 467.871 58.3145 468.81 62.1278 470.687C65.9411 472.623 68.8745 475.234 70.9278 478.519C72.9811 481.804 74.0078 485.471 74.0078 489.519C74.0078 492.98 73.3038 496.002 71.8958 498.583C70.4878 501.223 68.6398 503.247 66.3518 504.655L73.3038 504.655L73.3038 519.703L24.1998 519.703L24.1998 504.655L31.1518 504.655C28.8638 503.188 27.0158 501.135 25.6078 498.495C24.1998 495.914 23.4958 492.892 23.4958 489.431C23.4958 485.442 24.5225 481.804 26.5758 478.519C28.6878 475.234 31.6505 472.623 35.4638 470.687C39.3358 468.81 43.7945 467.871 48.8398 467.871ZM48.7518 504.655C52.5065 504.655 55.4691 503.599 57.6398 501.487C59.8105 499.434 60.8958 496.911 60.8958 493.919C60.8958 490.927 59.8105 488.375 57.6398 486.263C55.5278 484.21 52.5945 483.183 48.8398 483.183C45.0851 483.183 42.0931 484.21 39.8638 486.263C37.6931 488.375 36.6078 490.927 36.6078 493.919C36.6078 496.911 37.6931 499.434 39.8638 501.487C42.0345 503.599 44.9971 504.655 48.7518 504.655Z" fill="white"/><path opacity="0.3" d="M66.0886 466.549C62.5099 466.549 59.2246 465.727 56.2326 464.085C53.2992 462.442 50.9232 459.919 49.1046 456.517C47.2859 453.114 46.3766 448.89 46.3766 443.845L46.3766 434.517L24.2006 434.517L24.2006 419.469L85.9766 419.469L85.9766 443.845C85.9766 448.773 85.1259 452.938 83.4246 456.341C81.7232 459.743 79.3766 462.295 76.3846 463.997C73.3926 465.698 69.9606 466.549 66.0886 466.549ZM58.3446 442.701C58.3446 445.575 59.0192 447.717 60.3686 449.125C61.7179 450.533 63.6246 451.237 66.0886 451.237C68.5526 451.237 70.4592 450.533 71.8086 449.125C73.1579 447.717 73.8326 445.575 73.8326 442.701L73.8326 434.517L58.3446 434.517L58.3446 442.701Z" fill="white"/><path opacity="0.3" d="M49.5438 399.921C48.1358 399.921 46.6691 399.833 45.1438 399.657L45.1438 365.601C42.0931 365.835 39.7465 366.803 38.1038 368.505C36.5198 370.265 35.7278 372.406 35.7278 374.929C35.7278 378.683 37.3118 381.294 40.4798 382.761L40.4798 398.777C37.2531 397.955 34.3491 396.459 31.7678 394.289C29.1865 392.177 27.1625 389.507 25.6958 386.281C24.2291 383.054 23.4958 379.446 23.4958 375.457C23.4958 370.646 24.5225 366.363 26.5758 362.609C28.6291 358.854 31.5625 355.921 35.3758 353.809C39.1891 351.697 43.6478 350.641 48.7518 350.641C53.8558 350.641 58.3145 351.667 62.1278 353.721C65.9411 355.833 68.8745 358.766 70.9278 362.521C72.9811 366.275 74.0078 370.587 74.0078 375.457C74.0078 380.209 73.0105 384.433 71.0158 388.129C69.0211 391.825 66.1758 394.699 62.4798 396.753C58.7838 398.865 54.4718 399.921 49.5438 399.921ZM53.5038 384.521C56.0851 384.521 58.1385 383.641 59.6638 381.881C61.1891 380.121 61.9518 377.921 61.9518 375.281C61.9518 372.758 61.2185 370.617 59.7518 368.857C58.2851 367.155 56.2025 366.099 53.5038 365.689L53.5038 384.521Z" fill="white"/><path opacity="0.3" d="M74.0078 316.082C74.0078 319.543 73.3038 322.564 71.8958 325.146C70.4878 327.786 68.6398 329.81 66.3518 331.218L73.3038 331.218L73.3038 346.266L24.2878 346.266C19.7705 346.266 15.6931 345.356 12.0558 343.538C8.35981 341.778 5.42647 339.05 3.2558 335.354C1.08514 331.716 -0.000192166 327.17 -0.000191927 321.714C-0.000191609 314.439 1.73048 308.543 5.19181 304.026C8.59448 299.508 13.2291 296.927 19.0958 296.282L19.0958 311.154C17.2185 311.623 15.7518 312.738 14.6958 314.498C13.5811 316.258 13.0238 318.428 13.0238 321.01C13.0238 324.119 13.9331 326.583 15.7518 328.402C17.5118 330.279 20.3571 331.218 24.2878 331.218L31.2398 331.218C28.9518 329.751 27.0745 327.727 25.6078 325.146C24.1998 322.564 23.4958 319.543 23.4958 316.082C23.4958 312.034 24.5225 308.367 26.5758 305.082C28.6878 301.796 31.6505 299.186 35.4638 297.25C39.3358 295.372 43.7945 294.434 48.8398 294.434C53.8851 294.434 58.3145 295.372 62.1278 297.25C65.9411 299.186 68.8745 301.796 70.9278 305.082C72.9811 308.367 74.0078 312.034 74.0078 316.082ZM48.7518 331.218C52.5065 331.218 55.4691 330.162 57.6398 328.05C59.8105 325.996 60.8958 323.474 60.8958 320.482C60.8958 317.49 59.8105 314.938 57.6398 312.826C55.5278 310.772 52.5945 309.746 48.8398 309.746C45.0851 309.746 42.0931 310.772 39.8638 312.826C37.6931 314.938 36.6078 317.49 36.6078 320.482C36.6078 323.474 37.6931 325.996 39.8638 328.05C42.0345 330.162 44.9971 331.218 48.7518 331.218Z" fill="white"/><path opacity="0.3" d="M48.8398 238.227C53.8851 238.227 58.3145 239.165 62.1278 241.043C65.9411 242.979 68.8745 245.589 70.9278 248.875C72.9811 252.16 74.0078 255.827 74.0078 259.875C74.0078 263.336 73.3038 266.357 71.8958 268.939C70.4878 271.579 68.6398 273.603 66.3518 275.011L73.3038 275.011L73.3038 290.059L24.1998 290.059L24.1998 275.011L31.1518 275.011C28.8638 273.544 27.0158 271.491 25.6078 268.851C24.1998 266.269 23.4958 263.248 23.4958 259.787C23.4958 255.797 24.5225 252.16 26.5758 248.875C28.6878 245.589 31.6505 242.979 35.4638 241.043C39.3358 239.165 43.7945 238.227 48.8398 238.227ZM48.7518 275.011C52.5065 275.011 55.4691 273.955 57.6398 271.843C59.8105 269.789 60.8958 267.267 60.8958 264.275C60.8958 261.283 59.8105 258.731 57.6398 256.619C55.5278 254.565 52.5945 253.539 48.8398 253.539C45.0851 253.539 42.0931 254.565 39.8638 256.619C37.6931 258.731 36.6078 261.283 36.6078 264.275C36.6078 267.267 37.6931 269.789 39.8638 271.843C42.0345 273.955 44.9971 275.011 48.7518 275.011Z" fill="white"/><path opacity="0.3" d="M66.0886 236.904C62.5099 236.904 59.2246 236.083 56.2326 234.44C53.2992 232.798 50.9232 230.275 49.1046 226.872C47.2859 223.47 46.3766 219.246 46.3766 214.2L46.3766 204.872L24.2006 204.872L24.2006 189.824L85.9766 189.824L85.9766 214.2C85.9766 219.128 85.1259 223.294 83.4246 226.696C81.7232 230.099 79.3766 232.651 76.3846 234.352C73.3926 236.054 69.9606 236.904 66.0886 236.904ZM58.3446 213.056C58.3446 215.931 59.0192 218.072 60.3686 219.48C61.7179 220.888 63.6246 221.592 66.0886 221.592C68.5526 221.592 70.4592 220.888 71.8086 219.48C73.1579 218.072 73.8326 215.931 73.8326 213.056L73.8326 204.872L58.3446 204.872L58.3446 213.056Z" fill="white"/><path opacity="0.3" d="M49.5438 170.28C48.1358 170.28 46.6691 170.192 45.1438 170.016L45.1438 135.96C42.0931 136.195 39.7465 137.163 38.1038 138.864C36.5198 140.624 35.7278 142.765 35.7278 145.288C35.7278 149.043 37.3118 151.653 40.4798 153.12L40.4798 169.136C37.2531 168.315 34.3491 166.819 31.7678 164.648C29.1865 162.536 27.1625 159.867 25.6958 156.64C24.2291 153.413 23.4958 149.805 23.4958 145.816C23.4958 141.005 24.5225 136.723 26.5758 132.968C28.6291 129.213 31.5625 126.28 35.3758 124.168C39.1891 122.056 43.6478 121 48.7518 121C53.8558 121 58.3145 122.027 62.1278 124.08C65.9411 126.192 68.8745 129.125 70.9278 132.88C72.9811 136.635 74.0078 140.947 74.0078 145.816C74.0078 150.568 73.0105 154.792 71.0158 158.488C69.0211 162.184 66.1758 165.059 62.4798 167.112C58.7838 169.224 54.4718 170.28 49.5438 170.28ZM53.5038 154.88C56.0851 154.88 58.1385 154 59.6638 152.24C61.1891 150.48 61.9518 148.28 61.9518 145.64C61.9518 143.117 61.2185 140.976 59.7518 139.216C58.2851 137.515 56.2025 136.459 53.5038 136.048L53.5038 154.88Z" fill="white"/><path opacity="0.3" d="M73.832 98.1348C73.832 103.884 71.9547 108.46 68.2 111.863C64.504 115.324 59.4 117.055 52.888 117.055L24.2 117.055L24.2 102.095L50.864 102.095C54.1494 102.095 56.7014 101.244 58.52 99.5428C60.3387 97.8415 61.248 95.5535 61.248 92.6788C61.248 89.8042 60.3387 87.5162 58.52 85.8148C56.7014 84.1135 54.1494 83.2628 50.864 83.2628L24.2 83.2628L24.2 68.2148L73.304 68.2148L73.304 83.2628L66.792 83.2628C68.9627 84.7882 70.664 86.8415 71.896 89.4228C73.1867 92.0042 73.832 94.9082 73.832 98.1348Z" fill="white"/><path opacity="0.3" d="M23.5835 31.768C23.5835 25.96 24.9328 20.6213 27.6315 15.752C30.3301 10.9413 34.0848 7.09866 38.8955 4.224C43.7648 1.408 49.2208 -1.64506e-06 55.2635 -1.38093e-06C61.3061 -1.1168e-06 66.7328 1.408 71.5435 4.224C76.3541 7.09867 80.1088 10.9413 82.8075 15.752C85.5061 20.6213 86.8555 25.96 86.8555 31.768C86.8555 37.576 85.5061 42.8853 82.8075 47.696C80.1088 52.5653 76.3541 56.3787 71.5435 59.136C66.7328 61.952 61.3061 63.36 55.2635 63.36C49.2208 63.36 43.7648 61.952 38.8955 59.136C34.0848 56.32 30.3301 52.5067 27.6315 47.696C24.9328 42.8853 23.5835 37.576 23.5835 31.768ZM37.3115 31.768C37.3115 36.696 38.9541 40.6267 42.2395 43.56C45.5248 46.552 49.8661 48.048 55.2635 48.048C60.7195 48.048 65.0608 46.552 68.2875 43.56C71.5728 40.6267 73.2155 36.696 73.2155 31.768C73.2155 26.7813 71.6021 22.792 68.3755 19.8C65.1488 16.8667 60.7781 15.4 55.2635 15.4C49.8075 15.4 45.4368 16.8667 42.1515 19.8C38.9248 22.792 37.3115 26.7813 37.3115 31.768Z" fill="white"/></svg>