<svg width="44" height="44" viewBox="0 0 44 44" fill="none" xmlns="http://www.w3.org/2000/svg"><path d="M31.1299 10.05C32.5792 9.51883 33.9879 10.8649 33.5762 12.3097L33.5303 12.4504L25.2217 35.0549L25.2207 35.0558C24.6509 36.598 22.5054 36.7118 21.7842 35.2258L17.3887 26.1916L8.35352 21.7951V21.7961C6.86742 21.0748 6.98207 18.9282 8.52442 18.3586H8.5254L31.1289 10.05H31.1299ZM32.1221 11.9328C32.2299 11.6362 31.9421 11.3495 31.6455 11.4582L9.04298 19.7648C8.73467 19.879 8.71779 20.3053 9.0088 20.4465H9.00977L18.2774 24.9562L18.3848 25.0197C18.4862 25.0921 18.5689 25.1887 18.624 25.3019L23.1328 34.5705H23.1338C23.275 34.8615 23.6993 34.8445 23.8135 34.5363L32.1221 11.9328Z" fill="white"/><path d="M32.7578 11.8828L23.3887 21.252L22.3281 20.1914L31.6973 10.8223L32.7578 11.8828Z" fill="white"/><path d="M21.1758 23.4668L17.9512 26.6914L16.8906 25.6309L20.1152 22.4062L21.1758 23.4668Z" fill="white"/><path d="M42 21.75C42 10.5665 32.9335 1.5 21.75 1.5C10.5665 1.5 1.5 10.5665 1.5 21.75C1.5 25.5694 2.55728 29.1385 4.39258 32.1855L4.7793 32.8271L3.49414 33.6016L3.10742 32.959C1.13557 29.6852 3.52206e-07 25.85 0 21.75C0 9.73807 9.73807 0 21.75 0C33.7619 1.03093e-06 43.5 9.73807 43.5 21.75C43.5 33.7619 33.7619 43.5 21.75 43.5C17.6746 43.5 13.858 42.3779 10.5977 40.4277L9.9541 40.043L10.7246 38.7559L11.3682 39.1406C14.4023 40.9555 17.9534 42 21.75 42C32.9335 42 42 32.9335 42 21.75Z" fill="white"/></svg>