<svg width="180" height="97" viewBox="0 0 180 97" fill="none" xmlns="http://www.w3.org/2000/svg"><g clip-path="url(#clip0_13289_34993)"><path d="M179.386 79.9956L171.029 68.0994C170.493 67.2685 169.601 66.6846 168.546 66.5779L168.133 66.533C161.728 65.8425 155.262 65.4944 148.919 65.4944C130.809 65.4944 113.168 68.3071 96.3743 73.8594C103.198 67.6165 110.819 63.4397 119.511 61.1716C132.008 57.9154 146.832 58.4712 164.819 62.8783C165.718 63.0972 166.621 62.5414 166.839 61.6376C167.057 60.7337 166.504 59.8242 165.606 59.6053C147.072 55.0691 131.718 54.5133 118.669 57.9098C108.905 60.453 100.425 65.2586 92.8929 72.5176C94.3212 68.5709 97.2335 64.4334 101.189 60.9133C107.784 55.041 122.942 45.7273 150.358 49.2697C151.273 49.3876 152.116 48.7364 152.233 47.8157C152.35 46.895 151.703 46.0473 150.788 45.9294C122.061 42.2185 105.993 52.1385 98.9742 58.387C97.5292 59.6726 96.2181 61.0368 95.0465 62.4348C99.7999 51.6894 111.427 40.4107 139.094 39.1307C140.02 39.0858 140.734 38.2998 140.689 37.3735C140.645 36.4472 139.858 35.7286 138.943 35.7679C119.846 36.6493 105.853 42.2465 97.3618 52.4136C92.1732 58.6228 89.9806 65.5169 89.1103 71.0299C84.3457 56.1245 76.4121 51.8017 69.7674 49.775C61.5716 47.2711 55.111 48.8094 48.8623 50.2915C43.3055 51.6108 38.0611 52.8571 31.7901 51.201C20.2469 48.1469 8.99932 37.3847 10.1654 24.6633C11.4039 11.0716 22.7017 3.03222 32.4708 3.38029C46.5526 3.87994 53.917 13.1039 53.917 21.9517C53.917 32.3321 46.1676 38.2662 40.6666 39.17C36.7779 39.8044 32.6605 38.777 29.3688 36.3518C26.2221 34.0331 24.1858 30.6591 23.6334 26.8527C23.4995 25.932 22.6515 25.2976 21.7365 25.4268C20.8215 25.5615 20.1911 26.4148 20.3194 27.3356C21.0001 32.0401 23.5107 36.2058 27.3882 39.0634C31.3996 42.022 36.432 43.2683 41.2022 42.4879C51.2558 40.843 57.2645 30.7489 57.2645 21.946C57.2645 15.3776 54.4526 9.75788 49.1357 5.69329C44.6947 2.30239 38.6636 0.230794 32.588 0.017459C18.1045 -0.50465 7.9337 12.2505 6.82345 24.3601C6.18185 31.3833 8.6032 38.1651 13.8253 43.9757C18.2942 48.9497 24.5317 52.7729 30.9309 54.4628C38.0053 56.3323 43.9136 54.9343 49.6211 53.5757C55.7079 52.1329 61.4545 50.7631 68.7855 53.0031C75.3967 55.0242 82.605 59.2628 86.7447 74.9148C69.0254 68.6664 50.3352 65.5 31.1095 65.5C24.7716 65.5 18.2998 65.8481 11.8782 66.5386L11.4207 66.5892C10.4611 66.6902 9.59629 67.2011 9.04395 67.9927L0.613865 79.9956C-0.144899 81.0791 -0.206269 82.5051 0.463228 83.6447C1.07136 84.6833 2.17045 85.3065 3.34765 85.3065C3.46481 85.3065 3.58755 85.3009 3.71029 85.2896L14.2047 84.15C14.3497 84.1332 14.4892 84.1107 14.6287 84.077C19.6332 83.6054 24.6711 83.3696 29.6087 83.3696C45.9389 83.3696 61.845 85.9353 76.9366 90.9936L76.4345 92.6441C76.122 93.6659 76.3117 94.7774 76.9422 95.6364C77.5726 96.4954 78.5713 97.0006 79.6369 97.0006H99.945C101.005 97.0006 102.004 96.4954 102.634 95.6364C103.265 94.7774 103.454 93.6659 103.142 92.6441L102.684 91.1339C117.91 85.9802 133.955 83.3696 150.436 83.3696C155.357 83.3696 160.373 83.6054 165.36 84.0714C165.506 84.1051 165.651 84.1332 165.801 84.15L176.296 85.2896C176.418 85.3009 176.536 85.3065 176.658 85.3065C177.835 85.3065 178.94 84.6833 179.543 83.6447C180.212 82.5051 180.151 81.0735 179.392 79.9956H179.386ZM166.158 80.7984V80.7591C160.853 80.2482 155.608 79.9956 150.431 79.9956C132.181 79.9956 114.763 83.1226 98.5335 89.0174L99.9394 93.6266H79.6313L81.0875 88.8658C64.9805 83.0665 47.7074 79.9956 29.6087 79.9956C24.4201 79.9956 19.1645 80.2482 13.8532 80.7591V80.7928L3.35323 81.9324L11.7833 69.9295L12.2408 69.879C18.6066 69.1941 24.8999 68.8573 31.1151 68.8573C51.0047 68.8573 70.0352 72.3211 87.7713 78.8559C88.0726 79.3612 88.6137 79.6812 89.2051 79.6812C89.3223 79.6812 89.4395 79.67 89.5566 79.6419C89.618 79.6307 89.6738 79.6026 89.7296 79.5857C89.8244 79.6194 89.9193 79.6531 90.0141 79.6924C108.386 72.6075 128.181 68.8573 148.919 68.8573C155.128 68.8573 161.427 69.1941 167.793 69.879L168.217 69.9239C168.217 69.9295 168.234 69.9408 168.234 69.9464L176.653 81.9324L166.158 80.7928V80.7984Z" fill="white"/></g><defs><clipPath id="clip0_13289_34993"><rect width="180" height="97" fill="white"/></clipPath></defs></svg>