<svg width="342" height="72" viewBox="0 0 342 72" fill="none" xmlns="http://www.w3.org/2000/svg"><path opacity="0.3" d="M338.588 64.9848C337.98 64.9848 337.476 64.8008 337.076 64.4328C336.692 64.0488 336.5 63.5768 336.5 63.0168C336.5 62.4568 336.692 61.9928 337.076 61.6248C337.476 61.2408 337.98 61.0488 338.588 61.0488C339.18 61.0488 339.668 61.2408 340.052 61.6248C340.436 61.9928 340.628 62.4568 340.628 63.0168C340.628 63.5768 340.436 64.0488 340.052 64.4328C339.668 64.8008 339.18 64.9848 338.588 64.9848Z" fill="white"/><path opacity="0.3" d="M336.329 57.8807C336.329 58.3607 336.297 58.7927 336.233 59.1767H326.513C326.593 60.1367 326.929 60.8887 327.521 61.4327C328.113 61.9767 328.841 62.2487 329.705 62.2487C330.953 62.2487 331.841 61.7127 332.369 60.6407H335.993C335.609 61.9207 334.873 62.9767 333.785 63.8087C332.697 64.6247 331.361 65.0327 329.777 65.0327C328.497 65.0327 327.345 64.7527 326.321 64.1927C325.313 63.6167 324.521 62.8087 323.945 61.7687C323.385 60.7287 323.105 59.5287 323.105 58.1687C323.105 56.7927 323.385 55.5847 323.945 54.5447C324.505 53.5047 325.289 52.7047 326.297 52.1447C327.305 51.5847 328.465 51.3047 329.777 51.3047C331.041 51.3047 332.169 51.5767 333.161 52.1207C334.169 52.6647 334.945 53.4407 335.489 54.4487C336.049 55.4407 336.329 56.5847 336.329 57.8807ZM332.849 56.9207C332.833 56.0567 332.521 55.3687 331.913 54.8567C331.305 54.3287 330.561 54.0647 329.681 54.0647C328.849 54.0647 328.145 54.3207 327.569 54.8327C327.009 55.3287 326.665 56.0247 326.537 56.9207H332.849Z" fill="white"/><path opacity="0.3" d="M319.305 53.5841C319.737 52.8801 320.297 52.3281 320.985 51.9281C321.689 51.5281 322.489 51.3281 323.385 51.3281V54.8561H322.497C321.441 54.8561 320.641 55.1041 320.097 55.6001C319.569 56.0961 319.305 56.9601 319.305 58.1921V64.8161H315.945V51.5201H319.305V53.5841Z" fill="white"/><path opacity="0.3" d="M314.309 51.5195V64.8155H310.925V63.1355C310.493 63.7115 309.925 64.1675 309.221 64.5035C308.533 64.8235 307.781 64.9835 306.965 64.9835C305.925 64.9835 305.005 64.7675 304.205 64.3355C303.405 63.8875 302.773 63.2395 302.309 62.3915C301.861 61.5275 301.637 60.5035 301.637 59.3195V51.5195H304.997V58.8395C304.997 59.8955 305.261 60.7115 305.789 61.2875C306.317 61.8475 307.037 62.1275 307.949 62.1275C308.877 62.1275 309.605 61.8475 310.133 61.2875C310.661 60.7115 310.925 59.8955 310.925 58.8395V51.5195H314.309Z" fill="white"/><path opacity="0.3" d="M298.046 54.2804V60.7124C298.046 61.1604 298.15 61.4884 298.358 61.6964C298.582 61.8884 298.95 61.9844 299.462 61.9844H301.022V64.8164H298.91C296.078 64.8164 294.662 63.4404 294.662 60.6884V54.2804H293.078V51.5204H294.662V48.2324H298.046V51.5204H301.022V54.2804H298.046Z" fill="white"/><path opacity="0.3" d="M292.5 51.5195V64.8155H289.116V63.1355C288.684 63.7115 288.116 64.1675 287.412 64.5035C286.724 64.8235 285.972 64.9835 285.156 64.9835C284.116 64.9835 283.196 64.7675 282.396 64.3355C281.596 63.8875 280.964 63.2395 280.5 62.3915C280.052 61.5275 279.828 60.5035 279.828 59.3195V51.5195H283.188V58.8395C283.188 59.8955 283.452 60.7115 283.98 61.2875C284.508 61.8475 285.228 62.1275 286.14 62.1275C287.068 62.1275 287.796 61.8475 288.324 61.2875C288.852 60.7115 289.116 59.8955 289.116 58.8395V51.5195H292.5Z" fill="white"/><path opacity="0.3" d="M279.451 54.2803H277.123V64.8163H273.715V54.2803H272.203V51.5203H273.715V50.8483C273.715 49.2163 274.179 48.0163 275.107 47.2483C276.035 46.4803 277.435 46.1203 279.307 46.1683V49.0003C278.491 48.9843 277.923 49.1203 277.603 49.4083C277.283 49.6963 277.123 50.2163 277.123 50.9683V51.5203H279.451V54.2803Z" fill="white"/><path opacity="0.3" d="M268.54 57.8807C268.54 58.3607 268.508 58.7927 268.444 59.1767H258.724C258.804 60.1367 259.14 60.8887 259.732 61.4327C260.324 61.9767 261.052 62.2487 261.916 62.2487C263.164 62.2487 264.052 61.7127 264.58 60.6407H268.204C267.82 61.9207 267.084 62.9767 265.996 63.8087C264.908 64.6247 263.572 65.0327 261.988 65.0327C260.708 65.0327 259.556 64.7527 258.532 64.1927C257.524 63.6167 256.732 62.8087 256.156 61.7687C255.596 60.7287 255.316 59.5287 255.316 58.1687C255.316 56.7927 255.596 55.5847 256.156 54.5447C256.716 53.5047 257.5 52.7047 258.508 52.1447C259.516 51.5847 260.676 51.3047 261.988 51.3047C263.252 51.3047 264.38 51.5767 265.372 52.1207C266.38 52.6647 267.156 53.4407 267.7 54.4487C268.26 55.4407 268.54 56.5847 268.54 57.8807ZM265.06 56.9207C265.044 56.0567 264.732 55.3687 264.124 54.8567C263.516 54.3287 262.772 54.0647 261.892 54.0647C261.06 54.0647 260.356 54.3207 259.78 54.8327C259.22 55.3287 258.876 56.0247 258.748 56.9207H265.06Z" fill="white"/><path opacity="0.3" d="M249.484 51.3286C250.492 51.3286 251.388 51.5526 252.172 52.0006C252.956 52.4326 253.564 53.0806 253.996 53.9446C254.444 54.7926 254.668 55.8166 254.668 57.0166V64.8166H251.308V57.4726C251.308 56.4166 251.044 55.6086 250.516 55.0486C249.988 54.4726 249.268 54.1846 248.356 54.1846C247.428 54.1846 246.692 54.4726 246.148 55.0486C245.62 55.6086 245.356 56.4166 245.356 57.4726V64.8166H241.996V47.0566H245.356V53.1766C245.788 52.6006 246.364 52.1526 247.084 51.8326C247.804 51.4966 248.604 51.3286 249.484 51.3286Z" fill="white"/><path opacity="0.3" d="M238.28 54.2804V60.7124C238.28 61.1604 238.384 61.4884 238.592 61.6964C238.816 61.8884 239.185 61.9844 239.697 61.9844H241.257V64.8164H239.145C236.313 64.8164 234.896 63.4404 234.896 60.6884V54.2804H233.312V51.5204H234.896V48.2324H238.28V51.5204H241.257V54.2804H238.28Z" fill="white"/><path opacity="0.3" d="M220.955 51.3047C221.947 51.3047 222.819 51.5047 223.571 51.9047C224.323 52.2887 224.915 52.7927 225.347 53.4167V51.5207H228.731V64.9127C228.731 66.1447 228.483 67.2407 227.987 68.2007C227.491 69.1767 226.747 69.9447 225.755 70.5047C224.763 71.0807 223.563 71.3687 222.155 71.3687C220.267 71.3687 218.715 70.9287 217.499 70.0487C216.299 69.1687 215.619 67.9687 215.459 66.4487H218.795C218.971 67.0567 219.347 67.5367 219.923 67.8887C220.515 68.2567 221.227 68.4407 222.059 68.4407C223.035 68.4407 223.827 68.1447 224.435 67.5527C225.043 66.9767 225.347 66.0967 225.347 64.9127V62.8487C224.915 63.4727 224.315 63.9927 223.547 64.4087C222.795 64.8247 221.931 65.0327 220.955 65.0327C219.835 65.0327 218.811 64.7447 217.883 64.1687C216.955 63.5927 216.219 62.7847 215.675 61.7447C215.147 60.6887 214.883 59.4807 214.883 58.1207C214.883 56.7767 215.147 55.5847 215.675 54.5447C216.219 53.5047 216.947 52.7047 217.859 52.1447C218.787 51.5847 219.819 51.3047 220.955 51.3047ZM225.347 58.1687C225.347 57.3527 225.187 56.6567 224.867 56.0807C224.547 55.4887 224.115 55.0407 223.571 54.7367C223.027 54.4167 222.443 54.2567 221.819 54.2567C221.195 54.2567 220.619 54.4087 220.091 54.7127C219.563 55.0167 219.131 55.4647 218.795 56.0567C218.475 56.6327 218.315 57.3207 218.315 58.1207C218.315 58.9207 218.475 59.6247 218.795 60.2327C219.131 60.8247 219.563 61.2807 220.091 61.6007C220.635 61.9207 221.211 62.0807 221.819 62.0807C222.443 62.0807 223.027 61.9287 223.571 61.6247C224.115 61.3047 224.547 60.8567 224.867 60.2807C225.187 59.6887 225.347 58.9847 225.347 58.1687Z" fill="white"/><path opacity="0.3" d="M208.927 51.3281C210.511 51.3281 211.791 51.8321 212.767 52.8401C213.743 53.8321 214.231 55.2241 214.231 57.0161V64.8161H210.871V57.4721C210.871 56.4161 210.607 55.6081 210.079 55.0481C209.551 54.4721 208.831 54.1841 207.919 54.1841C206.991 54.1841 206.255 54.4721 205.711 55.0481C205.183 55.6081 204.919 56.4161 204.919 57.4721V64.8161H201.559V51.5201H204.919V53.1761C205.367 52.6001 205.935 52.1521 206.623 51.8321C207.327 51.4961 208.095 51.3281 208.927 51.3281Z" fill="white"/><path opacity="0.3" d="M198.263 49.936C197.671 49.936 197.175 49.752 196.775 49.384C196.391 49 196.199 48.528 196.199 47.968C196.199 47.408 196.391 46.944 196.775 46.576C197.175 46.192 197.671 46 198.263 46C198.855 46 199.343 46.192 199.727 46.576C200.127 46.944 200.327 47.408 200.327 47.968C200.327 48.528 200.127 49 199.727 49.384C199.343 49.752 198.855 49.936 198.263 49.936ZM199.919 51.52V64.816H196.559V51.52H199.919Z" fill="white"/><path opacity="0.3" d="M192.847 54.2804V60.7124C192.847 61.1604 192.951 61.4884 193.159 61.6964C193.383 61.8884 193.751 61.9844 194.263 61.9844H195.823V64.8164H193.711C190.879 64.8164 189.463 63.4404 189.463 60.6884V54.2804H187.879V51.5204H189.463V48.2324H192.847V51.5204H195.823V54.2804H192.847Z" fill="white"/><path opacity="0.3" d="M173.484 58.1207C173.484 56.7767 173.748 55.5847 174.276 54.5447C174.82 53.5047 175.548 52.7047 176.46 52.1447C177.388 51.5847 178.42 51.3047 179.556 51.3047C180.548 51.3047 181.412 51.5047 182.148 51.9047C182.9 52.3047 183.5 52.8087 183.948 53.4167V51.5207H187.332V64.8167H183.948V62.8727C183.516 63.4967 182.916 64.0167 182.148 64.4327C181.396 64.8327 180.524 65.0327 179.532 65.0327C178.412 65.0327 177.388 64.7447 176.46 64.1687C175.548 63.5927 174.82 62.7847 174.276 61.7447C173.748 60.6887 173.484 59.4807 173.484 58.1207ZM183.948 58.1687C183.948 57.3527 183.788 56.6567 183.468 56.0807C183.148 55.4887 182.716 55.0407 182.172 54.7367C181.628 54.4167 181.044 54.2567 180.42 54.2567C179.796 54.2567 179.22 54.4087 178.692 54.7127C178.164 55.0167 177.732 55.4647 177.396 56.0567C177.076 56.6327 176.916 57.3207 176.916 58.1207C176.916 58.9207 177.076 59.6247 177.396 60.2327C177.732 60.8247 178.164 61.2807 178.692 61.6007C179.236 61.9207 179.812 62.0807 180.42 62.0807C181.044 62.0807 181.628 61.9287 182.172 61.6247C182.716 61.3047 183.148 60.8567 183.468 60.2807C183.788 59.6887 183.948 58.9847 183.948 58.1687Z" fill="white"/><path opacity="0.3" d="M173.576 57.8807C173.576 58.3607 173.544 58.7927 173.48 59.1767H163.76C163.84 60.1367 164.176 60.8887 164.768 61.4327C165.36 61.9767 166.088 62.2487 166.952 62.2487C168.2 62.2487 169.088 61.7127 169.616 60.6407H173.24C172.856 61.9207 172.12 62.9767 171.032 63.8087C169.944 64.6247 168.608 65.0327 167.024 65.0327C165.744 65.0327 164.592 64.7527 163.568 64.1927C162.56 63.6167 161.768 62.8087 161.192 61.7687C160.632 60.7287 160.352 59.5287 160.352 58.1687C160.352 56.7927 160.632 55.5847 161.192 54.5447C161.752 53.5047 162.536 52.7047 163.544 52.1447C164.552 51.5847 165.712 51.3047 167.024 51.3047C168.288 51.3047 169.416 51.5767 170.408 52.1207C171.416 52.6647 172.192 53.4407 172.736 54.4487C173.296 55.4407 173.576 56.5847 173.576 57.8807ZM170.096 56.9207C170.08 56.0567 169.768 55.3687 169.16 54.8567C168.552 54.3287 167.808 54.0647 166.928 54.0647C166.096 54.0647 165.392 54.3207 164.816 54.8327C164.256 55.3287 163.912 56.0247 163.784 56.9207H170.096Z" fill="white"/><path opacity="0.3" d="M156.551 53.5841C156.983 52.8801 157.543 52.3281 158.231 51.9281C158.935 51.5281 159.735 51.3281 160.631 51.3281V54.8561H159.743C158.687 54.8561 157.887 55.1041 157.343 55.6001C156.815 56.0961 156.551 56.9601 156.551 58.1921V64.8161H153.191V51.5201H156.551V53.5841Z" fill="white"/><path opacity="0.3" d="M139.57 58.1687C139.57 56.7927 139.85 55.5927 140.41 54.5687C140.97 53.5287 141.746 52.7287 142.738 52.1687C143.73 51.5927 144.866 51.3047 146.146 51.3047C147.794 51.3047 149.154 51.7207 150.226 52.5527C151.314 53.3687 152.042 54.5207 152.41 56.0087H148.786C148.594 55.4327 148.266 54.9847 147.802 54.6647C147.354 54.3287 146.794 54.1607 146.122 54.1607C145.162 54.1607 144.402 54.5127 143.842 55.2167C143.282 55.9047 143.002 56.8887 143.002 58.1687C143.002 59.4327 143.282 60.4167 143.842 61.1207C144.402 61.8087 145.162 62.1527 146.122 62.1527C147.482 62.1527 148.37 61.5447 148.786 60.3287H152.41C152.042 61.7687 151.314 62.9127 150.226 63.7607C149.138 64.6087 147.778 65.0327 146.146 65.0327C144.866 65.0327 143.73 64.7527 142.738 64.1927C141.746 63.6167 140.97 62.8167 140.41 61.7927C139.85 60.7527 139.57 59.5447 139.57 58.1687Z" fill="white"/><path opacity="0.3" d="M339.567 31.832V34.664H329.391V31.832H339.567Z" fill="white"/><path opacity="0.3" d="M321.623 42.0327C320.343 42.0327 319.191 41.7527 318.167 41.1927C317.143 40.6167 316.335 39.8087 315.743 38.7687C315.167 37.7287 314.879 36.5287 314.879 35.1687C314.879 33.8087 315.175 32.6087 315.767 31.5687C316.375 30.5287 317.199 29.7287 318.239 29.1687C319.279 28.5927 320.439 28.3047 321.719 28.3047C322.999 28.3047 324.159 28.5927 325.199 29.1687C326.239 29.7287 327.055 30.5287 327.647 31.5687C328.255 32.6087 328.559 33.8087 328.559 35.1687C328.559 36.5287 328.247 37.7287 327.623 38.7687C327.015 39.8087 326.183 40.6167 325.127 41.1927C324.087 41.7527 322.919 42.0327 321.623 42.0327ZM321.623 39.1047C322.231 39.1047 322.799 38.9607 323.327 38.6727C323.871 38.3687 324.303 37.9207 324.623 37.3287C324.943 36.7367 325.103 36.0167 325.103 35.1687C325.103 33.9047 324.767 32.9367 324.095 32.2647C323.439 31.5767 322.631 31.2327 321.671 31.2327C320.711 31.2327 319.903 31.5767 319.247 32.2647C318.607 32.9367 318.287 33.9047 318.287 35.1687C318.287 36.4327 318.599 37.4087 319.223 38.0967C319.863 38.7687 320.663 39.1047 321.623 39.1047Z" fill="white"/><path opacity="0.3" d="M302.098 35.1687C302.098 33.7927 302.378 32.5927 302.938 31.5687C303.498 30.5287 304.274 29.7287 305.266 29.1687C306.258 28.5927 307.394 28.3047 308.674 28.3047C310.322 28.3047 311.682 28.7207 312.754 29.5527C313.842 30.3687 314.57 31.5207 314.938 33.0087H311.314C311.122 32.4327 310.794 31.9847 310.33 31.6647C309.882 31.3287 309.322 31.1607 308.65 31.1607C307.69 31.1607 306.93 31.5127 306.37 32.2167C305.81 32.9047 305.53 33.8887 305.53 35.1687C305.53 36.4327 305.81 37.4167 306.37 38.1207C306.93 38.8087 307.69 39.1527 308.65 39.1527C310.01 39.1527 310.898 38.5447 311.314 37.3287H314.938C314.57 38.7687 313.842 39.9127 312.754 40.7607C311.666 41.6087 310.306 42.0327 308.674 42.0327C307.394 42.0327 306.258 41.7527 305.266 41.1927C304.274 40.6167 303.498 39.8167 302.938 38.7927C302.378 37.7527 302.098 36.5447 302.098 35.1687Z" fill="white"/><path opacity="0.3" d="M292.102 28.3281C293.686 28.3281 294.966 28.8321 295.942 29.8401C296.918 30.8321 297.406 32.2241 297.406 34.0161V41.8161H294.046V34.4721C294.046 33.4161 293.782 32.6081 293.254 32.0481C292.726 31.4721 292.006 31.1841 291.094 31.1841C290.166 31.1841 289.43 31.4721 288.886 32.0481C288.358 32.6081 288.094 33.4161 288.094 34.4721V41.8161H284.734V28.5201H288.094V30.1761C288.542 29.6001 289.11 29.1521 289.798 28.8321C290.502 28.4961 291.27 28.3281 292.102 28.3281Z" fill="white"/><path opacity="0.3" d="M281.439 26.936C280.847 26.936 280.351 26.752 279.951 26.384C279.567 26 279.375 25.528 279.375 24.968C279.375 24.408 279.567 23.944 279.951 23.576C280.351 23.192 280.847 23 281.439 23C282.031 23 282.519 23.192 282.903 23.576C283.303 23.944 283.503 24.408 283.503 24.968C283.503 25.528 283.303 26 282.903 26.384C282.519 26.752 282.031 26.936 281.439 26.936ZM283.095 28.52V41.816H279.735V28.52H283.095Z" fill="white"/><path opacity="0.3" d="M269.386 42.0327C268.298 42.0327 267.322 41.8407 266.458 41.4567C265.594 41.0567 264.906 40.5207 264.394 39.8487C263.898 39.1767 263.626 38.4327 263.578 37.6167H266.962C267.026 38.1287 267.274 38.5527 267.706 38.8887C268.154 39.2247 268.706 39.3927 269.362 39.3927C270.002 39.3927 270.498 39.2647 270.85 39.0087C271.218 38.7527 271.402 38.4247 271.402 38.0247C271.402 37.5927 271.178 37.2727 270.73 37.0647C270.298 36.8407 269.602 36.6007 268.642 36.3447C267.65 36.1047 266.834 35.8567 266.194 35.6007C265.57 35.3447 265.026 34.9527 264.562 34.4247C264.114 33.8967 263.89 33.1847 263.89 32.2887C263.89 31.5527 264.098 30.8807 264.514 30.2727C264.946 29.6647 265.554 29.1847 266.338 28.8327C267.138 28.4807 268.074 28.3047 269.146 28.3047C270.73 28.3047 271.994 28.7047 272.938 29.5047C273.882 30.2887 274.402 31.3527 274.498 32.6967H271.282C271.234 32.1687 271.01 31.7527 270.61 31.4487C270.226 31.1287 269.706 30.9687 269.05 30.9687C268.442 30.9687 267.97 31.0807 267.634 31.3047C267.314 31.5287 267.154 31.8407 267.154 32.2407C267.154 32.6887 267.378 33.0327 267.826 33.2727C268.274 33.4967 268.97 33.7287 269.914 33.9687C270.874 34.2087 271.666 34.4567 272.29 34.7127C272.914 34.9687 273.45 35.3687 273.898 35.9127C274.362 36.4407 274.602 37.1447 274.618 38.0247C274.618 38.7927 274.402 39.4807 273.97 40.0887C273.554 40.6967 272.946 41.1767 272.146 41.5287C271.362 41.8647 270.442 42.0327 269.386 42.0327Z" fill="white"/><path opacity="0.3" d="M259.637 30.5841C260.069 29.8801 260.629 29.3281 261.317 28.9281C262.021 28.5281 262.821 28.3281 263.717 28.3281V31.8561H262.829C261.773 31.8561 260.973 32.1041 260.429 32.6001C259.901 33.0961 259.637 33.9601 259.637 35.1921V41.8161H256.277V28.5201H259.637V30.5841Z" fill="white"/><path opacity="0.3" d="M255.501 34.8807C255.501 35.3607 255.469 35.7927 255.405 36.1767H245.685C245.765 37.1367 246.101 37.8887 246.693 38.4327C247.285 38.9767 248.013 39.2487 248.877 39.2487C250.125 39.2487 251.013 38.7127 251.541 37.6407H255.165C254.781 38.9207 254.045 39.9767 252.957 40.8087C251.869 41.6247 250.533 42.0327 248.949 42.0327C247.669 42.0327 246.517 41.7527 245.493 41.1927C244.485 40.6167 243.693 39.8087 243.117 38.7687C242.557 37.7287 242.277 36.5287 242.277 35.1687C242.277 33.7927 242.557 32.5847 243.117 31.5447C243.677 30.5047 244.461 29.7047 245.469 29.1447C246.477 28.5847 247.637 28.3047 248.949 28.3047C250.213 28.3047 251.341 28.5767 252.333 29.1207C253.341 29.6647 254.117 30.4407 254.661 31.4487C255.221 32.4407 255.501 33.5847 255.501 34.8807ZM252.021 33.9207C252.005 33.0567 251.693 32.3687 251.085 31.8567C250.477 31.3287 249.733 31.0647 248.853 31.0647C248.021 31.0647 247.317 31.3207 246.741 31.8327C246.181 32.3287 245.837 33.0247 245.709 33.9207H252.021Z" fill="white"/><path opacity="0.3" d="M236.325 28.3281C237.909 28.3281 239.189 28.8321 240.165 29.8401C241.141 30.8321 241.629 32.2241 241.629 34.0161V41.8161H238.269V34.4721C238.269 33.4161 238.005 32.6081 237.477 32.0481C236.949 31.4721 236.229 31.1841 235.317 31.1841C234.389 31.1841 233.653 31.4721 233.109 32.0481C232.581 32.6081 232.317 33.4161 232.317 34.4721V41.8161H228.957V28.5201H232.317V30.1761C232.765 29.6001 233.333 29.1521 234.021 28.8321C234.725 28.4961 235.493 28.3281 236.325 28.3281Z" fill="white"/><path opacity="0.3" d="M225.241 31.2804V37.7124C225.241 38.1604 225.345 38.4884 225.553 38.6964C225.777 38.8884 226.145 38.9844 226.657 38.9844H228.217V41.8164H226.105C223.273 41.8164 221.857 40.4404 221.857 37.6884V31.2804H220.273V28.5204H221.857V25.2324H225.241V28.5204H228.217V31.2804H225.241Z" fill="white"/><path opacity="0.3" d="M216.669 30.5841C217.101 29.8801 217.661 29.3281 218.349 28.9281C219.053 28.5281 219.853 28.3281 220.749 28.3281V31.8561H219.861C218.805 31.8561 218.005 32.1041 217.461 32.6001C216.933 33.0961 216.669 33.9601 216.669 35.1921V41.8161H213.309V28.5201H216.669V30.5841Z" fill="white"/><path opacity="0.3" d="M197.859 35.1207C197.859 33.7767 198.123 32.5847 198.651 31.5447C199.195 30.5047 199.923 29.7047 200.835 29.1447C201.763 28.5847 202.795 28.3047 203.931 28.3047C204.923 28.3047 205.787 28.5047 206.523 28.9047C207.275 29.3047 207.875 29.8087 208.323 30.4167V28.5207H211.707V41.8167H208.323V39.8727C207.891 40.4967 207.291 41.0167 206.523 41.4327C205.771 41.8327 204.899 42.0327 203.907 42.0327C202.787 42.0327 201.763 41.7447 200.835 41.1687C199.923 40.5927 199.195 39.7847 198.651 38.7447C198.123 37.6887 197.859 36.4807 197.859 35.1207ZM208.323 35.1687C208.323 34.3527 208.163 33.6567 207.843 33.0807C207.523 32.4887 207.091 32.0407 206.547 31.7367C206.003 31.4167 205.419 31.2567 204.795 31.2567C204.171 31.2567 203.595 31.4087 203.067 31.7127C202.539 32.0167 202.107 32.4647 201.771 33.0567C201.451 33.6327 201.291 34.3207 201.291 35.1207C201.291 35.9207 201.451 36.6247 201.771 37.2327C202.107 37.8247 202.539 38.2807 203.067 38.6007C203.611 38.9207 204.187 39.0807 204.795 39.0807C205.419 39.0807 206.003 38.9287 206.547 38.6247C207.091 38.3047 207.523 37.8567 207.843 37.2807C208.163 36.6887 208.323 35.9847 208.323 35.1687Z" fill="white"/><path opacity="0.3" d="M187.497 30.4407C187.929 29.8327 188.521 29.3287 189.273 28.9287C190.041 28.5127 190.913 28.3047 191.889 28.3047C193.025 28.3047 194.049 28.5847 194.961 29.1447C195.889 29.7047 196.617 30.5047 197.145 31.5447C197.689 32.5687 197.961 33.7607 197.961 35.1207C197.961 36.4807 197.689 37.6887 197.145 38.7447C196.617 39.7847 195.889 40.5927 194.961 41.1687C194.049 41.7447 193.025 42.0327 191.889 42.0327C190.913 42.0327 190.049 41.8327 189.297 41.4327C188.561 41.0327 187.961 40.5287 187.497 39.9207V48.1527H184.137V28.5207H187.497V30.4407ZM194.529 35.1207C194.529 34.3207 194.361 33.6327 194.025 33.0567C193.705 32.4647 193.273 32.0167 192.729 31.7127C192.201 31.4087 191.625 31.2567 191.001 31.2567C190.393 31.2567 189.817 31.4167 189.273 31.7367C188.745 32.0407 188.313 32.4887 187.977 33.0807C187.657 33.6727 187.497 34.3687 187.497 35.1687C187.497 35.9687 187.657 36.6647 187.977 37.2567C188.313 37.8487 188.745 38.3047 189.273 38.6247C189.817 38.9287 190.393 39.0807 191.001 39.0807C191.625 39.0807 192.201 38.9207 192.729 38.6007C193.273 38.2807 193.705 37.8247 194.025 37.2327C194.361 36.6407 194.529 35.9367 194.529 35.1207Z" fill="white"/><path opacity="0.3" d="M170.72 28.3047C171.712 28.3047 172.584 28.5047 173.336 28.9047C174.088 29.2887 174.68 29.7927 175.112 30.4167V28.5207H178.496V41.9127C178.496 43.1447 178.248 44.2407 177.752 45.2007C177.256 46.1767 176.512 46.9447 175.52 47.5047C174.528 48.0807 173.328 48.3687 171.92 48.3687C170.032 48.3687 168.48 47.9287 167.264 47.0487C166.064 46.1687 165.384 44.9687 165.224 43.4487H168.56C168.736 44.0567 169.112 44.5367 169.688 44.8887C170.28 45.2567 170.992 45.4407 171.824 45.4407C172.8 45.4407 173.592 45.1447 174.2 44.5527C174.808 43.9767 175.112 43.0967 175.112 41.9127V39.8487C174.68 40.4727 174.08 40.9927 173.312 41.4087C172.56 41.8247 171.696 42.0327 170.72 42.0327C169.6 42.0327 168.576 41.7447 167.648 41.1687C166.72 40.5927 165.984 39.7847 165.44 38.7447C164.912 37.6887 164.648 36.4807 164.648 35.1207C164.648 33.7767 164.912 32.5847 165.44 31.5447C165.984 30.5047 166.712 29.7047 167.624 29.1447C168.552 28.5847 169.584 28.3047 170.72 28.3047ZM175.112 35.1687C175.112 34.3527 174.952 33.6567 174.632 33.0807C174.312 32.4887 173.88 32.0407 173.336 31.7367C172.792 31.4167 172.208 31.2567 171.584 31.2567C170.96 31.2567 170.384 31.4087 169.856 31.7127C169.328 32.0167 168.896 32.4647 168.56 33.0567C168.24 33.6327 168.08 34.3207 168.08 35.1207C168.08 35.9207 168.24 36.6247 168.56 37.2327C168.896 37.8247 169.328 38.2807 169.856 38.6007C170.4 38.9207 170.976 39.0807 171.584 39.0807C172.208 39.0807 172.792 38.9287 173.336 38.6247C173.88 38.3047 174.312 37.8567 174.632 37.2807C174.952 36.6887 175.112 35.9847 175.112 35.1687Z" fill="white"/><path opacity="0.3" d="M158.692 28.3281C160.276 28.3281 161.556 28.8321 162.532 29.8401C163.508 30.8321 163.996 32.2241 163.996 34.0161V41.8161H160.636V34.4721C160.636 33.4161 160.372 32.6081 159.844 32.0481C159.316 31.4721 158.596 31.1841 157.684 31.1841C156.756 31.1841 156.02 31.4721 155.476 32.0481C154.948 32.6081 154.684 33.4161 154.684 34.4721V41.8161H151.324V28.5201H154.684V30.1761C155.132 29.6001 155.7 29.1521 156.388 28.8321C157.092 28.4961 157.86 28.3281 158.692 28.3281Z" fill="white"/><path opacity="0.3" d="M148.029 26.936C147.437 26.936 146.941 26.752 146.541 26.384C146.157 26 145.965 25.528 145.965 24.968C145.965 24.408 146.157 23.944 146.541 23.576C146.941 23.192 147.437 23 148.029 23C148.621 23 149.109 23.192 149.493 23.576C149.893 23.944 150.093 24.408 150.093 24.968C150.093 25.528 149.893 26 149.493 26.384C149.109 26.752 148.621 26.936 148.029 26.936ZM149.685 28.52V41.816H146.325V28.52H149.685Z" fill="white"/><path opacity="0.3" d="M139.367 28.3281C140.999 28.3281 142.311 28.8321 143.303 29.8401C144.311 30.8321 144.815 32.2241 144.815 34.0161V41.8161H141.455V34.4721C141.455 33.4321 141.191 32.6401 140.663 32.0961C140.135 31.5361 139.415 31.2561 138.503 31.2561C137.591 31.2561 136.863 31.5361 136.319 32.0961C135.791 32.6401 135.527 33.4321 135.527 34.4721V41.8161H132.167V34.4721C132.167 33.4321 131.903 32.6401 131.375 32.0961C130.847 31.5361 130.127 31.2561 129.215 31.2561C128.287 31.2561 127.551 31.5361 127.007 32.0961C126.479 32.6401 126.215 33.4321 126.215 34.4721V41.8161H122.855V28.5201H126.215V30.1281C126.647 29.5681 127.199 29.1281 127.871 28.8081C128.559 28.4881 129.311 28.3281 130.127 28.3281C131.167 28.3281 132.095 28.5521 132.911 29.0001C133.727 29.4321 134.359 30.0561 134.807 30.8721C135.239 30.1041 135.863 29.4881 136.679 29.0241C137.511 28.5601 138.407 28.3281 139.367 28.3281Z" fill="white"/><path opacity="0.3" d="M115.135 42.0327C113.855 42.0327 112.703 41.7527 111.679 41.1927C110.655 40.6167 109.847 39.8087 109.255 38.7687C108.679 37.7287 108.391 36.5287 108.391 35.1687C108.391 33.8087 108.687 32.6087 109.279 31.5687C109.887 30.5287 110.711 29.7287 111.751 29.1687C112.791 28.5927 113.951 28.3047 115.231 28.3047C116.511 28.3047 117.671 28.5927 118.711 29.1687C119.751 29.7287 120.567 30.5287 121.159 31.5687C121.767 32.6087 122.071 33.8087 122.071 35.1687C122.071 36.5287 121.759 37.7287 121.135 38.7687C120.527 39.8087 119.695 40.6167 118.639 41.1927C117.599 41.7527 116.431 42.0327 115.135 42.0327ZM115.135 39.1047C115.743 39.1047 116.311 38.9607 116.839 38.6727C117.383 38.3687 117.815 37.9207 118.135 37.3287C118.455 36.7367 118.615 36.0167 118.615 35.1687C118.615 33.9047 118.279 32.9367 117.607 32.2647C116.951 31.5767 116.143 31.2327 115.183 31.2327C114.223 31.2327 113.415 31.5767 112.759 32.2647C112.119 32.9367 111.799 33.9047 111.799 35.1687C111.799 36.4327 112.111 37.4087 112.735 38.0967C113.375 38.7687 114.175 39.1047 115.135 39.1047Z" fill="white"/><path opacity="0.3" d="M95.6094 35.1687C95.6094 33.7927 95.8894 32.5927 96.4494 31.5687C97.0094 30.5287 97.7854 29.7287 98.7774 29.1687C99.7694 28.5927 100.905 28.3047 102.185 28.3047C103.833 28.3047 105.193 28.7207 106.265 29.5527C107.353 30.3687 108.081 31.5207 108.449 33.0087H104.825C104.633 32.4327 104.305 31.9847 103.841 31.6647C103.393 31.3287 102.833 31.1607 102.161 31.1607C101.201 31.1607 100.441 31.5127 99.8814 32.2167C99.3214 32.9047 99.0414 33.8887 99.0414 35.1687C99.0414 36.4327 99.3214 37.4167 99.8814 38.1207C100.441 38.8087 101.201 39.1527 102.161 39.1527C103.521 39.1527 104.409 38.5447 104.825 37.3287H108.449C108.081 38.7687 107.353 39.9127 106.265 40.7607C105.177 41.6087 103.817 42.0327 102.185 42.0327C100.905 42.0327 99.7694 41.7527 98.7774 41.1927C97.7854 40.6167 97.0094 39.8167 96.4494 38.7927C95.8894 37.7527 95.6094 36.5447 95.6094 35.1687Z" fill="white"/><path opacity="0.3" d="M95.7045 34.8807C95.7045 35.3607 95.6725 35.7927 95.6085 36.1767H85.8885C85.9685 37.1367 86.3045 37.8887 86.8965 38.4327C87.4885 38.9767 88.2165 39.2487 89.0805 39.2487C90.3285 39.2487 91.2165 38.7127 91.7445 37.6407H95.3685C94.9845 38.9207 94.2485 39.9767 93.1605 40.8087C92.0725 41.6247 90.7365 42.0327 89.1525 42.0327C87.8725 42.0327 86.7205 41.7527 85.6965 41.1927C84.6885 40.6167 83.8965 39.8087 83.3205 38.7687C82.7605 37.7287 82.4805 36.5287 82.4805 35.1687C82.4805 33.7927 82.7605 32.5847 83.3205 31.5447C83.8805 30.5047 84.6645 29.7047 85.6725 29.1447C86.6805 28.5847 87.8405 28.3047 89.1525 28.3047C90.4165 28.3047 91.5445 28.5767 92.5365 29.1207C93.5445 29.6647 94.3205 30.4407 94.8645 31.4487C95.4245 32.4407 95.7045 33.5847 95.7045 34.8807ZM92.2245 33.9207C92.2085 33.0567 91.8965 32.3687 91.2885 31.8567C90.6805 31.3287 89.9365 31.0647 89.0565 31.0647C88.2245 31.0647 87.5205 31.3207 86.9445 31.8327C86.3845 32.3287 86.0405 33.0247 85.9125 33.9207H92.2245Z" fill="white"/><path opacity="0.3" d="M79.1056 33.2245C80.0496 33.4005 80.8256 33.8725 81.4336 34.6405C82.0416 35.4085 82.3456 36.2885 82.3456 37.2805C82.3456 38.1765 82.1216 38.9685 81.6736 39.6565C81.2416 40.3285 80.6096 40.8565 79.7776 41.2405C78.9456 41.6245 77.9616 41.8165 76.8256 41.8165H69.6016V25.0645H76.5136C77.6496 25.0645 78.6256 25.2485 79.4416 25.6165C80.2736 25.9845 80.8976 26.4965 81.3136 27.1525C81.7456 27.8085 81.9616 28.5525 81.9616 29.3845C81.9616 30.3605 81.6976 31.1765 81.1696 31.8325C80.6576 32.4885 79.9696 32.9525 79.1056 33.2245ZM72.9616 31.9765H76.0336C76.8336 31.9765 77.4496 31.8005 77.8816 31.4485C78.3136 31.0805 78.5296 30.5605 78.5296 29.8885C78.5296 29.2165 78.3136 28.6965 77.8816 28.3285C77.4496 27.9605 76.8336 27.7765 76.0336 27.7765H72.9616V31.9765ZM76.3456 39.0805C77.1616 39.0805 77.7936 38.8885 78.2416 38.5045C78.7056 38.1205 78.9376 37.5765 78.9376 36.8725C78.9376 36.1525 78.6976 35.5925 78.2176 35.1925C77.7376 34.7765 77.0896 34.5685 76.2736 34.5685H72.9616V39.0805H76.3456Z" fill="white"/><path opacity="0.3" d="M62.4942 41.9848C61.8862 41.9848 61.3823 41.8008 60.9823 41.4328C60.5983 41.0488 60.4062 40.5768 60.4062 40.0168C60.4062 39.4568 60.5983 38.9928 60.9823 38.6248C61.3823 38.2408 61.8862 38.0488 62.4942 38.0488C63.0862 38.0488 63.5743 38.2408 63.9583 38.6248C64.3423 38.9928 64.5342 39.4568 64.5342 40.0168C64.5342 40.5768 64.3423 41.0488 63.9583 41.4328C63.5743 41.8008 63.0862 41.9848 62.4942 41.9848Z" fill="white"/><path opacity="0.3" d="M60.2357 34.8807C60.2357 35.3607 60.2037 35.7927 60.1397 36.1767H50.4197C50.4997 37.1367 50.8357 37.8887 51.4277 38.4327C52.0197 38.9767 52.7477 39.2487 53.6117 39.2487C54.8597 39.2487 55.7477 38.7127 56.2757 37.6407H59.8997C59.5157 38.9207 58.7797 39.9767 57.6917 40.8087C56.6037 41.6247 55.2677 42.0327 53.6837 42.0327C52.4037 42.0327 51.2517 41.7527 50.2277 41.1927C49.2197 40.6167 48.4277 39.8087 47.8517 38.7687C47.2917 37.7287 47.0117 36.5287 47.0117 35.1687C47.0117 33.7927 47.2917 32.5847 47.8517 31.5447C48.4117 30.5047 49.1957 29.7047 50.2037 29.1447C51.2117 28.5847 52.3717 28.3047 53.6837 28.3047C54.9477 28.3047 56.0757 28.5767 57.0677 29.1207C58.0757 29.6647 58.8517 30.4407 59.3957 31.4487C59.9557 32.4407 60.2357 33.5847 60.2357 34.8807ZM56.7557 33.9207C56.7397 33.0567 56.4277 32.3687 55.8197 31.8567C55.2117 31.3287 54.4677 31.0647 53.5877 31.0647C52.7557 31.0647 52.0517 31.3207 51.4757 31.8327C50.9157 32.3287 50.5717 33.0247 50.4437 33.9207H56.7557Z" fill="white"/><path opacity="0.3" d="M46.2384 28.5195V41.8155H42.8544V40.1355C42.4224 40.7115 41.8544 41.1675 41.1504 41.5035C40.4624 41.8235 39.7104 41.9835 38.8944 41.9835C37.8544 41.9835 36.9344 41.7675 36.1344 41.3355C35.3344 40.8875 34.7024 40.2395 34.2384 39.3915C33.7904 38.5275 33.5664 37.5035 33.5664 36.3195V28.5195H36.9264V35.8395C36.9264 36.8955 37.1904 37.7115 37.7184 38.2875C38.2464 38.8475 38.9664 39.1275 39.8784 39.1275C40.8064 39.1275 41.5344 38.8475 42.0624 38.2875C42.5904 37.7115 42.8544 36.8955 42.8544 35.8395V28.5195H46.2384Z" fill="white"/><path opacity="0.3" d="M32.0475 24.0566V41.8166H28.6875V24.0566H32.0475Z" fill="white"/><path opacity="0.3" d="M13.2383 35.1207C13.2383 33.7767 13.5023 32.5847 14.0303 31.5447C14.5743 30.5047 15.3023 29.7047 16.2143 29.1447C17.1423 28.5847 18.1743 28.3047 19.3103 28.3047C20.3023 28.3047 21.1663 28.5047 21.9023 28.9047C22.6543 29.3047 23.2543 29.8087 23.7023 30.4167V28.5207H27.0863V41.8167H23.7023V39.8727C23.2703 40.4967 22.6703 41.0167 21.9023 41.4327C21.1503 41.8327 20.2783 42.0327 19.2863 42.0327C18.1663 42.0327 17.1423 41.7447 16.2143 41.1687C15.3023 40.5927 14.5743 39.7847 14.0303 38.7447C13.5023 37.6887 13.2383 36.4807 13.2383 35.1207ZM23.7023 35.1687C23.7023 34.3527 23.5423 33.6567 23.2223 33.0807C22.9023 32.4887 22.4703 32.0407 21.9263 31.7367C21.3823 31.4167 20.7983 31.2567 20.1743 31.2567C19.5503 31.2567 18.9743 31.4087 18.4463 31.7127C17.9183 32.0167 17.4863 32.4647 17.1503 33.0567C16.8303 33.6327 16.6703 34.3207 16.6703 35.1207C16.6703 35.9207 16.8303 36.6247 17.1503 37.2327C17.4863 37.8247 17.9183 38.2807 18.4463 38.6007C18.9903 38.9207 19.5663 39.0807 20.1743 39.0807C20.7983 39.0807 21.3823 38.9287 21.9263 38.6247C22.4703 38.3047 22.9023 37.8567 23.2223 37.2807C23.5423 36.6887 23.7023 35.9847 23.7023 35.1687Z" fill="white"/><path opacity="0.3" d="M6.96 38.7195L10.32 28.5195H13.896L8.976 41.8155H4.896L0 28.5195H3.6L6.96 38.7195Z" fill="white"/><path opacity="0.3" d="M333.959 5.30469C334.951 5.30469 335.823 5.50469 336.575 5.90469C337.327 6.28869 337.919 6.79269 338.351 7.41669V5.52069H341.735V18.9127C341.735 20.1447 341.487 21.2407 340.991 22.2007C340.495 23.1767 339.751 23.9447 338.759 24.5047C337.767 25.0807 336.567 25.3687 335.159 25.3687C333.271 25.3687 331.719 24.9287 330.503 24.0487C329.303 23.1687 328.623 21.9687 328.463 20.4487H331.799C331.975 21.0567 332.351 21.5367 332.927 21.8887C333.519 22.2567 334.231 22.4407 335.063 22.4407C336.039 22.4407 336.831 22.1447 337.439 21.5527C338.047 20.9767 338.351 20.0967 338.351 18.9127V16.8487C337.919 17.4727 337.319 17.9927 336.551 18.4087C335.799 18.8247 334.935 19.0327 333.959 19.0327C332.839 19.0327 331.815 18.7447 330.887 18.1687C329.959 17.5927 329.223 16.7847 328.679 15.7447C328.151 14.6887 327.887 13.4807 327.887 12.1207C327.887 10.7767 328.151 9.58469 328.679 8.54469C329.223 7.50469 329.951 6.70469 330.863 6.14469C331.791 5.58469 332.823 5.30469 333.959 5.30469ZM338.351 12.1687C338.351 11.3527 338.191 10.6567 337.871 10.0807C337.551 9.48869 337.119 9.04069 336.575 8.73669C336.031 8.41669 335.447 8.25669 334.823 8.25669C334.199 8.25669 333.623 8.40869 333.095 8.71269C332.567 9.01669 332.135 9.46469 331.799 10.0567C331.479 10.6327 331.319 11.3207 331.319 12.1207C331.319 12.9207 331.479 13.6247 331.799 14.2327C332.135 14.8247 332.567 15.2807 333.095 15.6007C333.639 15.9207 334.215 16.0807 334.823 16.0807C335.447 16.0807 336.031 15.9287 336.575 15.6247C337.119 15.3047 337.551 14.8567 337.871 14.2807C338.191 13.6887 338.351 12.9847 338.351 12.1687Z" fill="white"/><path opacity="0.3" d="M321.93 5.32812C323.514 5.32812 324.795 5.83213 325.771 6.84013C326.747 7.83213 327.234 9.22413 327.234 11.0161V18.8161H323.874V11.4721C323.874 10.4161 323.61 9.60813 323.082 9.04813C322.554 8.47213 321.834 8.18413 320.922 8.18413C319.994 8.18413 319.259 8.47213 318.715 9.04813C318.187 9.60813 317.922 10.4161 317.922 11.4721V18.8161H314.562V5.52013H317.922V7.17613C318.37 6.60013 318.938 6.15213 319.626 5.83213C320.33 5.49613 321.098 5.32812 321.93 5.32812Z" fill="white"/><path opacity="0.3" d="M311.267 3.936C310.675 3.936 310.179 3.752 309.779 3.384C309.395 3 309.203 2.528 309.203 1.968C309.203 1.408 309.395 0.944 309.779 0.576C310.179 0.192 310.675 0 311.267 0C311.859 0 312.347 0.192 312.731 0.576C313.131 0.944 313.331 1.408 313.331 1.968C313.331 2.528 313.131 3 312.731 3.384C312.347 3.752 311.859 3.936 311.267 3.936ZM312.923 5.52V18.816H309.563V5.52H312.923Z" fill="white"/><path opacity="0.3" d="M305.851 8.28042V14.7124C305.851 15.1604 305.955 15.4884 306.163 15.6964C306.387 15.8884 306.755 15.9844 307.267 15.9844H308.827V18.8164H306.715C303.883 18.8164 302.467 17.4404 302.467 14.6884V8.28042H300.883V5.52042H302.467V2.23242H305.851V5.52042H308.827V8.28042H305.851Z" fill="white"/><path opacity="0.3" d="M288.316 12.1687C288.316 10.7927 288.596 9.59269 289.156 8.56869C289.716 7.52869 290.492 6.72869 291.484 6.16869C292.476 5.59269 293.612 5.30469 294.892 5.30469C296.54 5.30469 297.9 5.72069 298.972 6.55269C300.06 7.36869 300.788 8.52069 301.156 10.0087H297.532C297.34 9.43269 297.012 8.98469 296.548 8.66469C296.1 8.32869 295.54 8.16069 294.868 8.16069C293.908 8.16069 293.148 8.51269 292.588 9.21669C292.028 9.90469 291.748 10.8887 291.748 12.1687C291.748 13.4327 292.028 14.4167 292.588 15.1207C293.148 15.8087 293.908 16.1527 294.868 16.1527C296.228 16.1527 297.116 15.5447 297.532 14.3287H301.156C300.788 15.7687 300.06 16.9127 298.972 17.7607C297.884 18.6087 296.524 19.0327 294.892 19.0327C293.612 19.0327 292.476 18.7527 291.484 18.1927C290.492 17.6167 289.716 16.8167 289.156 15.7927C288.596 14.7527 288.316 13.5447 288.316 12.1687Z" fill="white"/><path opacity="0.3" d="M288.408 11.8807C288.408 12.3607 288.376 12.7927 288.312 13.1767H278.592C278.672 14.1367 279.008 14.8887 279.6 15.4327C280.192 15.9767 280.92 16.2487 281.784 16.2487C283.032 16.2487 283.92 15.7127 284.448 14.6407H288.072C287.688 15.9207 286.952 16.9767 285.864 17.8087C284.776 18.6247 283.44 19.0327 281.856 19.0327C280.576 19.0327 279.424 18.7527 278.4 18.1927C277.392 17.6167 276.6 16.8087 276.024 15.7687C275.464 14.7287 275.184 13.5287 275.184 12.1687C275.184 10.7927 275.464 9.58469 276.024 8.54469C276.584 7.50469 277.368 6.70469 278.376 6.14469C279.384 5.58469 280.544 5.30469 281.856 5.30469C283.12 5.30469 284.248 5.57669 285.24 6.12069C286.248 6.66469 287.024 7.44069 287.568 8.44869C288.128 9.44069 288.408 10.5847 288.408 11.8807ZM284.928 10.9207C284.912 10.0567 284.6 9.36869 283.992 8.85669C283.384 8.32869 282.64 8.06469 281.76 8.06469C280.928 8.06469 280.224 8.32069 279.648 8.83269C279.088 9.32869 278.744 10.0247 278.616 10.9207H284.928Z" fill="white"/><path opacity="0.3" d="M269.227 5.32812C270.811 5.32812 272.091 5.83213 273.067 6.84013C274.043 7.83213 274.531 9.22413 274.531 11.0161V18.8161H271.171V11.4721C271.171 10.4161 270.907 9.60813 270.379 9.04813C269.851 8.47213 269.131 8.18413 268.219 8.18413C267.291 8.18413 266.555 8.47213 266.011 9.04813C265.483 9.60813 265.219 10.4161 265.219 11.4721V18.8161H261.859V5.52013H265.219V7.17613C265.667 6.60013 266.235 6.15213 266.923 5.83213C267.627 5.49613 268.395 5.32812 269.227 5.32812Z" fill="white"/><path opacity="0.3" d="M255.044 5.32812C256.628 5.32812 257.908 5.83213 258.884 6.84013C259.86 7.83213 260.348 9.22413 260.348 11.0161V18.8161H256.988V11.4721C256.988 10.4161 256.724 9.60813 256.196 9.04813C255.668 8.47213 254.948 8.18413 254.036 8.18413C253.108 8.18413 252.372 8.47213 251.828 9.04813C251.3 9.60813 251.036 10.4161 251.036 11.4721V18.8161H247.676V5.52013H251.036V7.17613C251.484 6.60013 252.052 6.15213 252.74 5.83213C253.444 5.49613 254.212 5.32812 255.044 5.32812Z" fill="white"/><path opacity="0.3" d="M239.955 19.0327C238.675 19.0327 237.523 18.7527 236.499 18.1927C235.475 17.6167 234.667 16.8087 234.075 15.7687C233.499 14.7287 233.211 13.5287 233.211 12.1687C233.211 10.8087 233.507 9.60869 234.099 8.56869C234.707 7.52869 235.531 6.72869 236.571 6.16869C237.611 5.59269 238.771 5.30469 240.051 5.30469C241.331 5.30469 242.491 5.59269 243.531 6.16869C244.571 6.72869 245.387 7.52869 245.979 8.56869C246.587 9.60869 246.891 10.8087 246.891 12.1687C246.891 13.5287 246.579 14.7287 245.955 15.7687C245.347 16.8087 244.515 17.6167 243.459 18.1927C242.419 18.7527 241.251 19.0327 239.955 19.0327ZM239.955 16.1047C240.563 16.1047 241.131 15.9607 241.659 15.6727C242.203 15.3687 242.635 14.9207 242.955 14.3287C243.275 13.7367 243.435 13.0167 243.435 12.1687C243.435 10.9047 243.099 9.93669 242.427 9.26469C241.771 8.57669 240.963 8.23269 240.003 8.23269C239.043 8.23269 238.235 8.57669 237.579 9.26469C236.939 9.93669 236.619 10.9047 236.619 12.1687C236.619 13.4327 236.931 14.4087 237.555 15.0967C238.195 15.7687 238.995 16.1047 239.955 16.1047Z" fill="white"/><path opacity="0.3" d="M220.43 12.1687C220.43 10.7927 220.71 9.59269 221.27 8.56869C221.83 7.52869 222.606 6.72869 223.598 6.16869C224.59 5.59269 225.726 5.30469 227.006 5.30469C228.654 5.30469 230.014 5.72069 231.086 6.55269C232.174 7.36869 232.902 8.52069 233.27 10.0087H229.646C229.454 9.43269 229.126 8.98469 228.662 8.66469C228.214 8.32869 227.654 8.16069 226.982 8.16069C226.022 8.16069 225.262 8.51269 224.702 9.21669C224.142 9.90469 223.862 10.8887 223.862 12.1687C223.862 13.4327 224.142 14.4167 224.702 15.1207C225.262 15.8087 226.022 16.1527 226.982 16.1527C228.342 16.1527 229.23 15.5447 229.646 14.3287H233.27C232.902 15.7687 232.174 16.9127 231.086 17.7607C229.998 18.6087 228.638 19.0327 227.006 19.0327C225.726 19.0327 224.59 18.7527 223.598 18.1927C222.606 17.6167 221.83 16.8167 221.27 15.7927C220.71 14.7527 220.43 13.5447 220.43 12.1687Z" fill="white"/><path opacity="0.3" d="M201.805 12.1206C201.805 10.7766 202.069 9.58464 202.597 8.54464C203.141 7.50464 203.877 6.70464 204.805 6.14464C205.733 5.58464 206.765 5.30464 207.901 5.30464C208.765 5.30464 209.589 5.49664 210.373 5.88064C211.157 6.24864 211.781 6.74464 212.245 7.36864V1.05664H215.653V18.8166H212.245V16.8486C211.829 17.5046 211.245 18.0326 210.493 18.4326C209.741 18.8326 208.869 19.0326 207.877 19.0326C206.757 19.0326 205.733 18.7446 204.805 18.1686C203.877 17.5926 203.141 16.7846 202.597 15.7446C202.069 14.6886 201.805 13.4806 201.805 12.1206ZM212.269 12.1686C212.269 11.3526 212.109 10.6566 211.789 10.0806C211.469 9.48864 211.037 9.04064 210.493 8.73664C209.949 8.41664 209.365 8.25664 208.741 8.25664C208.117 8.25664 207.541 8.40864 207.013 8.71264C206.485 9.01664 206.053 9.46464 205.717 10.0566C205.397 10.6326 205.237 11.3206 205.237 12.1206C205.237 12.9206 205.397 13.6246 205.717 14.2326C206.053 14.8246 206.485 15.2806 207.013 15.6006C207.557 15.9206 208.133 16.0806 208.741 16.0806C209.365 16.0806 209.949 15.9286 210.493 15.6246C211.037 15.3046 211.469 14.8566 211.789 14.2806C212.109 13.6886 212.269 12.9846 212.269 12.1686Z" fill="white"/><path opacity="0.3" d="M195.848 5.32812C197.432 5.32812 198.712 5.83213 199.688 6.84013C200.664 7.83213 201.152 9.22413 201.152 11.0161V18.8161H197.792V11.4721C197.792 10.4161 197.528 9.60813 197 9.04813C196.472 8.47213 195.752 8.18413 194.84 8.18413C193.912 8.18413 193.176 8.47213 192.632 9.04813C192.104 9.60813 191.84 10.4161 191.84 11.4721V18.8161H188.48V5.52013H191.84V7.17613C192.288 6.60013 192.856 6.15213 193.544 5.83213C194.248 5.49613 195.016 5.32812 195.848 5.32812Z" fill="white"/><path opacity="0.3" d="M173.031 12.1207C173.031 10.7767 173.295 9.58469 173.823 8.54469C174.367 7.50469 175.095 6.70469 176.007 6.14469C176.935 5.58469 177.967 5.30469 179.103 5.30469C180.095 5.30469 180.959 5.50469 181.695 5.90469C182.447 6.30469 183.047 6.80869 183.495 7.41669V5.52069H186.879V18.8167H183.495V16.8727C183.063 17.4967 182.463 18.0167 181.695 18.4327C180.943 18.8327 180.071 19.0327 179.079 19.0327C177.959 19.0327 176.935 18.7447 176.007 18.1687C175.095 17.5927 174.367 16.7847 173.823 15.7447C173.295 14.6887 173.031 13.4807 173.031 12.1207ZM183.495 12.1687C183.495 11.3527 183.335 10.6567 183.015 10.0807C182.695 9.48869 182.263 9.04069 181.719 8.73669C181.175 8.41669 180.591 8.25669 179.967 8.25669C179.343 8.25669 178.767 8.40869 178.239 8.71269C177.711 9.01669 177.279 9.46469 176.943 10.0567C176.623 10.6327 176.463 11.3207 176.463 12.1207C176.463 12.9207 176.623 13.6247 176.943 14.2327C177.279 14.8247 177.711 15.2807 178.239 15.6007C178.783 15.9207 179.359 16.0807 179.967 16.0807C180.591 16.0807 181.175 15.9287 181.719 15.6247C182.263 15.3047 182.695 14.8567 183.015 14.2807C183.335 13.6887 183.495 12.9847 183.495 12.1687Z" fill="white"/><path opacity="0.3" d="M163.546 19.0327C162.458 19.0327 161.482 18.8407 160.618 18.4567C159.754 18.0567 159.066 17.5207 158.554 16.8487C158.058 16.1767 157.786 15.4327 157.738 14.6167H161.122C161.186 15.1287 161.434 15.5527 161.866 15.8887C162.314 16.2247 162.866 16.3927 163.522 16.3927C164.162 16.3927 164.658 16.2647 165.01 16.0087C165.378 15.7527 165.562 15.4247 165.562 15.0247C165.562 14.5927 165.338 14.2727 164.89 14.0647C164.458 13.8407 163.762 13.6007 162.802 13.3447C161.81 13.1047 160.994 12.8567 160.354 12.6007C159.73 12.3447 159.186 11.9527 158.722 11.4247C158.274 10.8967 158.05 10.1847 158.05 9.28869C158.05 8.55269 158.258 7.88069 158.674 7.27269C159.106 6.66469 159.714 6.18469 160.498 5.83269C161.298 5.48069 162.234 5.30469 163.306 5.30469C164.89 5.30469 166.154 5.70469 167.098 6.50469C168.042 7.28869 168.562 8.35269 168.658 9.69669H165.442C165.394 9.16869 165.17 8.75269 164.77 8.44869C164.386 8.12869 163.866 7.96869 163.21 7.96869C162.602 7.96869 162.13 8.08069 161.794 8.30469C161.474 8.52869 161.314 8.84069 161.314 9.24069C161.314 9.68869 161.538 10.0327 161.986 10.2727C162.434 10.4967 163.13 10.7287 164.074 10.9687C165.034 11.2087 165.826 11.4567 166.45 11.7127C167.074 11.9687 167.61 12.3687 168.058 12.9127C168.522 13.4407 168.762 14.1447 168.778 15.0247C168.778 15.7927 168.562 16.4807 168.13 17.0887C167.714 17.6967 167.106 18.1767 166.306 18.5287C165.522 18.8647 164.602 19.0327 163.546 19.0327Z" fill="white"/><path opacity="0.3" d="M143.008 12.1207C143.008 10.7767 143.272 9.58469 143.8 8.54469C144.344 7.50469 145.072 6.70469 145.984 6.14469C146.912 5.58469 147.944 5.30469 149.08 5.30469C150.072 5.30469 150.936 5.50469 151.672 5.90469C152.424 6.30469 153.024 6.80869 153.472 7.41669V5.52069H156.856V18.8167H153.472V16.8727C153.04 17.4967 152.44 18.0167 151.672 18.4327C150.92 18.8327 150.048 19.0327 149.056 19.0327C147.936 19.0327 146.912 18.7447 145.984 18.1687C145.072 17.5927 144.344 16.7847 143.8 15.7447C143.272 14.6887 143.008 13.4807 143.008 12.1207ZM153.472 12.1687C153.472 11.3527 153.312 10.6567 152.992 10.0807C152.672 9.48869 152.24 9.04069 151.696 8.73669C151.152 8.41669 150.568 8.25669 149.944 8.25669C149.32 8.25669 148.744 8.40869 148.216 8.71269C147.688 9.01669 147.256 9.46469 146.92 10.0567C146.6 10.6327 146.44 11.3207 146.44 12.1207C146.44 12.9207 146.6 13.6247 146.92 14.2327C147.256 14.8247 147.688 15.2807 148.216 15.6007C148.76 15.9207 149.336 16.0807 149.944 16.0807C150.568 16.0807 151.152 15.9287 151.696 15.6247C152.24 15.3047 152.672 14.8567 152.992 14.2807C153.312 13.6887 153.472 12.9847 153.472 12.1687Z" fill="white"/><path opacity="0.3" d="M143.099 11.8807C143.099 12.3607 143.067 12.7927 143.003 13.1767H133.283C133.363 14.1367 133.699 14.8887 134.291 15.4327C134.883 15.9767 135.611 16.2487 136.475 16.2487C137.723 16.2487 138.611 15.7127 139.139 14.6407H142.763C142.379 15.9207 141.643 16.9767 140.555 17.8087C139.467 18.6247 138.131 19.0327 136.547 19.0327C135.267 19.0327 134.115 18.7527 133.091 18.1927C132.083 17.6167 131.291 16.8087 130.715 15.7687C130.155 14.7287 129.875 13.5287 129.875 12.1687C129.875 10.7927 130.155 9.58469 130.715 8.54469C131.275 7.50469 132.059 6.70469 133.067 6.14469C134.075 5.58469 135.235 5.30469 136.547 5.30469C137.811 5.30469 138.939 5.57669 139.931 6.12069C140.939 6.66469 141.715 7.44069 142.259 8.44869C142.819 9.44069 143.099 10.5847 143.099 11.8807ZM139.619 10.9207C139.603 10.0567 139.291 9.36869 138.683 8.85669C138.075 8.32869 137.331 8.06469 136.451 8.06469C135.619 8.06469 134.915 8.32069 134.339 8.83269C133.779 9.32869 133.435 10.0247 133.307 10.9207H139.619Z" fill="white"/><path opacity="0.3" d="M115.289 12.1206C115.289 10.7766 115.553 9.58464 116.081 8.54464C116.625 7.50464 117.361 6.70464 118.289 6.14464C119.217 5.58464 120.249 5.30464 121.385 5.30464C122.249 5.30464 123.073 5.49664 123.857 5.88064C124.641 6.24864 125.265 6.74464 125.729 7.36864V1.05664H129.137V18.8166H125.729V16.8486C125.313 17.5046 124.729 18.0326 123.977 18.4326C123.225 18.8326 122.353 19.0326 121.361 19.0326C120.241 19.0326 119.217 18.7446 118.289 18.1686C117.361 17.5926 116.625 16.7846 116.081 15.7446C115.553 14.6886 115.289 13.4806 115.289 12.1206ZM125.753 12.1686C125.753 11.3526 125.593 10.6566 125.273 10.0806C124.953 9.48864 124.521 9.04064 123.977 8.73664C123.433 8.41664 122.849 8.25664 122.225 8.25664C121.601 8.25664 121.025 8.40864 120.497 8.71264C119.969 9.01664 119.537 9.46464 119.201 10.0566C118.881 10.6326 118.721 11.3206 118.721 12.1206C118.721 12.9206 118.881 13.6246 119.201 14.2326C119.537 14.8246 119.969 15.2806 120.497 15.6006C121.041 15.9206 121.617 16.0806 122.225 16.0806C122.849 16.0806 123.433 15.9286 123.977 15.6246C124.521 15.3046 124.953 14.8566 125.273 14.2806C125.593 13.6886 125.753 12.9846 125.753 12.1686Z" fill="white"/><path opacity="0.3" d="M112.857 3.936C112.265 3.936 111.769 3.752 111.369 3.384C110.985 3 110.793 2.528 110.793 1.968C110.793 1.408 110.985 0.944 111.369 0.576C111.769 0.192 112.265 0 112.857 0C113.449 0 113.937 0.192 114.321 0.576C114.721 0.944 114.921 1.408 114.921 1.968C114.921 2.528 114.721 3 114.321 3.384C113.937 3.752 113.449 3.936 112.857 3.936ZM114.513 5.52V18.816H111.153V5.52H114.513Z" fill="white"/><path opacity="0.3" d="M97.74 5.30469C98.732 5.30469 99.604 5.50469 100.356 5.90469C101.108 6.28869 101.7 6.79269 102.132 7.41669V5.52069H105.516V18.9127C105.516 20.1447 105.268 21.2407 104.772 22.2007C104.276 23.1767 103.532 23.9447 102.54 24.5047C101.548 25.0807 100.348 25.3687 98.94 25.3687C97.052 25.3687 95.5 24.9287 94.284 24.0487C93.084 23.1687 92.404 21.9687 92.244 20.4487H95.58C95.756 21.0567 96.132 21.5367 96.708 21.8887C97.3 22.2567 98.012 22.4407 98.844 22.4407C99.82 22.4407 100.612 22.1447 101.22 21.5527C101.828 20.9767 102.132 20.0967 102.132 18.9127V16.8487C101.7 17.4727 101.1 17.9927 100.332 18.4087C99.58 18.8247 98.716 19.0327 97.74 19.0327C96.62 19.0327 95.596 18.7447 94.668 18.1687C93.74 17.5927 93.004 16.7847 92.46 15.7447C91.932 14.6887 91.668 13.4807 91.668 12.1207C91.668 10.7767 91.932 9.58469 92.46 8.54469C93.004 7.50469 93.732 6.70469 94.644 6.14469C95.572 5.58469 96.604 5.30469 97.74 5.30469ZM102.132 12.1687C102.132 11.3527 101.972 10.6567 101.652 10.0807C101.332 9.48869 100.9 9.04069 100.356 8.73669C99.812 8.41669 99.228 8.25669 98.604 8.25669C97.98 8.25669 97.404 8.40869 96.876 8.71269C96.348 9.01669 95.916 9.46469 95.58 10.0567C95.26 10.6327 95.1 11.3207 95.1 12.1207C95.1 12.9207 95.26 13.6247 95.58 14.2327C95.916 14.8247 96.348 15.2807 96.876 15.6007C97.42 15.9207 97.996 16.0807 98.604 16.0807C99.228 16.0807 99.812 15.9287 100.356 15.6247C100.9 15.3047 101.332 14.8567 101.652 14.2807C101.972 13.6887 102.132 12.9847 102.132 12.1687Z" fill="white"/><path opacity="0.3" d="M85.7118 5.32812C87.2958 5.32812 88.5758 5.83213 89.5518 6.84013C90.5278 7.83213 91.0158 9.22413 91.0158 11.0161V18.8161H87.6558V11.4721C87.6558 10.4161 87.3918 9.60813 86.8638 9.04813C86.3358 8.47213 85.6158 8.18413 84.7038 8.18413C83.7758 8.18413 83.0398 8.47213 82.4958 9.04813C81.9678 9.60813 81.7038 10.4161 81.7038 11.4721V18.8161H78.3438V5.52013H81.7038V7.17613C82.1518 6.60013 82.7198 6.15213 83.4078 5.83213C84.1118 5.49613 84.8798 5.32812 85.7118 5.32812Z" fill="white"/><path opacity="0.3" d="M75.0484 3.936C74.4564 3.936 73.9604 3.752 73.5604 3.384C73.1764 3 72.9844 2.528 72.9844 1.968C72.9844 1.408 73.1764 0.944 73.5604 0.576C73.9604 0.192 74.4564 0 75.0484 0C75.6404 0 76.1284 0.192 76.5124 0.576C76.9124 0.944 77.1124 1.408 77.1124 1.968C77.1124 2.528 76.9124 3 76.5124 3.384C76.1284 3.752 75.6404 3.936 75.0484 3.936ZM76.7044 5.52V18.816H73.3444V5.52H76.7044Z" fill="white"/><path opacity="0.3" d="M66.5243 5.32812C68.1083 5.32812 69.3883 5.83213 70.3643 6.84013C71.3403 7.83213 71.8283 9.22413 71.8283 11.0161V18.8161H68.4683V11.4721C68.4683 10.4161 68.2043 9.60813 67.6763 9.04813C67.1483 8.47213 66.4283 8.18413 65.5163 8.18413C64.5883 8.18413 63.8523 8.47213 63.3083 9.04813C62.7803 9.60813 62.5163 10.4161 62.5163 11.4721V18.8161H59.1562V5.52013H62.5163V7.17613C62.9643 6.60013 63.5323 6.15213 64.2203 5.83213C64.9243 5.49613 65.6923 5.32812 66.5243 5.32812Z" fill="white"/><path opacity="0.3" d="M55.8609 3.936C55.2689 3.936 54.7729 3.752 54.3729 3.384C53.9889 3 53.7969 2.528 53.7969 1.968C53.7969 1.408 53.9889 0.944 54.3729 0.576C54.7729 0.192 55.2689 0 55.8609 0C56.4529 0 56.9409 0.192 57.3249 0.576C57.7249 0.944 57.9249 1.408 57.9249 1.968C57.9249 2.528 57.7249 3 57.3249 3.384C56.9409 3.752 56.4529 3.936 55.8609 3.936ZM57.5169 5.52V18.816H54.1569V5.52H57.5169Z" fill="white"/><path opacity="0.3" d="M53.6582 8.2803H51.3302V18.8163H47.9222V8.2803H46.4102V5.5203H47.9222V4.8483C47.9222 3.2163 48.3862 2.0163 49.3142 1.2483C50.2422 0.480297 51.6422 0.120298 53.5142 0.168298V3.0003C52.6982 2.9843 52.1302 3.1203 51.8102 3.4083C51.4902 3.6963 51.3302 4.2163 51.3302 4.9683V5.5203H53.6582V8.2803Z" fill="white"/><path opacity="0.3" d="M46.7904 11.8807C46.7904 12.3607 46.7584 12.7927 46.6944 13.1767H36.9744C37.0544 14.1367 37.3904 14.8887 37.9824 15.4327C38.5744 15.9767 39.3024 16.2487 40.1664 16.2487C41.4144 16.2487 42.3024 15.7127 42.8304 14.6407H46.4544C46.0704 15.9207 45.3344 16.9767 44.2464 17.8087C43.1584 18.6247 41.8224 19.0327 40.2384 19.0327C38.9584 19.0327 37.8064 18.7527 36.7824 18.1927C35.7744 17.6167 34.9824 16.8087 34.4064 15.7687C33.8464 14.7287 33.5664 13.5287 33.5664 12.1687C33.5664 10.7927 33.8464 9.58469 34.4064 8.54469C34.9664 7.50469 35.7504 6.70469 36.7584 6.14469C37.7664 5.58469 38.9264 5.30469 40.2384 5.30469C41.5024 5.30469 42.6304 5.57669 43.6224 6.12069C44.6304 6.66469 45.4064 7.44069 45.9504 8.44869C46.5104 9.44069 46.7904 10.5847 46.7904 11.8807ZM43.3104 10.9207C43.2944 10.0567 42.9824 9.36869 42.3744 8.85669C41.7664 8.32869 41.0224 8.06469 40.1424 8.06469C39.3104 8.06469 38.6064 8.32069 38.0304 8.83269C37.4704 9.32869 37.1264 10.0247 36.9984 10.9207H43.3104Z" fill="white"/><path opacity="0.3" d="M29.3744 18.8165L25.6784 12.2885H24.0944V18.8165H20.7344V2.06445H27.0224C28.3184 2.06445 29.4224 2.29645 30.3344 2.76045C31.2464 3.20845 31.9264 3.82445 32.3744 4.60845C32.8384 5.37645 33.0704 6.24045 33.0704 7.20045C33.0704 8.30445 32.7504 9.30445 32.1104 10.2005C31.4704 11.0805 30.5184 11.6885 29.2544 12.0245L33.2624 18.8165H29.3744ZM24.0944 9.76845H26.9024C27.8144 9.76845 28.4944 9.55245 28.9424 9.12045C29.3904 8.67245 29.6144 8.05645 29.6144 7.27245C29.6144 6.50445 29.3904 5.91245 28.9424 5.49645C28.4944 5.06445 27.8144 4.84845 26.9024 4.84845H24.0944V9.76845Z" fill="white"/></svg>