<svg width="175" height="128" viewBox="0 0 175 128" fill="none" xmlns="http://www.w3.org/2000/svg"><path d="M87.0578 95.1003H85.8364C82.782 95.1003 81.5348 93.9776 80.5317 93.0749C79.8879 92.4957 79.3799 92.0379 78.4384 91.9053L38.8875 86.3547C37.4929 86.159 36.4414 84.9505 36.4414 83.5431V25.333C36.4414 24.4966 36.807 23.7071 37.446 23.1668C38.085 22.6264 38.9247 22.3967 39.7497 22.5359L45.6901 23.5389C46.1301 23.6133 46.4278 24.0307 46.3534 24.4707C46.279 24.9107 45.8616 25.2084 45.4216 25.134L39.4812 24.131C39.1269 24.0711 38.7661 24.1698 38.4911 24.4027C38.2161 24.6341 38.0592 24.9738 38.0592 25.333V83.5415C38.0592 84.1465 38.5121 84.6674 39.1107 84.7515L78.6616 90.3004C80.0933 90.501 80.9006 91.229 81.614 91.8697C82.5345 92.698 83.4016 93.4793 85.8364 93.4793H87.0578C89.4909 93.4793 90.3564 92.698 91.272 91.8697C91.9822 91.2274 92.7895 90.4994 94.2212 90.2988L133.772 84.7499C134.372 84.6658 134.824 84.1449 134.824 83.5398V25.333C134.824 24.9738 134.667 24.6341 134.392 24.4027C134.117 24.1714 133.758 24.0711 133.402 24.131L127.474 25.1324C127.034 25.2084 126.617 24.9091 126.542 24.4691C126.468 24.029 126.766 23.6117 127.206 23.5372L133.133 22.5359C133.958 22.3967 134.798 22.6264 135.437 23.1668C136.076 23.7071 136.441 24.4966 136.441 25.333V83.5415C136.441 84.9489 135.39 86.1574 133.995 86.3531L94.4445 91.902C93.5029 92.0347 92.9966 92.4925 92.3543 93.0716C91.3545 93.9744 90.1105 95.0987 87.0562 95.0987L87.0578 95.1003Z" fill="white"/><path d="M86.4434 85.5138C86.2994 85.5138 86.1554 85.475 86.0276 85.399C85.8303 85.2809 66.0597 73.5424 48.5393 73.5424C48.0928 73.5424 47.7305 73.1801 47.7305 72.7336V18.8089C47.7305 18.3624 48.0928 18 48.5393 18C60.9039 18 70.6848 21.5299 76.7126 24.4904C83.2596 27.7065 86.8349 30.8887 86.9853 31.0229C87.1568 31.1766 87.2539 31.395 87.2539 31.6247V84.7049C87.2539 84.9961 87.097 85.2647 86.843 85.4087C86.72 85.4782 86.5809 85.5138 86.445 85.5138H86.4434ZM49.3482 71.9344C54.6173 72.0412 63.0652 73.227 74.5351 77.9735C79.6634 80.096 83.711 82.2411 85.6345 83.3121V31.9984C84.6946 31.2155 81.3183 28.551 75.9425 25.9157C70.2108 23.1073 60.9928 19.7714 49.3482 19.6226V71.9328V71.9344Z" fill="white"/><path d="M86.4417 85.5138C86.3042 85.5138 86.1667 85.4782 86.0437 85.4087C85.7897 85.2647 85.6328 84.9961 85.6328 84.7049V31.6247C85.6328 31.395 85.7299 31.1766 85.9014 31.0229C86.0502 30.8887 89.6271 27.7065 96.1741 24.4904C102.2 21.5299 111.981 18 124.346 18C124.792 18 125.155 18.3624 125.155 18.8089V72.7336C125.155 73.1801 124.792 73.5424 124.346 73.5424C106.825 73.5424 87.0548 85.2793 86.8575 85.399C86.7297 85.475 86.5857 85.5138 86.4417 85.5138ZM87.2506 31.9984V83.3121C89.1757 82.2411 93.2233 80.0943 98.35 77.9735C109.82 73.227 118.268 72.0412 123.537 71.9344V19.6226C111.892 19.7714 102.674 23.1073 96.9425 25.9157C91.5667 28.5494 88.1905 31.2155 87.2506 31.9984Z" fill="white"/><path d="M90.5916 88.0853C90.2583 88.0853 89.9477 87.8782 89.8296 87.5482C89.1194 85.5568 86.5488 85.5163 86.4388 85.5147C86.3417 85.5147 83.9216 85.56 83.0253 87.6016C82.8587 87.9818 82.43 88.1743 82.0353 88.0465C62.7597 81.7971 40.8359 81.6871 40.6159 81.6871C40.1694 81.6871 39.8086 81.3247 39.8086 80.8782V27.1331C39.8086 26.6866 40.171 26.3242 40.6175 26.3242C41.064 26.3242 41.4264 26.6866 41.4264 27.1331V80.0806C45.5435 80.1648 64.6379 80.8442 81.8881 86.3009C83.3813 83.9277 86.3078 83.8969 86.4404 83.8969C86.5828 83.8969 89.6581 83.9261 91.0203 86.2831C103.498 82.2209 113.963 80.7407 120.591 80.2165C126.084 79.7814 129.848 79.9059 131.469 80.0046V27.1331C131.469 26.6866 131.831 26.3242 132.278 26.3242C132.724 26.3242 133.087 26.6866 133.087 27.1331V80.8782C133.087 81.1063 132.99 81.3247 132.82 81.4784C132.65 81.6321 132.424 81.7049 132.195 81.6838C132.026 81.666 114.96 80.0596 90.8423 88.0465C90.7582 88.074 90.6725 88.0869 90.5884 88.0869L90.5916 88.0853Z" fill="white"/><path d="M132.279 27.9415C132.206 27.9415 132.132 27.9318 132.058 27.9108C124.598 25.7964 123.584 19.2024 123.543 18.9242C123.48 18.4825 123.789 18.0732 124.231 18.0101C124.674 17.947 125.082 18.256 125.145 18.6977C125.179 18.9323 126.077 24.5345 132.498 26.3545C132.928 26.4758 133.177 26.924 133.056 27.3527C132.955 27.7086 132.63 27.9415 132.278 27.9415H132.279Z" fill="white"/><path d="M40.6174 27.9416C40.2648 27.9416 39.9412 27.7086 39.8393 27.3527C39.718 26.9224 39.9671 26.4759 40.3974 26.3546C46.8183 24.533 47.7161 18.9307 47.7501 18.6945C47.8148 18.2529 48.2241 17.9471 48.6658 18.0102C49.1074 18.0733 49.4132 18.481 49.3517 18.9226C49.3129 19.2025 48.2969 25.7948 40.8374 27.9093C40.763 27.9303 40.6886 27.94 40.6158 27.94L40.6174 27.9416Z" fill="white"/><path d="M40.6184 81.6859C40.2883 81.6859 39.9777 81.482 39.858 81.1536C39.7043 80.7346 39.9211 80.2703 40.3417 80.1166C47.8433 77.3842 47.7397 72.9629 47.73 72.7769C47.7106 72.3336 48.0519 71.9534 48.4952 71.9308C48.9352 71.9081 49.317 72.2414 49.3445 72.6847C49.3591 72.9192 49.6001 78.4649 40.8934 81.6373C40.8028 81.6713 40.709 81.6859 40.6167 81.6859H40.6184Z" fill="white"/><path d="M132.274 81.686C132.182 81.686 132.088 81.6698 131.997 81.6375C123.291 78.4651 123.532 72.9194 123.546 72.6848C123.574 72.2383 123.959 71.897 124.404 71.9277C124.85 71.9552 125.188 72.3386 125.161 72.7851C125.153 72.9647 125.049 77.3844 132.551 80.1184C132.97 80.2721 133.186 80.7364 133.034 81.1554C132.915 81.4838 132.604 81.6876 132.274 81.6876V81.686Z" fill="white"/><path d="M172.025 115.512C172.313 115.042 172.686 114.674 173.145 114.408C173.614 114.141 174.148 114.008 174.745 114.008V116.36H174.153C173.449 116.36 172.916 116.525 172.553 116.856C172.201 117.186 172.025 117.762 172.025 118.584V123H169.785V114.136H172.025V115.512Z" fill="white"/><path d="M165.91 118.376C165.91 118.696 165.888 118.984 165.846 119.24H159.366C159.419 119.88 159.643 120.382 160.038 120.744C160.432 121.107 160.918 121.288 161.494 121.288C162.326 121.288 162.918 120.931 163.27 120.216H165.686C165.43 121.07 164.939 121.774 164.214 122.328C163.488 122.872 162.598 123.144 161.542 123.144C160.688 123.144 159.92 122.958 159.238 122.584C158.566 122.2 158.038 121.662 157.654 120.968C157.28 120.275 157.094 119.475 157.094 118.568C157.094 117.651 157.28 116.846 157.654 116.152C158.027 115.459 158.55 114.926 159.222 114.552C159.894 114.179 160.667 113.992 161.542 113.992C162.384 113.992 163.136 114.174 163.798 114.536C164.47 114.899 164.987 115.416 165.35 116.088C165.723 116.75 165.91 117.512 165.91 118.376ZM163.59 117.736C163.579 117.16 163.371 116.702 162.966 116.36C162.56 116.008 162.064 115.832 161.478 115.832C160.923 115.832 160.454 116.003 160.07 116.344C159.696 116.675 159.467 117.139 159.382 117.736H163.59Z" fill="white"/><path d="M149.764 114.008C150.82 114.008 151.673 114.344 152.324 115.016C152.974 115.677 153.3 116.605 153.3 117.8V123H151.06V118.104C151.06 117.4 150.884 116.861 150.532 116.488C150.18 116.104 149.7 115.912 149.092 115.912C148.473 115.912 147.982 116.104 147.62 116.488C147.268 116.861 147.092 117.4 147.092 118.104V123H144.852V114.136H147.092V115.24C147.39 114.856 147.769 114.557 148.228 114.344C148.697 114.12 149.209 114.008 149.764 114.008Z" fill="white"/><path d="M139.019 115.975V120.263C139.019 120.562 139.088 120.781 139.227 120.919C139.376 121.047 139.622 121.111 139.963 121.111H141.003V122.999H139.595C137.707 122.999 136.763 122.082 136.763 120.247V115.975H135.707V114.135H136.763V111.943H139.019V114.135H141.003V115.975H139.019Z" fill="white"/><path d="M129.939 115.512C130.227 115.042 130.601 114.674 131.059 114.408C131.529 114.141 132.062 114.008 132.659 114.008V116.36H132.067C131.363 116.36 130.83 116.525 130.467 116.856C130.115 117.186 129.939 117.762 129.939 118.584V123H127.699V114.136H129.939V115.512Z" fill="white"/><path d="M114.043 118.536C114.043 117.64 114.219 116.846 114.571 116.152C114.934 115.459 115.419 114.926 116.027 114.552C116.646 114.179 117.334 113.992 118.091 113.992C118.752 113.992 119.328 114.126 119.819 114.392C120.32 114.659 120.72 114.995 121.019 115.4V114.136H123.275V123H121.019V121.704C120.731 122.12 120.331 122.467 119.819 122.744C119.318 123.011 118.736 123.144 118.075 123.144C117.328 123.144 116.646 122.952 116.027 122.568C115.419 122.184 114.934 121.646 114.571 120.952C114.219 120.248 114.043 119.443 114.043 118.536ZM121.019 118.568C121.019 118.024 120.912 117.56 120.699 117.176C120.486 116.782 120.198 116.483 119.835 116.28C119.472 116.067 119.083 115.96 118.667 115.96C118.251 115.96 117.867 116.062 117.515 116.264C117.163 116.467 116.875 116.766 116.651 117.16C116.438 117.544 116.331 118.003 116.331 118.536C116.331 119.07 116.438 119.539 116.651 119.944C116.875 120.339 117.163 120.643 117.515 120.856C117.878 121.07 118.262 121.176 118.667 121.176C119.083 121.176 119.472 121.075 119.835 120.872C120.198 120.659 120.486 120.36 120.699 119.976C120.912 119.582 121.019 119.112 121.019 118.568Z" fill="white"/><path d="M110.789 115.288C110.789 115.885 110.645 116.445 110.357 116.968C110.079 117.491 109.637 117.912 109.029 118.232C108.431 118.552 107.674 118.712 106.757 118.712H104.885V123H102.645V111.832H106.757C107.621 111.832 108.357 111.981 108.965 112.28C109.573 112.579 110.026 112.989 110.325 113.512C110.634 114.035 110.789 114.627 110.789 115.288ZM106.661 116.904C107.279 116.904 107.738 116.765 108.037 116.488C108.335 116.2 108.485 115.8 108.485 115.288C108.485 114.2 107.877 113.656 106.661 113.656H104.885V116.904H106.661Z" fill="white"/><path d="M92.7144 118.376C92.7144 118.696 92.6931 118.984 92.6504 119.24H86.1704C86.2238 119.88 86.4478 120.382 86.8424 120.744C87.2371 121.107 87.7224 121.288 88.2984 121.288C89.1304 121.288 89.7224 120.931 90.0744 120.216H92.4904C92.2344 121.07 91.7438 121.774 91.0184 122.328C90.2931 122.872 89.4024 123.144 88.3464 123.144C87.4931 123.144 86.7251 122.958 86.0424 122.584C85.3704 122.2 84.8424 121.662 84.4584 120.968C84.0851 120.275 83.8984 119.475 83.8984 118.568C83.8984 117.651 84.0851 116.846 84.4584 116.152C84.8318 115.459 85.3544 114.926 86.0264 114.552C86.6984 114.179 87.4718 113.992 88.3464 113.992C89.1891 113.992 89.9411 114.174 90.6024 114.536C91.2744 114.899 91.7918 115.416 92.1544 116.088C92.5278 116.75 92.7144 117.512 92.7144 118.376ZM90.3944 117.736C90.3838 117.16 90.1758 116.702 89.7704 116.36C89.3651 116.008 88.8691 115.832 88.2824 115.832C87.7278 115.832 87.2584 116.003 86.8744 116.344C86.5011 116.675 86.2718 117.139 86.1864 117.736H90.3944Z" fill="white"/><path d="M74.8644 113.992C75.5257 113.992 76.1071 114.126 76.6084 114.392C77.1097 114.648 77.5044 114.984 77.7924 115.4V114.136H80.0484V123.064C80.0484 123.886 79.8831 124.616 79.5524 125.256C79.2217 125.907 78.7257 126.419 78.0644 126.792C77.4031 127.176 76.6031 127.368 75.6644 127.368C74.4057 127.368 73.3711 127.075 72.5604 126.488C71.7604 125.902 71.3071 125.102 71.2004 124.088H73.4244C73.5417 124.494 73.7924 124.814 74.1764 125.048C74.5711 125.294 75.0457 125.416 75.6004 125.416C76.2511 125.416 76.7791 125.219 77.1844 124.824C77.5897 124.44 77.7924 123.854 77.7924 123.064V121.688C77.5044 122.104 77.1044 122.451 76.5924 122.728C76.0911 123.006 75.5151 123.144 74.8644 123.144C74.1177 123.144 73.4351 122.952 72.8164 122.568C72.1977 122.184 71.7071 121.646 71.3444 120.952C70.9924 120.248 70.8164 119.443 70.8164 118.536C70.8164 117.64 70.9924 116.846 71.3444 116.152C71.7071 115.459 72.1924 114.926 72.8004 114.552C73.4191 114.179 74.1071 113.992 74.8644 113.992ZM77.7924 118.568C77.7924 118.024 77.6857 117.56 77.4724 117.176C77.2591 116.782 76.9711 116.483 76.6084 116.28C76.2457 116.067 75.8564 115.96 75.4404 115.96C75.0244 115.96 74.6404 116.062 74.2884 116.264C73.9364 116.467 73.6484 116.766 73.4244 117.16C73.2111 117.544 73.1044 118.003 73.1044 118.536C73.1044 119.07 73.2111 119.539 73.4244 119.944C73.6484 120.339 73.9364 120.643 74.2884 120.856C74.6511 121.07 75.0351 121.176 75.4404 121.176C75.8564 121.176 76.2457 121.075 76.6084 120.872C76.9711 120.659 77.2591 120.36 77.4724 119.976C77.6857 119.582 77.7924 119.112 77.7924 118.568Z" fill="white"/><path d="M57.7305 118.536C57.7305 117.64 57.9065 116.846 58.2585 116.152C58.6211 115.459 59.1065 114.926 59.7145 114.552C60.3331 114.179 61.0211 113.992 61.7785 113.992C62.4398 113.992 63.0158 114.126 63.5065 114.392C64.0078 114.659 64.4078 114.995 64.7065 115.4V114.136H66.9625V123H64.7065V121.704C64.4185 122.12 64.0185 122.467 63.5065 122.744C63.0051 123.011 62.4238 123.144 61.7625 123.144C61.0158 123.144 60.3331 122.952 59.7145 122.568C59.1065 122.184 58.6211 121.646 58.2585 120.952C57.9065 120.248 57.7305 119.443 57.7305 118.536ZM64.7065 118.568C64.7065 118.024 64.5998 117.56 64.3865 117.176C64.1731 116.782 63.8851 116.483 63.5225 116.28C63.1598 116.067 62.7705 115.96 62.3545 115.96C61.9385 115.96 61.5545 116.062 61.2025 116.264C60.8505 116.467 60.5625 116.766 60.3385 117.16C60.1251 117.544 60.0185 118.003 60.0185 118.536C60.0185 119.07 60.1251 119.539 60.3385 119.944C60.5625 120.339 60.8505 120.643 61.2025 120.856C61.5651 121.07 61.9491 121.176 62.3545 121.176C62.7705 121.176 63.1598 121.075 63.5225 120.872C63.8851 120.659 64.1731 120.36 64.3865 119.976C64.5998 119.582 64.7065 119.112 64.7065 118.568Z" fill="white"/><path d="M54.476 115.288C54.476 115.885 54.332 116.445 54.044 116.968C53.7667 117.491 53.324 117.912 52.716 118.232C52.1187 118.552 51.3614 118.712 50.444 118.712H48.572V123H46.332V111.832H50.444C51.308 111.832 52.044 111.981 52.652 112.28C53.26 112.579 53.7134 112.989 54.012 113.512C54.3214 114.035 54.476 114.627 54.476 115.288ZM50.348 116.904C50.9667 116.904 51.4254 116.765 51.724 116.488C52.0227 116.2 52.172 115.8 52.172 115.288C52.172 114.2 51.564 113.656 50.348 113.656H48.572V116.904H50.348Z" fill="white"/><path d="M36.4058 118.376C36.4058 118.696 36.3845 118.984 36.3418 119.24H29.8618C29.9152 119.88 30.1392 120.382 30.5338 120.744C30.9285 121.107 31.4138 121.288 31.9898 121.288C32.8218 121.288 33.4138 120.931 33.7658 120.216H36.1818C35.9258 121.07 35.4352 121.774 34.7098 122.328C33.9845 122.872 33.0938 123.144 32.0378 123.144C31.1845 123.144 30.4165 122.958 29.7338 122.584C29.0618 122.2 28.5338 121.662 28.1498 120.968C27.7765 120.275 27.5898 119.475 27.5898 118.568C27.5898 117.651 27.7765 116.846 28.1498 116.152C28.5232 115.459 29.0458 114.926 29.7178 114.552C30.3898 114.179 31.1632 113.992 32.0378 113.992C32.8805 113.992 33.6325 114.174 34.2938 114.536C34.9658 114.899 35.4832 115.416 35.8458 116.088C36.2192 116.75 36.4058 117.512 36.4058 118.376ZM34.0858 117.736C34.0752 117.16 33.8672 116.702 33.4618 116.36C33.0565 116.008 32.5605 115.832 31.9738 115.832C31.4192 115.832 30.9498 116.003 30.5658 116.344C30.1925 116.675 29.9632 117.139 29.8778 117.736H34.0858Z" fill="white"/><path d="M20.2597 114.008C21.3157 114.008 22.169 114.344 22.8197 115.016C23.4703 115.677 23.7957 116.605 23.7957 117.8V123H21.5557V118.104C21.5557 117.4 21.3797 116.861 21.0277 116.488C20.6757 116.104 20.1957 115.912 19.5877 115.912C18.969 115.912 18.4783 116.104 18.1157 116.488C17.7637 116.861 17.5877 117.4 17.5877 118.104V123H15.3477V114.136H17.5877V115.24C17.8863 114.856 18.265 114.557 18.7237 114.344C19.193 114.12 19.705 114.008 20.2597 114.008Z" fill="white"/><path d="M5.728 123.112C4.68267 123.112 3.72267 122.867 2.848 122.376C1.97333 121.885 1.28 121.208 0.768 120.344C0.256 119.469 0 118.483 0 117.384C0 116.296 0.256 115.32 0.768 114.456C1.28 113.581 1.97333 112.899 2.848 112.408C3.72267 111.917 4.68267 111.672 5.728 111.672C6.784 111.672 7.744 111.917 8.608 112.408C9.48267 112.899 10.1707 113.581 10.672 114.456C11.184 115.32 11.44 116.296 11.44 117.384C11.44 118.483 11.184 119.469 10.672 120.344C10.1707 121.208 9.48267 121.885 8.608 122.376C7.73333 122.867 6.77333 123.112 5.728 123.112ZM5.728 121.112C6.4 121.112 6.992 120.963 7.504 120.664C8.016 120.355 8.416 119.917 8.704 119.352C8.992 118.787 9.136 118.131 9.136 117.384C9.136 116.637 8.992 115.987 8.704 115.432C8.416 114.867 8.016 114.435 7.504 114.136C6.992 113.837 6.4 113.688 5.728 113.688C5.056 113.688 4.45867 113.837 3.936 114.136C3.424 114.435 3.024 114.867 2.736 115.432C2.448 115.987 2.304 116.637 2.304 117.384C2.304 118.131 2.448 118.787 2.736 119.352C3.024 119.917 3.424 120.355 3.936 120.664C4.45867 120.963 5.056 121.112 5.728 121.112Z" fill="white"/><path d="M147.441 8L145.441 8L145.441 -8.74224e-08L147.441 0L147.441 8Z" fill="white"/><path d="M148.441 11L148.441 9L154.441 9L154.441 11L148.441 11Z" fill="white"/><path d="M138.441 11L138.441 9L144.441 9L144.441 11L138.441 11Z" fill="white"/><path d="M147.441 20L145.441 20L145.441 12L147.441 12L147.441 20Z" fill="white"/><path d="M157.441 23L155.441 23L155.441 18L157.441 18L157.441 23Z" fill="white"/><path d="M158.441 26L158.441 24L162.441 24L162.441 26L158.441 26Z" fill="white"/><path d="M150.441 26L150.441 24L154.441 24L154.441 26L150.441 26Z" fill="white"/><path d="M157.441 32L155.441 32L155.441 27L157.441 27L157.441 32Z" fill="white"/><path d="M24.4414 90L22.4414 90L22.4414 85L24.4414 85L24.4414 90Z" fill="white"/><path d="M25.4414 93L25.4414 91L29.4414 91L29.4414 93L25.4414 93Z" fill="white"/><path d="M17.4414 93L17.4414 91L21.4414 91L21.4414 93L17.4414 93Z" fill="white"/><path d="M24.4414 99L22.4414 99L22.4414 94L24.4414 94L24.4414 99Z" fill="white"/></svg>