<svg width="1242" height="157" viewBox="0 0 1242 157" fill="none" xmlns="http://www.w3.org/2000/svg"><path opacity="0.4" d="M1216.24 38.3994C1219.12 33.706 1222.86 30.026 1227.44 27.3594C1232.14 24.6927 1237.47 23.3594 1243.44 23.3594V46.8794H1237.52C1230.48 46.8794 1225.15 48.5327 1221.52 51.8394C1218 55.146 1216.24 60.906 1216.24 69.1194V113.279H1193.84V24.6394H1216.24V38.3994Z" fill="white"/><path opacity="0.4" d="M1188.7 67.0392C1188.7 70.2392 1188.48 73.1192 1188.06 75.6792H1123.26C1123.79 82.0792 1126.03 87.0926 1129.98 90.7192C1133.92 94.3459 1138.78 96.1592 1144.54 96.1592C1152.86 96.1592 1158.78 92.5859 1162.3 85.4392H1186.46C1183.9 93.9726 1178.99 101.013 1171.74 106.559C1164.48 111.999 1155.58 114.719 1145.02 114.719C1136.48 114.719 1128.8 112.853 1121.98 109.119C1115.26 105.279 1109.98 99.8926 1106.14 92.9592C1102.4 86.0259 1100.54 78.0259 1100.54 68.9592C1100.54 59.7859 1102.4 51.7326 1106.14 44.7992C1109.87 37.8659 1115.1 32.5326 1121.82 28.7992C1128.54 25.0659 1136.27 23.1992 1145.02 23.1992C1153.44 23.1992 1160.96 25.0126 1167.58 28.6392C1174.3 32.2659 1179.47 37.4392 1183.1 44.1592C1186.83 50.7726 1188.7 58.3992 1188.7 67.0392ZM1165.5 60.6392C1165.39 54.8792 1163.31 50.2926 1159.26 46.8792C1155.2 43.3592 1150.24 41.5992 1144.38 41.5992C1138.83 41.5992 1134.14 43.3059 1130.3 46.7192C1126.56 50.0259 1124.27 54.6659 1123.42 60.6392H1165.5Z" fill="white"/><path opacity="0.4" d="M1060.83 23.3594C1071.39 23.3594 1079.93 26.7194 1086.43 33.4394C1092.94 40.0527 1096.19 49.3327 1096.19 61.2794V113.279H1073.79V64.3194C1073.79 57.2794 1072.03 51.8927 1068.51 48.1594C1064.99 44.3194 1060.19 42.3994 1054.11 42.3994C1047.93 42.3994 1043.02 44.3194 1039.39 48.1594C1035.87 51.8927 1034.11 57.2794 1034.11 64.3194V113.279H1011.71V24.6394H1034.11V35.6794C1037.1 31.8394 1040.89 28.8527 1045.47 26.7194C1050.17 24.4794 1055.29 23.3594 1060.83 23.3594Z" fill="white"/><path opacity="0.4" d="M986.964 43.0388V85.9188C986.964 88.9054 987.657 91.0921 989.044 92.4788C990.537 93.7588 992.99 94.3988 996.404 94.3988H1006.8V113.279H992.724C973.844 113.279 964.404 104.105 964.404 85.7588V43.0388H953.844V24.6388H964.404V2.71875H986.964V24.6388H1006.8V43.0388H986.964Z" fill="white"/><path opacity="0.4" d="M929.795 38.3994C932.675 33.706 936.408 30.026 940.995 27.3594C945.688 24.6927 951.021 23.3594 956.995 23.3594V46.8794H951.075C944.035 46.8794 938.701 48.5327 935.075 51.8394C931.555 55.146 929.795 60.906 929.795 69.1194V113.279H907.395V24.6394H929.795V38.3994Z" fill="white"/><path opacity="0.4" d="M804.398 68.6392C804.398 59.6792 806.158 51.7326 809.678 44.7992C813.305 37.8659 818.158 32.5326 824.238 28.7992C830.425 25.0659 837.305 23.1992 844.878 23.1992C851.492 23.1992 857.252 24.5326 862.158 27.1992C867.172 29.8659 871.172 33.2259 874.158 37.2792V24.6392H896.718V113.279H874.158V100.319C871.278 104.479 867.278 107.946 862.158 110.719C857.145 113.386 851.332 114.719 844.718 114.719C837.252 114.719 830.425 112.799 824.238 108.959C818.158 105.119 813.305 99.7326 809.678 92.7992C806.158 85.7592 804.398 77.7059 804.398 68.6392ZM874.158 68.9592C874.158 63.5192 873.092 58.8792 870.958 55.0392C868.825 51.0926 865.945 48.1059 862.318 46.0792C858.692 43.9459 854.798 42.8792 850.638 42.8792C846.478 42.8792 842.638 43.8926 839.118 45.9192C835.598 47.9459 832.718 50.9326 830.478 54.8792C828.345 58.7192 827.278 63.3059 827.278 68.6392C827.278 73.9726 828.345 78.6659 830.478 82.7192C832.718 86.6659 835.598 89.7059 839.118 91.8392C842.745 93.9726 846.585 95.0392 850.638 95.0392C854.798 95.0392 858.692 94.0259 862.318 91.9992C865.945 89.8659 868.825 86.8792 870.958 83.0392C873.092 79.0926 874.158 74.3992 874.158 68.9592Z" fill="white"/><path opacity="0.4" d="M805.452 36.1596C805.452 42.1329 804.012 47.7329 801.132 52.9596C798.358 58.1863 793.932 62.3996 787.852 65.5996C781.878 68.7996 774.305 70.3996 765.132 70.3996H746.412V113.28H724.012V1.59961H765.132C773.772 1.59961 781.132 3.09294 787.212 6.07961C793.292 9.06627 797.825 13.1729 800.812 18.3996C803.905 23.6263 805.452 29.5463 805.452 36.1596ZM764.172 52.3196C770.358 52.3196 774.945 50.9329 777.932 48.1596C780.918 45.2796 782.412 41.2796 782.412 36.1596C782.412 25.2796 776.332 19.8396 764.172 19.8396H746.412V52.3196H764.172Z" fill="white"/><path opacity="0.4" d="M691.937 67.0392C691.937 70.2392 691.724 73.1192 691.297 75.6792H626.497C627.031 82.0792 629.271 87.0926 633.217 90.7192C637.164 94.3459 642.017 96.1592 647.777 96.1592C656.097 96.1592 662.017 92.5859 665.537 85.4392H689.697C687.137 93.9726 682.231 101.013 674.977 106.559C667.724 111.999 658.817 114.719 648.257 114.719C639.724 114.719 632.044 112.853 625.217 109.119C618.497 105.279 613.217 99.8926 609.377 92.9592C605.644 86.0259 603.777 78.0259 603.777 68.9592C603.777 59.7859 605.644 51.7326 609.377 44.7992C613.111 37.8659 618.337 32.5326 625.057 28.7992C631.777 25.0659 639.511 23.1992 648.257 23.1992C656.684 23.1992 664.204 25.0126 670.817 28.6392C677.537 32.2659 682.711 37.4392 686.337 44.1592C690.071 50.7726 691.937 58.3992 691.937 67.0392ZM668.737 60.6392C668.631 54.8792 666.551 50.2926 662.497 46.8792C658.444 43.3592 653.484 41.5992 647.617 41.5992C642.071 41.5992 637.377 43.3059 633.537 46.7192C629.804 50.0259 627.511 54.6659 626.657 60.6392H668.737Z" fill="white"/><path opacity="0.4" d="M547.019 23.1992C553.632 23.1992 559.446 24.5326 564.459 27.1992C569.472 29.7592 573.419 33.1192 576.299 37.2792V24.6392H598.859V113.919C598.859 122.133 597.206 129.439 593.899 135.839C590.592 142.346 585.632 147.466 579.019 151.199C572.406 155.039 564.406 156.959 555.019 156.959C542.432 156.959 532.086 154.026 523.979 148.159C515.979 142.293 511.446 134.293 510.379 124.159H532.619C533.792 128.213 536.299 131.413 540.139 133.759C544.086 136.213 548.832 137.439 554.379 137.439C560.886 137.439 566.166 135.466 570.219 131.519C574.272 127.679 576.299 121.813 576.299 113.919V100.159C573.419 104.319 569.419 107.786 564.299 110.559C559.286 113.333 553.526 114.719 547.019 114.719C539.552 114.719 532.726 112.799 526.539 108.959C520.352 105.119 515.446 99.7326 511.819 92.7992C508.299 85.7592 506.539 77.7059 506.539 68.6392C506.539 59.6792 508.299 51.7326 511.819 44.7992C515.446 37.8659 520.299 32.5326 526.379 28.7992C532.566 25.0659 539.446 23.1992 547.019 23.1992ZM576.299 68.9592C576.299 63.5192 575.232 58.8792 573.099 55.0392C570.966 51.0926 568.086 48.1059 564.459 46.0792C560.832 43.9459 556.939 42.8792 552.779 42.8792C548.619 42.8792 544.779 43.8926 541.259 45.9192C537.739 47.9459 534.859 50.9326 532.619 54.8792C530.486 58.7192 529.419 63.3059 529.419 68.6392C529.419 73.9726 530.486 78.6659 532.619 82.7192C534.859 86.6659 537.739 89.7059 541.259 91.8392C544.886 93.9726 548.726 95.0392 552.779 95.0392C556.939 95.0392 560.832 94.0259 564.459 91.9992C568.086 89.8659 570.966 86.8792 573.099 83.0392C575.232 79.0926 576.299 74.3992 576.299 68.9592Z" fill="white"/><path opacity="0.4" d="M409.305 68.6392C409.305 59.6792 411.065 51.7326 414.585 44.7992C418.211 37.8659 423.065 32.5326 429.145 28.7992C435.331 25.0659 442.211 23.1992 449.785 23.1992C456.398 23.1992 462.158 24.5326 467.065 27.1992C472.078 29.8659 476.078 33.2259 479.065 37.2792V24.6392H501.625V113.279H479.065V100.319C476.185 104.479 472.185 107.946 467.065 110.719C462.051 113.386 456.238 114.719 449.625 114.719C442.158 114.719 435.331 112.799 429.145 108.959C423.065 105.119 418.211 99.7326 414.585 92.7992C411.065 85.7592 409.305 77.7059 409.305 68.6392ZM479.065 68.9592C479.065 63.5192 477.998 58.8792 475.865 55.0392C473.731 51.0926 470.851 48.1059 467.225 46.0792C463.598 43.9459 459.705 42.8792 455.545 42.8792C451.385 42.8792 447.545 43.8926 444.025 45.9192C440.505 47.9459 437.625 50.9326 435.385 54.8792C433.251 58.7192 432.185 63.3059 432.185 68.6392C432.185 73.9726 433.251 78.6659 435.385 82.7192C437.625 86.6659 440.505 89.7059 444.025 91.8392C447.651 93.9726 451.491 95.0392 455.545 95.0392C459.705 95.0392 463.598 94.0259 467.225 91.9992C470.851 89.8659 473.731 86.8792 475.865 83.0392C477.998 79.0926 479.065 74.3992 479.065 68.9592Z" fill="white"/><path opacity="0.4" d="M410.358 36.1596C410.358 42.1329 408.918 47.7329 406.038 52.9596C403.265 58.1863 398.838 62.3996 392.758 65.5996C386.785 68.7996 379.211 70.3996 370.038 70.3996H351.318V113.28H328.918V1.59961H370.038C378.678 1.59961 386.038 3.09294 392.118 6.07961C398.198 9.06627 402.731 13.1729 405.718 18.3996C408.811 23.6263 410.358 29.5463 410.358 36.1596ZM369.078 52.3196C375.265 52.3196 379.851 50.9329 382.838 48.1596C385.825 45.2796 387.318 41.2796 387.318 36.1596C387.318 25.2796 381.238 19.8396 369.078 19.8396H351.318V52.3196H369.078Z" fill="white"/><path opacity="0.4" d="M296.844 67.0392C296.844 70.2392 296.63 73.1192 296.204 75.6792H231.404C231.937 82.0792 234.177 87.0926 238.124 90.7192C242.07 94.3459 246.924 96.1592 252.684 96.1592C261.004 96.1592 266.924 92.5859 270.444 85.4392H294.604C292.044 93.9726 287.137 101.013 279.884 106.559C272.63 111.999 263.724 114.719 253.164 114.719C244.63 114.719 236.95 112.853 230.124 109.119C223.404 105.279 218.124 99.8926 214.284 92.9592C210.55 86.0259 208.684 78.0259 208.684 68.9592C208.684 59.7859 210.55 51.7326 214.284 44.7992C218.017 37.8659 223.244 32.5326 229.964 28.7992C236.684 25.0659 244.417 23.1992 253.164 23.1992C261.59 23.1992 269.11 25.0126 275.724 28.6392C282.444 32.2659 287.617 37.4392 291.244 44.1592C294.977 50.7726 296.844 58.3992 296.844 67.0392ZM273.644 60.6392C273.537 54.8792 271.457 50.2926 267.404 46.8792C263.35 43.3592 258.39 41.5992 252.524 41.5992C246.977 41.5992 242.284 43.3059 238.444 46.7192C234.71 50.0259 232.417 54.6659 231.564 60.6392H273.644Z" fill="white"/><path opacity="0.4" d="M168.983 23.3594C179.543 23.3594 188.077 26.7194 194.583 33.4394C201.09 40.0527 204.343 49.3327 204.343 61.2794V113.279H181.943V64.3194C181.943 57.2794 180.183 51.8927 176.663 48.1594C173.143 44.3194 168.343 42.3994 162.263 42.3994C156.077 42.3994 151.17 44.3194 147.543 48.1594C144.023 51.8927 142.263 57.2794 142.263 64.3194V113.279H119.863V24.6394H142.263V35.6794C145.25 31.8394 149.037 28.8527 153.623 26.7194C158.317 24.4794 163.437 23.3594 168.983 23.3594Z" fill="white"/><path opacity="0.4" d="M57.28 114.4C46.8267 114.4 37.2267 111.947 28.48 107.04C19.7333 102.133 12.8 95.36 7.68 86.72C2.56 77.9733 0 68.1067 0 57.12C0 46.24 2.56 36.48 7.68 27.84C12.8 19.0933 19.7333 12.2667 28.48 7.35999C37.2267 2.45333 46.8267 0 57.28 0C67.84 0 77.44 2.45333 86.08 7.35999C94.8267 12.2667 101.707 19.0933 106.72 27.84C111.84 36.48 114.4 46.24 114.4 57.12C114.4 68.1067 111.84 77.9733 106.72 86.72C101.707 95.36 94.8267 102.133 86.08 107.04C77.3333 111.947 67.7333 114.4 57.28 114.4ZM57.28 94.4C64 94.4 69.92 92.9067 75.04 89.92C80.16 86.8267 84.16 82.4533 87.04 76.8C89.92 71.1467 91.36 64.5867 91.36 57.12C91.36 49.6533 89.92 43.1467 87.04 37.6C84.16 31.9467 80.16 27.6267 75.04 24.64C69.92 21.6533 64 20.16 57.28 20.16C50.56 20.16 44.5867 21.6533 39.36 24.64C34.24 27.6267 30.24 31.9467 27.36 37.6C24.48 43.1467 23.04 49.6533 23.04 57.12C23.04 64.5867 24.48 71.1467 27.36 76.8C30.24 82.4533 34.24 86.8267 39.36 89.92C44.5867 92.9067 50.56 94.4 57.28 94.4Z" fill="white"/></svg>