<svg width="12" height="97" viewBox="0 0 12 97" fill="none" xmlns="http://www.w3.org/2000/svg"><path d="M11.376 3.84135C11.376 4.58801 11.248 5.26001 10.992 5.85735C10.7253 6.45468 10.352 6.92401 9.872 7.26534C9.392 7.60668 8.832 7.77734 8.192 7.77734L8.192 5.82535C8.672 5.78268 9.06667 5.59601 9.376 5.26534C9.68533 4.92401 9.84 4.44935 9.84 3.84135C9.84 3.21201 9.69067 2.72135 9.392 2.36935C9.08267 2.01735 8.688 1.84135 8.208 1.84135C7.83467 1.84135 7.53067 1.95334 7.296 2.17734C7.06133 2.39068 6.88 2.66268 6.752 2.99335C6.624 3.31335 6.48533 3.76134 6.336 4.33734C6.144 5.06267 5.952 5.65468 5.76 6.11334C5.55733 6.56134 5.248 6.94534 4.832 7.26534C4.416 7.58534 3.86133 7.74535 3.168 7.74535C2.528 7.74535 1.968 7.58534 1.488 7.26534C1.008 6.94534 0.640001 6.49735 0.384001 5.92135C0.128 5.34535 -1.35447e-07 4.67867 -1.68551e-07 3.92134C-2.15643e-07 2.84401 0.272 1.96401 0.816 1.28134C1.34933 0.588008 2.08533 0.204015 3.024 0.129349L3.024 2.14535C2.61867 2.17735 2.272 2.36934 1.984 2.72134C1.696 3.07334 1.552 3.53734 1.552 4.11334C1.552 4.63601 1.68533 5.06267 1.952 5.39334C2.21867 5.72401 2.60267 5.88934 3.104 5.88934C3.44533 5.88934 3.728 5.78801 3.952 5.58534C4.16533 5.37201 4.336 5.10535 4.464 4.78535C4.592 4.46535 4.73067 4.02801 4.88 3.47334C5.08267 2.73734 5.28533 2.14001 5.488 1.68134C5.69067 1.21201 6.00533 0.817345 6.432 0.497345C6.848 0.166678 7.408 0.00134245 8.112 0.00134242C8.67733 0.00134239 9.21067 0.156014 9.712 0.465347C10.2133 0.764014 10.6187 1.20668 10.928 1.79334C11.2267 2.36934 11.376 3.05201 11.376 3.84135Z" fill="#0DD5EB"/><path d="M1.61691 17.2737L4.88091 17.2737L4.88091 13.4337L6.36891 13.4337L6.36891 17.2737L9.77691 17.2737L9.77691 12.9537L11.2649 12.9537L11.2649 19.0977L0.128906 19.0977L0.128906 12.9537L1.61691 12.9537L1.61691 17.2737Z" fill="#0DD5EB"/><path d="M11.2645 26.6302L6.81653 29.1902L6.81653 30.5822L11.2645 30.5822L11.2645 32.4062L0.144531 32.4062L0.144531 28.5662C0.144531 27.7129 0.293864 26.9929 0.592531 26.4062C0.891198 25.8089 1.2912 25.3662 1.79253 25.0782C2.29386 24.7796 2.85387 24.6302 3.47253 24.6302C4.19787 24.6302 4.8592 24.8436 5.45653 25.2702C6.0432 25.6862 6.4432 26.3316 6.65653 27.2062L11.2645 24.4542L11.2645 26.6302ZM5.36053 30.5822L5.36053 28.5662C5.36053 27.8836 5.18986 27.3716 4.84853 27.0302C4.5072 26.6782 4.04853 26.5022 3.47253 26.5022C2.89653 26.5022 2.44853 26.6729 2.12853 27.0142C1.79786 27.3556 1.63253 27.8729 1.63253 28.5662L1.63253 30.5822L5.36053 30.5822Z" fill="#0DD5EB"/><path d="M0.144531 44.844L7.23253 44.844C8.0752 44.844 8.70987 44.6253 9.13653 44.188C9.5632 43.74 9.77653 43.1213 9.77653 42.332C9.77653 41.532 9.5632 40.9133 9.13653 40.476C8.70986 40.028 8.0752 39.804 7.23253 39.804L0.144531 39.804L0.144531 37.98L7.20053 37.98C8.1072 37.98 8.8752 38.1773 9.50453 38.572C10.1339 38.9666 10.6032 39.4946 10.9125 40.156C11.2219 40.8173 11.3765 41.548 11.3765 42.348C11.3765 43.148 11.2219 43.8786 10.9125 44.54C10.6032 45.1906 10.1339 45.708 9.50453 46.092C8.8752 46.476 8.1072 46.668 7.20053 46.668L0.144531 46.668L0.144531 44.844Z" fill="#0DD5EB"/><path d="M0.144531 51.7009L1.63253 51.7009L1.63253 54.6609L11.2645 54.6609L11.2645 56.4849L1.63253 56.4849L1.63253 59.4609L0.144531 59.4609L0.144531 51.7009Z" fill="#0DD5EB"/><path d="M8.99291 66.5384L8.99291 71.1944L11.2649 71.9944L11.2649 73.8984L0.128906 69.9144L0.128906 67.8024L11.2649 63.8184L11.2649 65.7384L8.99291 66.5384ZM7.50491 67.0504L2.33691 68.8584L7.50491 70.6824L7.50491 67.0504Z" fill="#0DD5EB"/><path d="M1.61691 83.008L4.88091 83.008L4.88091 79.168L6.36891 79.168L6.36891 83.008L9.77691 83.008L9.77691 78.688L11.2649 78.688L11.2649 84.832L0.128906 84.832L0.128906 78.688L1.61691 78.688L1.61691 83.008Z" fill="#0DD5EB"/><path d="M0.144531 89.7216L1.63253 89.7216L1.63253 94.4416L4.91253 94.4416L4.91253 90.7616L6.40053 90.7616L6.40053 94.4416L11.2645 94.4416L11.2645 96.2656L0.144531 96.2656L0.144531 89.7216Z" fill="#0DD5EB"/></svg>