<svg width="15" height="121" viewBox="0 0 15 121" fill="none" xmlns="http://www.w3.org/2000/svg"><path d="M14.22 4.79875C14.22 5.73208 14.06 6.57209 13.74 7.31876C13.4067 8.06542 12.94 8.65208 12.34 9.07875C11.74 9.50542 11.04 9.71875 10.24 9.71875L10.24 7.27875C10.84 7.22542 11.3333 6.99208 11.72 6.57875C12.1067 6.15208 12.3 5.55875 12.3 4.79875C12.3 4.01208 12.1133 3.39876 11.74 2.95875C11.3533 2.51876 10.86 2.29875 10.26 2.29875C9.79333 2.29875 9.41333 2.43875 9.12 2.71875C8.82667 2.98542 8.6 3.32542 8.44 3.73875C8.28 4.13875 8.10667 4.69875 7.92 5.41875C7.68 6.32542 7.44 7.06542 7.2 7.63876C6.94667 8.19876 6.56 8.67875 6.04 9.07875C5.52 9.47875 4.82667 9.67876 3.96 9.67876C3.16 9.67876 2.46 9.47875 1.86 9.07875C1.26 8.67875 0.800001 8.11875 0.480001 7.39875C0.16 6.67875 -1.69309e-07 5.84542 -2.10689e-07 4.89875C-2.69554e-07 3.55208 0.34 2.45209 1.02 1.59875C1.68667 0.732088 2.60667 0.252085 3.78 0.158752L3.78 2.67876C3.27333 2.71876 2.84 2.95875 2.48 3.39875C2.12 3.83875 1.94 4.41876 1.94 5.13876C1.94 5.79209 2.10667 6.32542 2.44 6.73875C2.77333 7.15209 3.25333 7.35876 3.88 7.35876C4.30667 7.35876 4.66 7.23209 4.94 6.97875C5.20667 6.71209 5.42 6.37875 5.58 5.97875C5.74 5.57875 5.91333 5.03209 6.1 4.33875C6.35333 3.41875 6.60667 2.67209 6.86 2.09875C7.11333 1.51209 7.50667 1.01875 8.04 0.618751C8.56 0.205418 9.26 -0.001244 10.14 -0.00124403C10.8467 -0.00124407 11.5133 0.192084 12.14 0.57875C12.7667 0.952084 13.2733 1.50542 13.66 2.23875C14.0333 2.95875 14.22 3.81208 14.22 4.79875Z" fill="#0DD5EB"/><path d="M2.01625 21.5872L6.09625 21.5872L6.09625 16.7872L7.95625 16.7872L7.95625 21.5872L12.2163 21.5872L12.2163 16.1872L14.0763 16.1872L14.0763 23.8672L0.15625 23.8672L0.15625 16.1872L2.01625 16.1872L2.01625 21.5872Z" fill="#0DD5EB"/><path d="M14.0797 33.2839L8.51969 36.4839L8.51969 38.2239L14.0797 38.2239L14.0797 40.5039L0.179688 40.5039L0.179687 35.7039C0.179687 34.6372 0.366354 33.7372 0.739687 33.0039C1.11302 32.2572 1.61302 31.7039 2.23969 31.3439C2.86635 30.9706 3.56635 30.7839 4.33969 30.7839C5.24635 30.7839 6.07302 31.0506 6.81969 31.5839C7.55302 32.1039 8.05302 32.9106 8.31969 34.0039L14.0797 30.5639L14.0797 33.2839ZM6.69969 38.2239L6.69969 35.7039C6.69969 34.8506 6.48635 34.2106 6.05969 33.7839C5.63302 33.3439 5.05969 33.1239 4.33969 33.1239C3.61969 33.1239 3.05969 33.3372 2.65969 33.7639C2.24635 34.1906 2.03969 34.8372 2.03969 35.7039L2.03969 38.2239L6.69969 38.2239Z" fill="#0DD5EB"/><path d="M0.179687 56.052L9.03969 56.052C10.093 56.052 10.8864 55.7787 11.4197 55.232C11.953 54.672 12.2197 53.8987 12.2197 52.912C12.2197 51.912 11.953 51.1387 11.4197 50.592C10.8864 50.032 10.093 49.752 9.03969 49.752L0.179687 49.752L0.179687 47.472L8.99969 47.472C10.133 47.472 11.093 47.7187 11.8797 48.212C12.6664 48.7054 13.253 49.3654 13.6397 50.192C14.0264 51.0187 14.2197 51.932 14.2197 52.932C14.2197 53.932 14.0264 54.8454 13.6397 55.672C13.253 56.4854 12.6664 57.132 11.8797 57.612C11.093 58.092 10.133 58.332 8.99969 58.332L0.179688 58.332L0.179687 56.052Z" fill="#0DD5EB"/><path d="M0.179687 64.6242L2.03969 64.6242L2.03969 68.3242L14.0797 68.3242L14.0797 70.6042L2.03969 70.6042L2.03969 74.3242L0.179688 74.3242L0.179687 64.6242Z" fill="#0DD5EB"/><path d="M11.2363 83.1672L11.2363 88.9872L14.0763 89.9872L14.0763 92.3672L0.15625 87.3872L0.15625 84.7472L14.0763 79.7672L14.0763 82.1672L11.2363 83.1672ZM9.37625 83.8072L2.91625 86.0672L9.37625 88.3472L9.37625 83.8072Z" fill="#0DD5EB"/><path d="M2.01625 103.755L6.09625 103.755L6.09625 98.9552L7.95625 98.9552L7.95625 103.755L12.2163 103.755L12.2163 98.3552L14.0763 98.3552L14.0763 106.035L0.15625 106.035L0.15625 98.3552L2.01625 98.3552L2.01625 103.755Z" fill="#0DD5EB"/><path d="M0.179687 112.148L2.03969 112.148L2.03969 118.048L6.13969 118.048L6.13969 113.448L7.99969 113.448L7.99969 118.048L14.0797 118.048L14.0797 120.328L0.179688 120.328L0.179687 112.148Z" fill="#0DD5EB"/></svg>