<svg width="163" height="196" viewBox="0 0 163 196" fill="none" xmlns="http://www.w3.org/2000/svg"><path d="M142.246 192.616V195.616H20V192.616H142.246ZM159.246 175.616V20C159.246 10.6112 151.635 3 142.246 3H20C10.6112 3 3.00001 10.6112 3 20V175.616C3 185.005 10.6112 192.616 20 192.616V195.616L19.4834 195.609C8.67646 195.335 0 186.489 0 175.616V20C1.13389e-05 8.95431 8.95431 0 20 0H142.246C153.292 0 162.246 8.95431 162.246 20V175.616C162.246 186.662 153.292 195.616 142.246 195.616V192.616C151.635 192.616 159.246 185.005 159.246 175.616Z" fill="url(#paint0_linear_13571_35789)"/><defs><linearGradient id="paint0_linear_13571_35789" x1="-1.06803e-06" y1="18.3214" x2="158.941" y2="180.534" gradientUnits="userSpaceOnUse"><stop stop-color="#96EBEB"/><stop offset="1" stop-color="#ABD9FF"/></linearGradient></defs></svg>