<svg width="282" height="340" viewBox="0 0 282 340" fill="none" xmlns="http://www.w3.org/2000/svg"><path d="M262 337V340H20V337H262ZM279 320V20C279 10.6112 271.389 3 262 3H20C10.6112 3 3 10.6112 3 20V320C3 329.389 10.6112 337 20 337V340L19.4834 339.993C8.84813 339.724 0.276492 331.152 0.00683594 320.517L0 320V20C0 8.95431 8.95431 2.2549e-07 20 0H262C273.046 0 282 8.95431 282 20V320C282 330.873 273.324 339.719 262.517 339.993L262 340V337C271.389 337 279 329.389 279 320Z" fill="url(#paint0_linear_13571_35790)"/><defs><linearGradient id="paint0_linear_13571_35790" x1="-1.65672e-06" y1="31.8444" x2="276.254" y2="313.786" gradientUnits="userSpaceOnUse"><stop stop-color="#96EBEB"/><stop offset="1" stop-color="#ABD9FF"/></linearGradient></defs></svg>