<svg width="651" height="389" viewBox="0 0 651 389" fill="none" xmlns="http://www.w3.org/2000/svg"><path d="M389 194.5C389 301.919 301.919 389 194.5 389C87.0806 389 0 301.919 0 194.5C0 87.0806 87.0806 0 194.5 0C301.919 0 389 87.0806 389 194.5Z" fill="#FFFAED" fill-opacity="0.4"/><path d="M386 194.5C386 88.7375 300.263 3 194.5 3C88.7375 3 3 88.7375 3 194.5C3 300.263 88.7375 386 194.5 386V389C87.0806 389 0 301.919 0 194.5C0 87.0806 87.0806 0 194.5 0C301.919 0 389 87.0806 389 194.5C389 301.919 301.919 389 194.5 389V386C300.263 386 386 300.263 386 194.5Z" fill="white"/><path d="M651 194.5C651 301.919 563.919 389 456.5 389C349.081 389 262 301.919 262 194.5C262 87.0806 349.081 0 456.5 0C563.919 0 651 87.0806 651 194.5Z" fill="#FFEAF9" fill-opacity="0.4"/><path d="M648 194.5C648 88.7375 562.263 3 456.5 3C350.737 3 265 88.7375 265 194.5C265 300.263 350.737 386 456.5 386V389C349.081 389 262 301.919 262 194.5C262 87.0806 349.081 0 456.5 0C563.919 0 651 87.0806 651 194.5C651 301.919 563.919 389 456.5 389V386C562.263 386 648 300.263 648 194.5Z" fill="white"/><path d="M424 194.5C424 248.9 379.9 293 325.5 293C271.1 293 227 248.9 227 194.5C227 140.1 271.1 96 325.5 96C379.9 96 424 140.1 424 194.5Z" fill="url(#paint0_linear_13461_38518)" fill-opacity="0.6"/><path d="M395.732 226.341C395.145 226.341 394.61 226.194 394.126 225.901C393.642 225.622 393.253 225.241 392.96 224.757C392.666 224.258 392.52 223.708 392.52 223.107C392.52 222.505 392.659 221.963 392.938 221.479C393.231 220.995 393.62 220.613 394.104 220.335C394.602 220.041 395.145 219.895 395.732 219.895C396.333 219.895 396.876 220.041 397.36 220.335C397.858 220.628 398.247 221.017 398.526 221.501C398.819 221.985 398.966 222.52 398.966 223.107C398.966 223.708 398.819 224.258 398.526 224.757C398.232 225.241 397.836 225.622 397.338 225.901C396.854 226.194 396.318 226.341 395.732 226.341ZM395.732 225.109C396.289 225.109 396.758 224.918 397.14 224.537C397.536 224.141 397.734 223.671 397.734 223.129C397.734 222.586 397.536 222.117 397.14 221.721C396.758 221.325 396.289 221.127 395.732 221.127C395.189 221.127 394.72 221.325 394.324 221.721C393.942 222.102 393.752 222.571 393.752 223.129C393.752 223.671 393.942 224.141 394.324 224.537C394.72 224.918 395.189 225.109 395.732 225.109Z" fill="white"/><path d="M380.311 226.65C380.047 226.107 379.688 225.498 379.233 224.824C378.793 224.134 378.302 223.43 377.759 222.712C377.217 221.978 376.667 221.267 376.109 220.578C375.552 219.888 375.024 219.272 374.525 218.73C374.041 218.172 373.631 217.732 373.293 217.41C372.78 216.926 372.523 216.5 372.523 216.134C372.538 215.752 372.78 215.356 373.249 214.946C373.616 214.623 374.049 214.212 374.547 213.714C375.046 213.215 375.567 212.665 376.109 212.064C376.652 211.462 377.18 210.846 377.693 210.216C378.221 209.585 378.691 208.976 379.101 208.39C379.527 207.788 379.857 207.246 380.091 206.762L382.599 208.456C382.277 208.896 381.837 209.438 381.279 210.084C380.722 210.729 380.121 211.404 379.475 212.108C378.83 212.797 378.207 213.457 377.605 214.088C377.019 214.704 376.513 215.217 376.087 215.628C375.721 215.965 375.735 216.324 376.131 216.706C376.454 217.028 376.85 217.461 377.319 218.004C377.789 218.532 378.287 219.126 378.815 219.786C379.358 220.431 379.893 221.084 380.421 221.744C380.949 222.404 381.426 223.027 381.851 223.614C382.291 224.186 382.636 224.662 382.885 225.044C382.636 225.132 382.343 225.271 382.005 225.462C381.668 225.652 381.345 225.85 381.037 226.056C380.729 226.276 380.487 226.474 380.311 226.65ZM384.843 214.462C384.55 214.022 384.161 213.552 383.677 213.054C383.208 212.54 382.783 212.13 382.401 211.822L383.567 210.81C383.787 210.986 384.059 211.235 384.381 211.558C384.719 211.88 385.041 212.218 385.349 212.57C385.657 212.907 385.899 213.193 386.075 213.428L384.843 214.462ZM386.779 212.724C386.471 212.284 386.075 211.814 385.591 211.316C385.107 210.817 384.675 210.421 384.293 210.128L385.459 209.116C385.679 209.292 385.951 209.541 386.273 209.864C386.611 210.172 386.933 210.494 387.241 210.832C387.564 211.169 387.813 211.455 387.989 211.69L386.779 212.724Z" fill="white"/><path d="M353.095 226.34C351.965 226.282 351.078 225.93 350.433 225.284C349.787 224.639 349.472 223.854 349.487 222.93C349.501 222.065 349.875 221.339 350.609 220.752C351.357 220.166 352.398 219.894 353.733 219.938C353.938 219.953 354.143 219.968 354.349 219.982C354.554 219.982 354.752 219.997 354.943 220.026V215.032H357.451V220.62C358.287 220.899 359.079 221.258 359.827 221.698C360.589 222.138 361.323 222.637 362.027 223.194C361.763 223.429 361.477 223.766 361.169 224.206C360.875 224.646 360.655 225.035 360.509 225.372C360.039 224.947 359.548 224.551 359.035 224.184C358.521 223.803 357.986 223.473 357.429 223.194C357.282 225.424 355.837 226.472 353.095 226.34ZM347.023 222.49C346.788 222.285 346.451 222.05 346.011 221.786C345.571 221.522 345.167 221.324 344.801 221.192C345.71 220.151 346.524 218.934 347.243 217.54C347.961 216.132 348.555 214.673 349.025 213.162C348.291 213.265 347.609 213.353 346.979 213.426C346.348 213.5 345.842 213.551 345.461 213.58L345.131 211.138C345.644 211.138 346.304 211.102 347.111 211.028C347.932 210.955 348.79 210.852 349.685 210.72C349.846 210.031 349.971 209.356 350.059 208.696C350.147 208.022 350.205 207.369 350.235 206.738L352.677 207.09C352.559 208.19 352.405 209.261 352.215 210.302C352.728 210.2 353.219 210.097 353.689 209.994C354.173 209.877 354.605 209.767 354.987 209.664L355.317 211.974C354.862 212.106 354.312 212.238 353.667 212.37C353.036 212.502 352.361 212.627 351.643 212.744C351.144 214.592 350.499 216.338 349.707 217.98C348.915 219.623 348.02 221.126 347.023 222.49ZM360.993 215.472C360.758 215.223 360.443 214.944 360.047 214.636C359.651 214.328 359.225 214.02 358.771 213.712C358.316 213.404 357.861 213.126 357.407 212.876C356.967 212.627 356.578 212.444 356.241 212.326L357.539 210.39C357.891 210.537 358.301 210.735 358.771 210.984C359.24 211.219 359.717 211.49 360.201 211.798C360.685 212.092 361.132 212.385 361.543 212.678C361.953 212.972 362.291 213.243 362.555 213.492L360.993 215.472ZM353.293 224.14C353.85 224.14 354.261 224.016 354.525 223.766C354.803 223.502 354.943 223.048 354.943 222.402V222.248C354.488 222.146 354.019 222.08 353.535 222.05C353.036 222.036 352.633 222.116 352.325 222.292C352.031 222.468 351.877 222.718 351.863 223.04C351.848 223.363 351.965 223.627 352.215 223.832C352.464 224.038 352.823 224.14 353.293 224.14Z" fill="white"/><path d="M327.926 223.923C327.882 223.659 327.78 223.351 327.618 222.999C327.457 222.647 327.274 222.302 327.068 221.965C326.878 221.627 326.687 221.356 326.496 221.151C328.418 221.004 330.075 220.74 331.468 220.359C332.876 219.963 333.954 219.435 334.702 218.775C335.465 218.115 335.824 217.301 335.78 216.333C335.692 214.265 334.167 213.297 331.204 213.429C330.75 213.443 330.192 213.502 329.532 213.605C328.872 213.693 328.154 213.81 327.376 213.957C326.614 214.103 325.844 214.279 325.066 214.485C324.304 214.675 323.585 214.881 322.91 215.101C322.236 215.306 321.664 215.511 321.194 215.717C321.194 215.702 321.128 215.555 320.996 215.277C320.879 214.983 320.74 214.653 320.578 214.287C320.432 213.905 320.3 213.575 320.182 213.297C320.065 213.003 319.999 212.849 319.984 212.835C320.439 212.747 321.026 212.629 321.744 212.483C322.463 212.321 323.248 212.153 324.098 211.977C324.964 211.801 325.829 211.639 326.694 211.493C327.56 211.331 328.374 211.199 329.136 211.097C329.914 210.979 330.574 210.913 331.116 210.899C332.803 210.825 334.189 211.009 335.274 211.449C336.36 211.874 337.174 212.497 337.716 213.319C338.274 214.14 338.574 215.108 338.618 216.223C338.662 217.411 338.428 218.445 337.914 219.325C337.416 220.19 336.69 220.931 335.736 221.547C334.783 222.148 333.639 222.647 332.304 223.043C330.984 223.424 329.525 223.717 327.926 223.923Z" fill="white"/><path d="M307.073 226.167C305.871 226.167 304.785 226.049 303.817 225.815C302.849 225.58 302.087 225.206 301.529 224.693C300.972 224.165 300.693 223.475 300.693 222.625C300.693 221.921 300.906 221.283 301.331 220.711C301.757 220.124 302.343 219.596 303.091 219.127C303.839 218.643 304.69 218.203 305.643 217.807V217.631C305.643 217.117 305.511 216.743 305.247 216.509C304.998 216.259 304.675 216.12 304.279 216.091C303.605 216.047 302.959 216.142 302.343 216.377C301.727 216.611 301.119 217.037 300.517 217.653C300.341 217.829 300.114 218.056 299.835 218.335C299.557 218.599 299.278 218.863 298.999 219.127C298.721 219.391 298.479 219.611 298.273 219.787L296.359 217.895C297.386 217.22 298.354 216.369 299.263 215.343C300.173 214.316 300.943 213.223 301.573 212.065C300.752 212.094 300.004 212.123 299.329 212.153C298.655 212.167 298.149 212.167 297.811 212.153L297.723 209.623C298.222 209.667 298.911 209.689 299.791 209.689C300.686 209.689 301.654 209.667 302.695 209.623C303.033 208.655 303.223 207.745 303.267 206.895L305.885 207.027C305.841 207.804 305.695 208.611 305.445 209.447C306.531 209.359 307.535 209.263 308.459 209.161C309.398 209.043 310.117 208.911 310.615 208.765L310.769 211.207C310.359 211.28 309.823 211.361 309.163 211.449C308.503 211.522 307.77 211.595 306.963 211.669C306.171 211.742 305.357 211.808 304.521 211.867C304.331 212.277 304.111 212.695 303.861 213.121C303.627 213.531 303.377 213.927 303.113 214.309C303.7 214.074 304.294 213.957 304.895 213.957C305.761 213.957 306.487 214.184 307.073 214.639C307.675 215.093 308.049 215.841 308.195 216.883C309.017 216.604 309.853 216.355 310.703 216.135C311.569 215.9 312.405 215.687 313.211 215.497L313.959 217.917C312.933 218.063 311.935 218.247 310.967 218.467C309.999 218.672 309.097 218.907 308.261 219.171V222.097H305.665V220.161C304.932 220.513 304.345 220.879 303.905 221.261C303.465 221.627 303.245 221.979 303.245 222.317C303.245 222.815 303.546 223.167 304.147 223.373C304.749 223.563 305.665 223.659 306.897 223.659C307.396 223.659 307.953 223.629 308.569 223.571C309.2 223.497 309.823 223.409 310.439 223.307C311.07 223.189 311.62 223.065 312.089 222.933C312.06 223.123 312.031 223.402 312.001 223.769C311.987 224.121 311.979 224.473 311.979 224.825C311.979 225.177 311.987 225.441 312.001 225.617C311.283 225.793 310.476 225.925 309.581 226.013C308.687 226.115 307.851 226.167 307.073 226.167Z" fill="white"/><path d="M280.673 223.176V211.846H282.961C282.99 211.684 283.02 211.494 283.049 211.274C283.093 211.054 283.13 210.819 283.159 210.57H277.417V208.348H283.511L283.819 206.434H286.503C286.488 206.492 286.452 206.705 286.393 207.072C286.349 207.424 286.29 207.849 286.217 208.348H291.211V210.57H285.865C285.821 210.819 285.784 211.054 285.755 211.274C285.726 211.494 285.696 211.684 285.667 211.846H290.001V223.176H280.673ZM273.413 226.608V215.146C273.208 215.483 272.995 215.806 272.775 216.114C272.57 216.407 272.364 216.678 272.159 216.928C272.042 216.752 271.866 216.561 271.631 216.356C271.396 216.136 271.154 215.93 270.905 215.74C270.67 215.534 270.465 215.38 270.289 215.278C270.758 214.735 271.213 214.09 271.653 213.342C272.108 212.594 272.526 211.816 272.907 211.01C273.303 210.188 273.648 209.389 273.941 208.612C274.234 207.82 274.454 207.108 274.601 206.478L277.021 207.05C276.889 207.563 276.72 208.12 276.515 208.722C276.31 209.308 276.068 209.917 275.789 210.548V226.608H273.413ZM277.109 226.212V213.012H279.485V224.078H291.343V226.212H277.109ZM283.115 221.086H287.537V219.898H283.115V221.086ZM283.115 215.08H287.537V213.936H283.115V215.08ZM283.115 218.05H287.537V216.928H283.115V218.05Z" fill="white"/><path d="M249.214 226.517V215.319C249.009 215.641 248.803 215.949 248.598 216.243C248.407 216.521 248.209 216.778 248.004 217.013C247.887 216.837 247.703 216.646 247.454 216.44C247.219 216.22 246.977 216.015 246.728 215.825C246.479 215.619 246.266 215.465 246.09 215.362C246.53 214.834 246.97 214.197 247.41 213.449C247.865 212.701 248.29 211.916 248.686 211.095C249.082 210.273 249.427 209.474 249.72 208.696C250.028 207.904 250.255 207.193 250.402 206.562L252.866 207.134C252.822 207.354 252.756 207.604 252.668 207.882H266.88V210.368H262.392V213.404H266.198V225.879H252.998V213.404H256.804V210.368H252.624V207.993C252.507 208.403 252.367 208.829 252.206 209.269C252.045 209.709 251.861 210.163 251.656 210.632V226.517H249.214ZM255.352 223.305H256.804V215.957H255.352V223.305ZM258.872 223.305H260.324V215.957H258.872V223.305ZM262.392 223.305H263.844V215.957H262.392V223.305ZM258.872 213.404H260.324V210.368H258.872V213.404Z" fill="white"/><path d="M396.59 194.277C396.311 193.807 395.937 193.301 395.468 192.759C395.013 192.216 394.529 191.703 394.016 191.219C393.517 190.72 393.041 190.309 392.586 189.987L394.258 188.469C394.595 188.689 394.962 188.975 395.358 189.327C395.754 189.664 396.157 190.031 396.568 190.427C396.979 190.808 397.353 191.182 397.69 191.549C398.042 191.915 398.328 192.238 398.548 192.517L396.59 194.277Z" fill="white"/><path d="M381.3 194.253C379.511 194.341 377.942 194.253 376.592 193.989C375.243 193.74 374.194 193.27 373.446 192.581C372.713 191.877 372.346 190.916 372.346 189.699C372.346 188.995 372.537 188.379 372.918 187.851C373.3 187.308 373.82 186.868 374.48 186.531C375.14 186.194 375.896 185.966 376.746 185.849C377.612 185.732 378.521 185.732 379.474 185.849C379.24 185.541 379.012 185.218 378.792 184.881C378.572 184.544 378.36 184.199 378.154 183.847C376.776 184.082 375.426 184.272 374.106 184.419C372.801 184.551 371.679 184.61 370.74 184.595L370.234 182.263C371.056 182.292 372.068 182.256 373.27 182.153C374.473 182.036 375.712 181.874 376.988 181.669C376.68 181.038 376.402 180.415 376.152 179.799C375.272 179.916 374.414 180.012 373.578 180.085C372.757 180.158 372.038 180.202 371.422 180.217L370.916 177.929C371.518 177.944 372.2 177.929 372.962 177.885C373.74 177.826 374.532 177.746 375.338 177.643C375.016 176.69 374.796 175.868 374.678 175.179L377.274 174.871C377.348 175.531 377.538 176.33 377.846 177.269C378.668 177.122 379.445 176.961 380.178 176.785C380.926 176.594 381.55 176.404 382.048 176.213L382.708 178.457C382.224 178.633 381.63 178.802 380.926 178.963C380.222 179.124 379.467 179.278 378.66 179.425C378.778 179.718 378.902 180.019 379.034 180.327C379.181 180.62 379.328 180.914 379.474 181.207C380.545 180.987 381.52 180.752 382.4 180.503C383.295 180.239 383.999 179.975 384.512 179.711L385.37 181.889C384.828 182.153 384.146 182.41 383.324 182.659C382.518 182.908 381.638 183.136 380.684 183.341C381.154 184.104 381.645 184.815 382.158 185.475C382.686 186.12 383.222 186.663 383.764 187.103L382.136 188.841C381.3 188.372 380.464 188.071 379.628 187.939C378.807 187.792 378.052 187.77 377.362 187.873C376.673 187.976 376.116 188.174 375.69 188.467C375.28 188.76 375.074 189.112 375.074 189.523C375.074 190.198 375.382 190.704 375.998 191.041C376.629 191.378 377.48 191.584 378.55 191.657C379.621 191.73 380.831 191.723 382.18 191.635C382.034 191.855 381.894 192.134 381.762 192.471C381.645 192.794 381.542 193.116 381.454 193.439C381.366 193.762 381.315 194.033 381.3 194.253Z" fill="white"/><path d="M350.764 194.538V191.238C350.265 191.707 349.752 192.147 349.224 192.558C348.696 192.969 348.153 193.335 347.596 193.658C347.449 193.438 347.244 193.174 346.98 192.866C346.716 192.543 346.459 192.279 346.21 192.074C346.063 192.485 345.895 192.881 345.704 193.262C345.528 193.643 345.323 194.017 345.088 194.384C344.795 194.193 344.428 193.995 343.988 193.79C343.548 193.585 343.189 193.445 342.91 193.372C343.658 192.243 344.201 190.82 344.538 189.104C344.875 187.373 345.044 185.357 345.044 183.054V176.3H352.898V174.496H355.714V176.3H363.524V178.39H360.026V179.622H363.238V181.426H360.708C361.177 181.837 361.705 182.247 362.292 182.658C362.893 183.069 363.429 183.399 363.898 183.648C363.766 183.751 363.612 183.905 363.436 184.11C363.26 184.315 363.091 184.521 362.93 184.726C362.783 184.917 362.673 185.071 362.6 185.188C362.175 184.939 361.735 184.638 361.28 184.286C360.84 183.919 360.422 183.531 360.026 183.12V185.452H357.958V183.252C357.591 183.663 357.203 184.059 356.792 184.44C356.396 184.821 356.022 185.144 355.67 185.408C355.523 185.203 355.303 184.961 355.01 184.682C354.731 184.403 354.497 184.198 354.306 184.066C354.775 183.773 355.289 183.369 355.846 182.856C356.418 182.343 356.895 181.866 357.276 181.426H355.538V179.622H357.958V178.39H352.744V179.622H355.01V181.426H352.986C353.323 181.69 353.683 181.961 354.064 182.24C354.46 182.504 354.805 182.717 355.098 182.878C354.995 182.981 354.863 183.127 354.702 183.318C354.555 183.509 354.409 183.699 354.262 183.89C354.115 184.066 354.013 184.191 353.954 184.264C353.587 184.015 353.184 183.692 352.744 183.296V185.452H350.676V183.054C350.309 183.465 349.913 183.875 349.488 184.286C349.063 184.697 348.667 185.034 348.3 185.298C348.197 185.166 348.058 185.012 347.882 184.836C347.721 184.66 347.559 184.499 347.398 184.352C347.369 185.731 347.273 187.043 347.112 188.29C346.965 189.522 346.709 190.673 346.342 191.744C347.178 191.275 348.007 190.71 348.828 190.05C349.649 189.375 350.331 188.701 350.874 188.026H347.904V185.936H363.37V188.026H353.47C353.279 188.334 353.059 188.642 352.81 188.95H361.852V194.538H350.764ZM353.272 192.558H359.344V190.952H353.272V192.558ZM347.398 183.648C347.823 183.355 348.249 183.003 348.674 182.592C349.114 182.181 349.495 181.793 349.818 181.426H347.926V179.622H350.676V178.39H347.42V182.922C347.42 183.039 347.413 183.164 347.398 183.296C347.398 183.413 347.398 183.531 347.398 183.648Z" fill="white"/><path d="M331.273 194.167C330.07 194.167 328.985 194.049 328.017 193.815C327.049 193.58 326.286 193.206 325.729 192.693C325.171 192.165 324.893 191.475 324.893 190.625C324.893 189.921 325.105 189.283 325.531 188.711C325.956 188.124 326.543 187.596 327.291 187.127C328.039 186.643 328.889 186.203 329.843 185.807V185.631C329.843 185.117 329.711 184.743 329.447 184.509C329.197 184.259 328.875 184.12 328.479 184.091C327.804 184.047 327.159 184.142 326.543 184.377C325.927 184.611 325.318 185.037 324.717 185.653C324.541 185.829 324.313 186.056 324.035 186.335C323.756 186.599 323.477 186.863 323.199 187.127C322.92 187.391 322.678 187.611 322.473 187.787L320.559 185.895C321.585 185.22 322.553 184.369 323.463 183.343C324.372 182.316 325.142 181.223 325.773 180.065C324.951 180.094 324.203 180.123 323.529 180.153C322.854 180.167 322.348 180.167 322.011 180.153L321.923 177.623C322.421 177.667 323.111 177.689 323.991 177.689C324.885 177.689 325.853 177.667 326.895 177.623C327.232 176.655 327.423 175.745 327.467 174.895L330.085 175.027C330.041 175.804 329.894 176.611 329.645 177.447C330.73 177.359 331.735 177.263 332.659 177.161C333.597 177.043 334.316 176.911 334.815 176.765L334.969 179.207C334.558 179.28 334.023 179.361 333.363 179.449C332.703 179.522 331.969 179.595 331.163 179.669C330.371 179.742 329.557 179.808 328.721 179.867C328.53 180.277 328.31 180.695 328.061 181.121C327.826 181.531 327.577 181.927 327.313 182.309C327.899 182.074 328.493 181.957 329.095 181.957C329.96 181.957 330.686 182.184 331.273 182.639C331.874 183.093 332.248 183.841 332.395 184.883C333.216 184.604 334.052 184.355 334.903 184.135C335.768 183.9 336.604 183.687 337.411 183.497L338.159 185.917C337.132 186.063 336.135 186.247 335.167 186.467C334.199 186.672 333.297 186.907 332.461 187.171V190.097H329.865V188.161C329.131 188.513 328.545 188.879 328.105 189.261C327.665 189.627 327.445 189.979 327.445 190.317C327.445 190.815 327.745 191.167 328.347 191.373C328.948 191.563 329.865 191.659 331.097 191.659C331.595 191.659 332.153 191.629 332.769 191.571C333.399 191.497 334.023 191.409 334.639 191.307C335.269 191.189 335.819 191.065 336.289 190.933C336.259 191.123 336.23 191.402 336.201 191.769C336.186 192.121 336.179 192.473 336.179 192.825C336.179 193.177 336.186 193.441 336.201 193.617C335.482 193.793 334.675 193.925 333.781 194.013C332.886 194.115 332.05 194.167 331.273 194.167Z" fill="white"/><path d="M296.336 193.726V185.828H299.042V191.152H304.014V184.574H297.04V176.478H299.856V182.044H304.014V174.828H306.764V182.044H310.878V176.478H313.716V184.574H306.764V191.152H311.736V185.828H314.464V193.726H296.336Z" fill="white"/><path d="M279.353 190.777C278.62 191.188 277.931 191.357 277.285 191.283C276.64 191.195 276.068 190.777 275.569 190.029C275.115 189.325 274.697 188.497 274.315 187.543C273.934 186.59 273.604 185.578 273.325 184.507C273.061 183.437 272.856 182.366 272.709 181.295C272.577 180.225 272.519 179.22 272.533 178.281L275.217 178.303C275.173 179.022 275.195 179.807 275.283 180.657C275.371 181.508 275.511 182.366 275.701 183.231C275.892 184.097 276.119 184.903 276.383 185.651C276.647 186.385 276.933 187.001 277.241 187.499C277.447 187.851 277.667 188.057 277.901 188.115C278.151 188.159 278.415 188.093 278.693 187.917C279.045 187.683 279.412 187.36 279.793 186.949C280.189 186.539 280.519 186.143 280.783 185.761C280.857 185.981 280.974 186.231 281.135 186.509C281.311 186.788 281.495 187.059 281.685 187.323C281.891 187.587 282.074 187.8 282.235 187.961C281.839 188.548 281.385 189.091 280.871 189.589C280.373 190.088 279.867 190.484 279.353 190.777ZM287.669 186.663C287.523 186.238 287.295 185.71 286.987 185.079C286.679 184.449 286.327 183.796 285.931 183.121C285.535 182.432 285.139 181.801 284.743 181.229C284.347 180.643 283.981 180.188 283.643 179.865L285.755 178.523C286.122 178.89 286.525 179.381 286.965 179.997C287.42 180.613 287.86 181.273 288.285 181.977C288.725 182.667 289.114 183.341 289.451 184.001C289.789 184.647 290.031 185.197 290.177 185.651C289.723 185.739 289.261 185.879 288.791 186.069C288.337 186.26 287.963 186.458 287.669 186.663Z" fill="white"/><path d="M258.694 190.359C258.474 190.007 258.173 189.618 257.792 189.193C257.425 188.753 257.051 188.335 256.67 187.939C256.289 187.543 255.951 187.242 255.658 187.037L257.176 185.783H249.234V175.223H264.722V185.783H257.638C257.931 186.003 258.261 186.289 258.628 186.641C259.009 186.993 259.376 187.359 259.728 187.741C260.08 188.107 260.359 188.437 260.564 188.731C260.388 188.833 260.168 188.987 259.904 189.193C259.655 189.398 259.42 189.611 259.2 189.831C258.98 190.036 258.811 190.212 258.694 190.359ZM255.086 194.473C254.221 194.473 253.583 194.326 253.172 194.033C252.776 193.754 252.578 193.299 252.578 192.669V187.037H255.152V191.547C255.152 191.84 255.218 192.038 255.35 192.141C255.482 192.229 255.731 192.273 256.098 192.273H258.914C259.266 192.273 259.545 192.221 259.75 192.119C259.97 192.016 260.153 191.811 260.3 191.503C260.447 191.195 260.579 190.747 260.696 190.161C260.945 190.351 261.305 190.542 261.774 190.733C262.258 190.909 262.661 191.041 262.984 191.129C262.764 192.287 262.412 193.131 261.928 193.659C261.459 194.201 260.806 194.473 259.97 194.473H255.086ZM248.53 193.879C248.383 193.732 248.178 193.571 247.914 193.395C247.665 193.219 247.401 193.05 247.122 192.889C246.858 192.713 246.623 192.588 246.418 192.515C246.653 192.251 246.909 191.913 247.188 191.503C247.467 191.092 247.738 190.659 248.002 190.205C248.281 189.735 248.523 189.281 248.728 188.841C248.933 188.386 249.087 187.99 249.19 187.653L251.61 188.643C251.493 189.009 251.317 189.427 251.082 189.897C250.847 190.366 250.583 190.85 250.29 191.349C249.997 191.847 249.696 192.317 249.388 192.757C249.08 193.197 248.794 193.571 248.53 193.879ZM265.536 193.197C265.36 192.874 265.118 192.507 264.81 192.097C264.517 191.686 264.187 191.268 263.82 190.843C263.468 190.417 263.109 190.021 262.742 189.655C262.375 189.273 262.038 188.965 261.73 188.731L263.578 187.235C263.989 187.543 264.443 187.953 264.942 188.467C265.455 188.98 265.939 189.508 266.394 190.051C266.849 190.579 267.201 191.055 267.45 191.481C267.289 191.569 267.076 191.723 266.812 191.943C266.563 192.163 266.313 192.39 266.064 192.625C265.829 192.859 265.653 193.05 265.536 193.197ZM258.276 183.759H262.126V181.537H258.276V183.759ZM258.276 179.513H262.126V177.291H258.276V179.513ZM252.006 183.759H255.702V181.537H252.006V183.759ZM252.006 179.513H255.702V177.291H252.006V179.513Z" fill="white"/><path d="M133.008 226.736C132.933 226.565 132.821 226.373 132.672 226.16C132.533 225.946 132.378 225.738 132.208 225.536C132.048 225.322 131.898 225.157 131.76 225.04C133.05 224.549 134.25 223.925 135.36 223.168C136.469 222.4 137.456 221.53 138.32 220.56C139.194 219.589 139.904 218.554 140.448 217.456C140 217.477 139.52 217.504 139.008 217.536C138.506 217.557 138.042 217.578 137.616 217.6C137.2 217.61 136.89 217.616 136.688 217.616C135.642 219.002 134.41 220.176 132.992 221.136C132.896 221.008 132.762 220.858 132.592 220.688C132.421 220.517 132.24 220.352 132.048 220.192C131.856 220.021 131.68 219.888 131.52 219.792C132.309 219.333 133.056 218.757 133.76 218.064C134.474 217.37 135.104 216.624 135.648 215.824C136.192 215.013 136.608 214.213 136.896 213.424L138.736 214.08C138.49 214.677 138.208 215.258 137.888 215.824C138.229 215.813 138.597 215.802 138.992 215.792C139.397 215.781 139.786 215.77 140.16 215.76C140.544 215.738 140.88 215.717 141.168 215.696C141.466 215.674 141.685 215.653 141.824 215.632L143.04 216.304C142.528 217.818 141.781 219.242 140.8 220.576C139.829 221.909 138.677 223.104 137.344 224.16C136.021 225.205 134.576 226.064 133.008 226.736ZM144.848 214.8C144.613 214.48 144.314 214.144 143.952 213.792C143.589 213.429 143.269 213.146 142.992 212.944L143.808 212.176C143.978 212.293 144.186 212.469 144.432 212.704C144.677 212.928 144.917 213.157 145.152 213.392C145.386 213.626 145.568 213.829 145.696 214L144.848 214.8ZM143.488 216.096C143.338 215.882 143.152 215.664 142.928 215.44C142.714 215.205 142.496 214.981 142.272 214.768C142.048 214.554 141.84 214.378 141.648 214.24L142.464 213.472C142.634 213.589 142.837 213.765 143.072 214C143.317 214.224 143.557 214.458 143.792 214.704C144.026 214.938 144.208 215.141 144.336 215.312L143.488 216.096Z" fill="#BCCF8D"/><path d="M115.649 225.552L114.561 223.584C115.318 223.424 116.113 223.163 116.945 222.8C117.787 222.427 118.63 221.995 119.473 221.504C120.315 221.003 121.115 220.469 121.873 219.904C122.63 219.328 123.313 218.747 123.921 218.16C124.539 217.573 125.041 217.013 125.425 216.48C125.467 216.661 125.537 216.885 125.633 217.152C125.739 217.419 125.851 217.68 125.969 217.936C126.086 218.181 126.187 218.373 126.273 218.512C125.75 219.184 125.094 219.867 124.305 220.56C123.526 221.243 122.662 221.904 121.713 222.544C120.763 223.173 119.771 223.749 118.737 224.272C117.702 224.795 116.673 225.221 115.649 225.552ZM117.361 218.496C117.222 218.347 117.025 218.171 116.769 217.968C116.523 217.765 116.246 217.552 115.937 217.328C115.638 217.104 115.345 216.901 115.057 216.72C114.769 216.528 114.518 216.384 114.305 216.288L115.585 214.672C115.798 214.789 116.049 214.939 116.337 215.12C116.625 215.301 116.918 215.499 117.217 215.712C117.526 215.925 117.814 216.139 118.081 216.352C118.347 216.555 118.561 216.736 118.721 216.896L117.361 218.496Z" fill="#BCCF8D"/><path d="M102.16 226.43V221.326C100.934 222.148 99.707 222.825 98.4803 223.358C98.363 223.134 98.2136 222.889 98.0323 222.622C97.851 222.345 97.6696 222.137 97.4883 221.998C98.1923 221.753 98.9123 221.433 99.6483 221.038C100.384 220.644 101.094 220.201 101.776 219.71C102.47 219.22 103.104 218.708 103.68 218.174C104.256 217.63 104.731 217.097 105.104 216.574L106.384 217.55C106.032 217.998 105.632 218.446 105.184 218.894C104.736 219.332 104.262 219.753 103.76 220.158V226.43H102.16Z" fill="#BCCF8D"/><path d="M81.0881 226.719C81.0134 226.559 80.9014 226.372 80.7521 226.159C80.6028 225.945 80.4428 225.743 80.2721 225.551C80.1014 225.348 79.9468 225.188 79.8081 225.071C81.2588 224.527 82.3094 223.828 82.9601 222.975C83.6214 222.111 83.9948 221.012 84.0801 219.679C83.2374 219.689 82.4268 219.7 81.6481 219.711C80.8801 219.721 80.2241 219.737 79.6801 219.759C79.1361 219.769 78.7734 219.78 78.5921 219.791L78.4961 217.919C78.6241 217.929 78.9281 217.935 79.4081 217.935C79.8881 217.935 80.4801 217.935 81.1841 217.935C81.8881 217.924 82.6508 217.913 83.4721 217.903C84.3041 217.892 85.1308 217.881 85.9521 217.871C86.7734 217.86 87.5361 217.849 88.2401 217.839C88.9548 217.817 89.5521 217.801 90.0321 217.791C90.5228 217.769 90.8321 217.753 90.9601 217.743L90.9761 219.631C90.8374 219.631 90.5601 219.631 90.1441 219.631C89.7281 219.631 89.2161 219.631 88.6081 219.631C88.0001 219.631 87.3388 219.636 86.6241 219.647C86.5388 219.647 86.4481 219.647 86.3521 219.647C86.2668 219.647 86.1761 219.647 86.0801 219.647C85.9841 221.385 85.5254 222.82 84.7041 223.951C83.8934 225.071 82.6881 225.993 81.0881 226.719ZM80.7841 215.935L80.6721 214.047C80.8001 214.047 81.0668 214.047 81.4721 214.047C81.8774 214.047 82.3628 214.041 82.9281 214.031C83.4934 214.02 84.0854 214.009 84.7041 213.999C85.3228 213.988 85.9148 213.977 86.4801 213.967C87.0454 213.945 87.5254 213.929 87.9201 213.919C88.3254 213.908 88.5868 213.897 88.7041 213.887L88.7361 215.759C88.5974 215.748 88.3254 215.748 87.9201 215.759C87.5254 215.759 87.0508 215.764 86.4961 215.775C85.9521 215.785 85.3761 215.796 84.7681 215.807C84.1708 215.817 83.5948 215.833 83.0401 215.855C82.4854 215.865 82.0054 215.881 81.6001 215.903C81.2054 215.913 80.9334 215.924 80.7841 215.935Z" fill="#BCCF8D"/><path d="M64.9906 226.785C64.8306 226.539 64.6066 226.262 64.3186 225.953C64.0306 225.643 63.7639 225.408 63.5186 225.248C64.8519 224.544 65.8653 223.665 66.5586 222.609C67.2519 221.542 67.6519 220.299 67.7586 218.88H64.6866C64.2919 219.371 63.8759 219.825 63.4386 220.241C63.0013 220.657 62.5373 221.035 62.0466 221.377C61.8759 221.174 61.6466 220.934 61.3586 220.657C61.0706 220.379 60.8039 220.171 60.5586 220.033C61.3479 219.521 62.0573 218.902 62.6866 218.177C63.3159 217.451 63.8546 216.667 64.3026 215.825C64.7613 214.982 65.1026 214.145 65.3266 213.312L67.2626 213.889C67.1026 214.433 66.9106 214.966 66.6866 215.489C66.4733 216.001 66.2279 216.502 65.9506 216.993H73.6146V218.88H69.7586C69.6519 220.619 69.1986 222.139 68.3986 223.441C67.6093 224.742 66.4733 225.857 64.9906 226.785Z" fill="#BCCF8D"/><path d="M43.0703 220.961C43.081 220.811 43.0863 220.609 43.0863 220.353C43.0863 220.097 43.0863 219.841 43.0863 219.585C43.0863 219.329 43.081 219.126 43.0703 218.977C43.273 218.987 43.6303 218.998 44.1423 219.009C44.665 219.019 45.2836 219.03 45.9983 219.041C46.7236 219.051 47.497 219.062 48.3183 219.073C49.1396 219.073 49.961 219.073 50.7823 219.073C51.6036 219.073 52.377 219.067 53.1023 219.057C53.8383 219.046 54.473 219.035 55.0063 219.025C55.5396 219.014 55.9183 218.998 56.1423 218.977C56.1316 219.115 56.121 219.313 56.1103 219.569C56.1103 219.825 56.1103 220.086 56.1103 220.353C56.121 220.609 56.1263 220.806 56.1263 220.945C55.8596 220.934 55.465 220.923 54.9423 220.913C54.4303 220.902 53.8276 220.891 53.1343 220.881C52.4516 220.87 51.721 220.865 50.9423 220.865C50.1743 220.865 49.3956 220.865 48.6063 220.865C47.817 220.865 47.065 220.87 46.3503 220.881C45.6356 220.891 44.9903 220.902 44.4143 220.913C43.849 220.923 43.401 220.939 43.0703 220.961Z" fill="#BCCF8D"/><path d="M33.5524 225.104C33.2858 224.731 32.9658 224.336 32.5924 223.92C32.2191 223.494 31.8191 223.078 31.3924 222.672C30.9658 222.267 30.5338 221.894 30.0964 221.552C29.6591 221.211 29.2484 220.923 28.8644 220.688L30.2244 219.392C30.5338 219.584 30.8591 219.803 31.2004 220.048C31.5418 220.283 31.8778 220.534 32.2084 220.8C32.5284 220.523 32.8751 220.208 33.2484 219.856C33.6324 219.504 34.0111 219.142 34.3844 218.768C34.7578 218.395 35.1044 218.038 35.4244 217.696C34.8164 217.718 34.1338 217.744 33.3764 217.776C32.6298 217.798 31.8618 217.824 31.0724 217.856C30.2938 217.878 29.5471 217.904 28.8324 217.936C28.1284 217.968 27.5044 218 26.9604 218.032C26.4271 218.054 26.0378 218.075 25.7924 218.096L25.6484 216.08C26.0111 216.102 26.5018 216.112 27.1204 216.112C27.7498 216.112 28.4484 216.112 29.2164 216.112C29.9951 216.102 30.7898 216.086 31.6004 216.064C32.4218 216.043 33.2058 216.022 33.9524 216C34.7098 215.979 35.3818 215.952 35.9684 215.92C36.5658 215.888 37.0191 215.856 37.3284 215.824L38.4964 216.896C38.2404 217.248 37.9204 217.643 37.5364 218.08C37.1631 218.518 36.7524 218.971 36.3044 219.44C35.8671 219.91 35.4138 220.368 34.9444 220.816C34.4858 221.264 34.0484 221.67 33.6324 222.032C33.9204 222.31 34.1924 222.587 34.4484 222.864C34.7151 223.142 34.9498 223.414 35.1524 223.68C35.0138 223.776 34.8431 223.91 34.6404 224.08C34.4378 224.251 34.2351 224.427 34.0324 224.608C33.8404 224.79 33.6804 224.955 33.5524 225.104Z" fill="#BCCF8D"/><path d="M183.235 187.02C184.415 187.02 185.445 187.26 186.325 187.74C187.225 188.22 187.915 188.85 188.395 189.63V187.26H193.525V203.97C193.525 205.51 193.215 206.9 192.595 208.14C191.995 209.4 191.065 210.4 189.805 211.14C188.565 211.88 187.015 212.25 185.155 212.25C182.675 212.25 180.665 211.66 179.125 210.48C177.585 209.32 176.705 207.74 176.485 205.74H181.555C181.715 206.38 182.095 206.88 182.695 207.24C183.295 207.62 184.035 207.81 184.915 207.81C185.975 207.81 186.815 207.5 187.435 206.88C188.075 206.28 188.395 205.31 188.395 203.97V201.6C187.895 202.38 187.205 203.02 186.325 203.52C185.445 204 184.415 204.24 183.235 204.24C181.855 204.24 180.605 203.89 179.485 203.19C178.365 202.47 177.475 201.46 176.815 200.16C176.175 198.84 175.855 197.32 175.855 195.6C175.855 193.88 176.175 192.37 176.815 191.07C177.475 189.77 178.365 188.77 179.485 188.07C180.605 187.37 181.855 187.02 183.235 187.02ZM188.395 195.63C188.395 194.35 188.035 193.34 187.315 192.6C186.615 191.86 185.755 191.49 184.735 191.49C183.715 191.49 182.845 191.86 182.125 192.6C181.425 193.32 181.075 194.32 181.075 195.6C181.075 196.88 181.425 197.9 182.125 198.66C182.845 199.4 183.715 199.77 184.735 199.77C185.755 199.77 186.615 199.4 187.315 198.66C188.035 197.92 188.395 196.91 188.395 195.63Z" fill="#BCCF8D"/><path d="M165.36 187.078C167.32 187.078 168.88 187.718 170.04 188.998C171.22 190.258 171.81 191.998 171.81 194.218V203.998H166.71V194.908C166.71 193.788 166.42 192.918 165.84 192.298C165.26 191.678 164.48 191.368 163.5 191.368C162.52 191.368 161.74 191.678 161.16 192.298C160.58 192.918 160.29 193.788 160.29 194.908V203.998H155.16V187.258H160.29V189.478C160.81 188.738 161.51 188.158 162.39 187.738C163.27 187.298 164.26 187.078 165.36 187.078Z" fill="#BCCF8D"/><path d="M147.392 185.519C146.492 185.519 145.752 185.259 145.172 184.739C144.612 184.199 144.332 183.539 144.332 182.759C144.332 181.959 144.612 181.299 145.172 180.779C145.752 180.239 146.492 179.969 147.392 179.969C148.272 179.969 148.992 180.239 149.552 180.779C150.132 181.299 150.422 181.959 150.422 182.759C150.422 183.539 150.132 184.199 149.552 184.739C148.992 185.259 148.272 185.519 147.392 185.519ZM149.942 187.259V203.999H144.812V187.259H149.942Z" fill="#BCCF8D"/><path d="M140.455 199.65V204H137.845C135.985 204 134.535 203.55 133.495 202.65C132.455 201.73 131.935 200.24 131.935 198.18V191.52H129.895V187.26H131.935V183.18H137.065V187.26H140.425V191.52H137.065V198.24C137.065 198.74 137.185 199.1 137.425 199.32C137.665 199.54 138.065 199.65 138.625 199.65H140.455Z" fill="#BCCF8D"/><path d="M126.917 195.36C126.917 195.84 126.887 196.34 126.827 196.86H115.217C115.297 197.9 115.627 198.7 116.207 199.26C116.807 199.8 117.537 200.07 118.397 200.07C119.677 200.07 120.567 199.53 121.067 198.45H126.527C126.247 199.55 125.737 200.54 124.997 201.42C124.277 202.3 123.367 202.99 122.267 203.49C121.167 203.99 119.937 204.24 118.577 204.24C116.937 204.24 115.477 203.89 114.197 203.19C112.917 202.49 111.917 201.49 111.197 200.19C110.477 198.89 110.117 197.37 110.117 195.63C110.117 193.89 110.467 192.37 111.167 191.07C111.887 189.77 112.887 188.77 114.167 188.07C115.447 187.37 116.917 187.02 118.577 187.02C120.197 187.02 121.637 187.36 122.897 188.04C124.157 188.72 125.137 189.69 125.837 190.95C126.557 192.21 126.917 193.68 126.917 195.36ZM121.667 194.01C121.667 193.13 121.367 192.43 120.767 191.91C120.167 191.39 119.417 191.13 118.517 191.13C117.657 191.13 116.927 191.38 116.327 191.88C115.747 192.38 115.387 193.09 115.247 194.01H121.667Z" fill="#BCCF8D"/><path d="M101.324 204.001L96.2237 196.981V204.001H91.0938V181.801H96.2237V194.071L101.294 187.261H107.624L100.664 195.661L107.684 204.001H101.324Z" fill="#BCCF8D"/><path d="M81.8917 190.048C82.4917 189.128 83.2417 188.408 84.1417 187.888C85.0417 187.348 86.0417 187.078 87.1417 187.078V192.508H85.7317C84.4517 192.508 83.4917 192.788 82.8517 193.348C82.2117 193.888 81.8917 194.848 81.8917 196.228V203.998H76.7617V187.258H81.8917V190.048Z" fill="#BCCF8D"/><path d="M53.8789 195.6C53.8789 193.88 54.1989 192.37 54.8389 191.07C55.4989 189.77 56.3889 188.77 57.5089 188.07C58.6289 187.37 59.8789 187.02 61.2589 187.02C62.4389 187.02 63.4689 187.26 64.3489 187.74C65.2489 188.22 65.9389 188.85 66.4189 189.63V187.26H71.5489V204H66.4189V201.63C65.9189 202.41 65.2189 203.04 64.3189 203.52C63.4389 204 62.4089 204.24 61.2289 204.24C59.8689 204.24 58.6289 203.89 57.5089 203.19C56.3889 202.47 55.4989 201.46 54.8389 200.16C54.1989 198.84 53.8789 197.32 53.8789 195.6ZM66.4189 195.63C66.4189 194.35 66.0589 193.34 65.3389 192.6C64.6389 191.86 63.7789 191.49 62.7589 191.49C61.7389 191.49 60.8689 191.86 60.1489 192.6C59.4489 193.32 59.0989 194.32 59.0989 195.6C59.0989 196.88 59.4489 197.9 60.1489 198.66C60.8689 199.4 61.7389 199.77 62.7589 199.77C63.7789 199.77 64.6389 199.4 65.3389 198.66C66.0589 197.92 66.4189 196.91 66.4189 195.63Z" fill="#BCCF8D"/><path d="M49.7094 182.941V204.001H44.5794V191.371L39.8694 204.001H35.7294L30.9894 191.341V204.001H25.8594V182.941H31.9194L37.8294 197.521L43.6794 182.941H49.7094Z" fill="#BCCF8D"/><path d="M624.947 201.14C624.947 204.05 622.367 206.24 618.167 206.24C613.697 206.24 610.697 203.75 610.457 200.51H615.527C615.647 201.68 616.697 202.46 618.107 202.46C619.427 202.46 620.117 201.86 620.117 201.11C620.117 198.41 610.997 200.36 610.997 194.21C610.997 191.36 613.427 189.02 617.807 189.02C622.127 189.02 624.527 191.42 624.857 194.72H620.117C619.967 193.58 619.097 192.83 617.657 192.83C616.457 192.83 615.797 193.31 615.797 194.12C615.797 196.79 624.857 194.9 624.947 201.14Z" fill="#FAACC1"/><path d="M606.717 201.14C606.717 204.05 604.137 206.24 599.937 206.24C595.467 206.24 592.467 203.75 592.227 200.51H597.297C597.417 201.68 598.467 202.46 599.877 202.46C601.197 202.46 601.887 201.86 601.887 201.11C601.887 198.41 592.767 200.36 592.767 194.21C592.767 191.36 595.197 189.02 599.577 189.02C603.897 189.02 606.297 191.42 606.627 194.72H601.887C601.737 193.58 600.867 192.83 599.427 192.83C598.227 192.83 597.567 193.31 597.567 194.12C597.567 196.79 606.627 194.9 606.717 201.14Z" fill="#FAACC1"/><path d="M580.521 193.13C578.841 193.13 577.551 194.15 577.251 196.01H583.671C583.671 194.18 582.231 193.13 580.521 193.13ZM588.531 200.45C587.721 203.72 584.751 206.24 580.581 206.24C575.661 206.24 572.121 202.94 572.121 197.63C572.121 192.32 575.601 189.02 580.581 189.02C585.471 189.02 588.921 192.26 588.921 197.36C588.921 197.84 588.891 198.35 588.831 198.86H577.221C577.401 201.05 578.751 202.07 580.401 202.07C581.841 202.07 582.651 201.35 583.071 200.45H588.531Z" fill="#FAACC1"/><path d="M562.976 205.998V196.908C562.976 194.628 561.716 193.368 559.766 193.368C557.816 193.368 556.556 194.628 556.556 196.908V205.998H551.426V189.258H556.556V191.478C557.576 190.068 559.376 189.078 561.626 189.078C565.496 189.078 568.076 191.718 568.076 196.218V205.998H562.976Z" fill="#FAACC1"/><path d="M541.078 205.999V189.259H546.208V205.999H541.078ZM543.658 187.519C541.828 187.519 540.598 186.289 540.598 184.759C540.598 183.199 541.828 181.969 543.658 181.969C545.458 181.969 546.688 183.199 546.688 184.759C546.688 186.289 545.458 187.519 543.658 187.519Z" fill="#FAACC1"/><path d="M536.439 201.14C536.439 204.05 533.859 206.24 529.659 206.24C525.189 206.24 522.189 203.75 521.949 200.51H527.019C527.139 201.68 528.189 202.46 529.599 202.46C530.919 202.46 531.609 201.86 531.609 201.11C531.609 198.41 522.489 200.36 522.489 194.21C522.489 191.36 524.919 189.02 529.299 189.02C533.619 189.02 536.019 191.42 536.349 194.72H531.609C531.459 193.58 530.589 192.83 529.149 192.83C527.949 192.83 527.289 193.31 527.289 194.12C527.289 196.79 536.349 194.9 536.439 201.14Z" fill="#FAACC1"/><path d="M517.664 189.262V206.002H512.534V203.722C511.514 205.162 509.714 206.182 507.464 206.182C503.594 206.182 500.984 203.512 500.984 199.042V189.262H506.084V198.352C506.084 200.632 507.374 201.892 509.294 201.892C511.274 201.892 512.534 200.632 512.534 198.352V189.262H517.664Z" fill="#FAACC1"/><path d="M491.469 199.581C491.469 198.081 490.419 197.211 488.709 197.211H484.989V201.861H488.769C490.479 201.861 491.469 201.081 491.469 199.581ZM490.959 191.271C490.959 189.831 490.029 189.051 488.349 189.051H484.989V193.461H488.349C490.029 193.461 490.959 192.711 490.959 191.271ZM496.659 200.271C496.659 203.751 494.109 206.001 489.669 206.001H479.859V184.941H489.339C493.629 184.941 496.179 187.071 496.179 190.401C496.179 192.951 494.649 194.601 492.609 195.201C495.069 195.711 496.659 197.871 496.659 200.271Z" fill="#FAACC1"/><path d="M615.545 226.609V224.769H619.145V219.201H616.441V217.361H619.145V212.641H621.081V217.361H623.865V219.201H621.081V224.769H624.297V226.609H615.545ZM612.361 227.121V221.793C612.062 222.06 611.753 222.326 611.433 222.593C611.113 222.849 610.782 223.094 610.441 223.329C610.302 223.116 610.099 222.865 609.833 222.577C609.566 222.289 609.337 222.065 609.145 221.905C609.571 221.66 610.019 221.356 610.489 220.993C610.969 220.62 611.438 220.214 611.897 219.777C612.355 219.329 612.771 218.881 613.145 218.433C613.518 217.974 613.817 217.548 614.041 217.153H609.993V215.425H612.345V212.625H614.201V215.425H615.673L616.537 216.145C616.089 217.148 615.507 218.129 614.793 219.089C615.07 219.281 615.369 219.484 615.689 219.697C616.019 219.9 616.334 220.092 616.633 220.273C616.931 220.444 617.177 220.582 617.369 220.689C617.262 220.796 617.134 220.945 616.985 221.137C616.846 221.318 616.707 221.51 616.569 221.713C616.441 221.905 616.339 222.07 616.265 222.209C615.977 222.017 615.651 221.798 615.289 221.553C614.926 221.297 614.569 221.046 614.217 220.801V227.121H612.361Z" fill="#FAACC1"/><path d="M601.048 227.358C600.92 227.113 600.749 226.841 600.536 226.542C600.333 226.244 600.104 225.94 599.848 225.63C599.357 225.716 598.792 225.806 598.152 225.902C597.512 225.998 596.834 226.094 596.12 226.19C595.405 226.286 594.696 226.372 593.992 226.446C593.298 226.532 592.648 226.601 592.04 226.654C591.442 226.718 590.93 226.766 590.504 226.798L590.136 224.894C590.37 224.894 590.658 224.889 591 224.878C591.352 224.857 591.73 224.83 592.136 224.798C592.381 224.425 592.632 223.982 592.888 223.47C593.154 222.958 593.389 222.473 593.592 222.014H589.656V220.302H602.76V222.014H598.904C599.192 222.238 599.512 222.521 599.864 222.862C600.216 223.204 600.573 223.572 600.936 223.966C601.298 224.35 601.629 224.729 601.928 225.102C602.237 225.476 602.482 225.801 602.664 226.078C602.525 226.164 602.349 226.286 602.136 226.446C601.922 226.606 601.714 226.766 601.512 226.926C601.309 227.097 601.154 227.241 601.048 227.358ZM589.56 219.326C589.485 219.177 589.378 219.001 589.24 218.798C589.101 218.596 588.952 218.398 588.792 218.206C588.632 218.014 588.482 217.86 588.344 217.742C589.005 217.486 589.682 217.156 590.376 216.75C591.08 216.334 591.757 215.881 592.408 215.39C593.058 214.889 593.64 214.382 594.152 213.87C594.664 213.348 595.058 212.857 595.336 212.398L597.144 212.654C597.485 213.113 597.922 213.582 598.456 214.062C598.989 214.542 599.57 215.001 600.2 215.438C600.84 215.865 601.49 216.254 602.152 216.606C602.813 216.958 603.448 217.246 604.056 217.47C603.896 217.598 603.725 217.774 603.544 217.998C603.362 218.212 603.192 218.43 603.032 218.654C602.882 218.878 602.77 219.07 602.696 219.23C602.28 219.049 601.848 218.836 601.4 218.59C600.962 218.345 600.52 218.078 600.072 217.79V219.15H592.344V217.742C591.853 218.073 591.368 218.377 590.888 218.654C590.408 218.921 589.965 219.145 589.56 219.326ZM592.792 217.422H599.544C598.893 216.974 598.274 216.494 597.688 215.982C597.101 215.46 596.605 214.937 596.2 214.414C595.837 214.894 595.352 215.401 594.744 215.934C594.136 216.457 593.485 216.953 592.792 217.422ZM594.488 224.606C595.202 224.542 595.912 224.473 596.616 224.398C597.32 224.313 597.96 224.233 598.536 224.158C598.077 223.689 597.672 223.326 597.32 223.07L598.568 222.014H595.832C595.65 222.43 595.437 222.868 595.192 223.326C594.957 223.774 594.722 224.201 594.488 224.606Z" fill="#FAACC1"/><path d="M574.518 227.33V224.146C574.038 224.572 573.494 224.978 572.886 225.362C572.289 225.746 571.67 226.092 571.03 226.402C570.401 226.711 569.788 226.967 569.19 227.17C569.137 227.042 569.057 226.882 568.95 226.69C568.844 226.508 568.726 226.322 568.598 226.13C568.47 225.948 568.348 225.804 568.23 225.698C568.753 225.538 569.313 225.324 569.91 225.058C570.508 224.78 571.094 224.476 571.67 224.146C572.257 223.804 572.78 223.463 573.238 223.122H568.262V221.666H574.518V220.946H569.926V219.554H574.518V218.85H569.206V217.426H572.118C572.044 217.244 571.969 217.068 571.894 216.898C571.82 216.716 571.74 216.556 571.654 216.418H568.262V214.962H570.534C570.428 214.684 570.3 214.38 570.15 214.05C570.012 213.719 569.868 213.452 569.718 213.25L571.334 212.594C571.441 212.754 571.553 212.962 571.67 213.218C571.798 213.463 571.916 213.708 572.022 213.954C572.129 214.188 572.214 214.386 572.278 214.546L571.27 214.962H573.046V212.61H574.79V214.962H575.894V212.61H577.654V214.962H579.542L578.246 214.514C578.353 214.364 578.47 214.172 578.598 213.938C578.737 213.692 578.865 213.447 578.982 213.202C579.11 212.946 579.201 212.743 579.254 212.594L581.014 213.106C580.918 213.287 580.801 213.5 580.662 213.746C580.524 213.991 580.385 214.226 580.246 214.45C580.118 214.663 580.012 214.834 579.926 214.962H582.518V216.418H579.11C578.972 216.78 578.833 217.116 578.694 217.426H581.43V218.85H576.294V219.554H580.79V220.946H576.294V221.666H582.534V223.122H577.542C578.001 223.463 578.518 223.804 579.094 224.146C579.67 224.476 580.257 224.775 580.854 225.042C581.452 225.308 582.012 225.522 582.534 225.682C582.428 225.788 582.31 225.932 582.182 226.114C582.054 226.306 581.937 226.498 581.83 226.69C581.724 226.882 581.644 227.042 581.59 227.17C581.004 226.967 580.396 226.711 579.766 226.402C579.137 226.103 578.524 225.762 577.926 225.378C577.329 224.994 576.785 224.588 576.294 224.162V227.33H574.518ZM574.118 217.426H576.662C576.737 217.276 576.812 217.116 576.886 216.946C576.961 216.764 577.036 216.588 577.11 216.418H573.686C573.772 216.588 573.852 216.764 573.926 216.946C574.001 217.127 574.065 217.287 574.118 217.426Z" fill="#FAACC1"/><path d="M552.055 227.218C552.033 226.951 551.98 226.658 551.895 226.338C551.82 226.018 551.735 225.751 551.639 225.538H553.047C553.271 225.538 553.431 225.506 553.527 225.442C553.623 225.367 553.671 225.223 553.671 225.01V224.514H548.487V223.138H553.671V222.466H547.223V221.218H553.671V220.578H548.471V219.346H553.671V218.722H549.527V215.602H553.671V215.026H547.687V213.65H553.671V212.594H555.591V213.65H561.559V215.026H555.591V215.602H559.687V218.722H555.591V219.346H560.551V221.218H562.007V222.466H560.551V224.514H555.591V225.538C555.591 226.124 555.42 226.551 555.079 226.818C554.748 227.084 554.241 227.218 553.559 227.218H552.055ZM555.591 223.138H558.695V222.466H555.591V223.138ZM555.591 221.218H558.695V220.578H555.591V221.218ZM551.287 217.506H553.671V216.818H551.287V217.506ZM555.591 217.506H557.927V216.818H555.591V217.506Z" fill="#FAACC1"/><defs><linearGradient id="paint0_linear_13461_38518" x1="227" y1="96" x2="424" y2="293" gradientUnits="userSpaceOnUse"><stop offset="0.128793" stop-color="#0DD5EB"/><stop offset="1" stop-color="#0DA5EB"/></linearGradient></defs></svg>