<svg width="228" height="22" viewBox="0 0 228 22" fill="none" xmlns="http://www.w3.org/2000/svg"><path d="M223.334 5.28089C223.73 4.63556 224.243 4.12956 224.874 3.76289C225.519 3.39622 226.253 3.21289 227.074 3.21289V6.44689H226.26C225.292 6.44689 224.559 6.67422 224.06 7.12889C223.576 7.58356 223.334 8.37556 223.334 9.50489V15.5769H220.254V3.38889H223.334V5.28089Z" fill="#0DD5EB"/><path d="M215.806 9.21745C215.806 9.65745 215.776 10.0535 215.718 10.4055H206.808C206.881 11.2855 207.189 11.9748 207.732 12.4735C208.274 12.9721 208.942 13.2215 209.734 13.2215C210.878 13.2215 211.692 12.7301 212.176 11.7475H215.498C215.146 12.9208 214.471 13.8888 213.474 14.6515C212.476 15.3995 211.252 15.7735 209.8 15.7735C208.626 15.7735 207.57 15.5168 206.632 15.0035C205.708 14.4755 204.982 13.7348 204.454 12.7815C203.94 11.8281 203.684 10.7281 203.684 9.48145C203.684 8.22012 203.94 7.11279 204.454 6.15945C204.967 5.20612 205.686 4.47279 206.61 3.95945C207.534 3.44612 208.597 3.18945 209.8 3.18945C210.958 3.18945 211.992 3.43879 212.902 3.93745C213.826 4.43612 214.537 5.14745 215.036 6.07145C215.549 6.98079 215.806 8.02945 215.806 9.21745ZM212.616 8.33745C212.601 7.54545 212.315 6.91479 211.758 6.44545C211.2 5.96145 210.518 5.71945 209.712 5.71945C208.949 5.71945 208.304 5.95412 207.776 6.42345C207.262 6.87812 206.947 7.51612 206.83 8.33745H212.616Z" fill="#0DD5EB"/><path d="M194.484 3.21289C195.936 3.21289 197.11 3.67489 198.004 4.59889C198.899 5.50822 199.346 6.78422 199.346 8.42689V15.5769H196.266V8.84489C196.266 7.87689 196.024 7.13622 195.54 6.62289C195.056 6.09489 194.396 5.83089 193.56 5.83089C192.71 5.83089 192.035 6.09489 191.536 6.62289C191.052 7.13622 190.81 7.87689 190.81 8.84489V15.5769H187.73V3.38889H190.81V4.90689C191.221 4.37889 191.742 3.96822 192.372 3.67489C193.018 3.36689 193.722 3.21289 194.484 3.21289Z" fill="#0DD5EB"/><path d="M180.589 5.919V11.815C180.589 12.2257 180.684 12.5263 180.875 12.717C181.08 12.893 181.418 12.981 181.887 12.981H183.317V15.577H181.381C178.785 15.577 177.487 14.3157 177.487 11.793V5.919H176.035V3.389H177.487V0.375H180.589V3.389H183.317V5.919H180.589Z" fill="#0DD5EB"/><path d="M168.986 5.28089C169.382 4.63556 169.896 4.12956 170.526 3.76289C171.172 3.39622 171.905 3.21289 172.726 3.21289V6.44689H171.912C170.944 6.44689 170.211 6.67422 169.712 7.12889C169.228 7.58356 168.986 8.37556 168.986 9.50489V15.5769H165.906V3.38889H168.986V5.28089Z" fill="#0DD5EB"/><path d="M148.004 9.43745C148.004 8.20545 148.246 7.11279 148.73 6.15945C149.229 5.20612 149.896 4.47279 150.732 3.95945C151.583 3.44612 152.529 3.18945 153.57 3.18945C154.479 3.18945 155.271 3.37279 155.946 3.73945C156.635 4.10612 157.185 4.56812 157.596 5.12545V3.38745H160.698V15.5755H157.596V13.7935C157.2 14.3655 156.65 14.8421 155.946 15.2235C155.257 15.5901 154.457 15.7735 153.548 15.7735C152.521 15.7735 151.583 15.5095 150.732 14.9815C149.896 14.4535 149.229 13.7128 148.73 12.7595C148.246 11.7915 148.004 10.6841 148.004 9.43745ZM157.596 9.48145C157.596 8.73345 157.449 8.09545 157.156 7.56745C156.863 7.02479 156.467 6.61412 155.968 6.33545C155.469 6.04212 154.934 5.89545 154.362 5.89545C153.79 5.89545 153.262 6.03479 152.778 6.31345C152.294 6.59212 151.898 7.00279 151.59 7.54545C151.297 8.07345 151.15 8.70412 151.15 9.43745C151.15 10.1708 151.297 10.8161 151.59 11.3735C151.898 11.9161 152.294 12.3341 152.778 12.6275C153.277 12.9208 153.805 13.0675 154.362 13.0675C154.934 13.0675 155.469 12.9281 155.968 12.6495C156.467 12.3561 156.863 11.9455 157.156 11.4175C157.449 10.8748 157.596 10.2295 157.596 9.48145Z" fill="#0DD5EB"/><path d="M144.409 4.9727C144.409 5.79404 144.211 6.56404 143.815 7.2827C143.434 8.00137 142.825 8.5807 141.989 9.0207C141.168 9.4607 140.126 9.6807 138.865 9.6807H136.291V15.5767H133.211V0.220703H138.865C140.053 0.220703 141.065 0.426037 141.901 0.836703C142.737 1.24737 143.36 1.81204 143.771 2.5307C144.196 3.24937 144.409 4.06337 144.409 4.9727ZM138.733 7.1947C139.584 7.1947 140.214 7.00404 140.625 6.6227C141.036 6.2267 141.241 5.6767 141.241 4.9727C141.241 3.4767 140.405 2.7287 138.733 2.7287H136.291V7.1947H138.733Z" fill="#0DD5EB"/><path d="M121.321 9.21745C121.321 9.65745 121.292 10.0535 121.233 10.4055H112.323C112.397 11.2855 112.705 11.9748 113.247 12.4735C113.79 12.9721 114.457 13.2215 115.249 13.2215C116.393 13.2215 117.207 12.7301 117.691 11.7475H121.013C120.661 12.9208 119.987 13.8888 118.989 14.6515C117.992 15.3995 116.767 15.7735 115.315 15.7735C114.142 15.7735 113.086 15.5168 112.147 15.0035C111.223 14.4755 110.497 13.7348 109.969 12.7815C109.456 11.8281 109.199 10.7281 109.199 9.48145C109.199 8.22012 109.456 7.11279 109.969 6.15945C110.483 5.20612 111.201 4.47279 112.125 3.95945C113.049 3.44612 114.113 3.18945 115.315 3.18945C116.474 3.18945 117.508 3.43879 118.417 3.93745C119.341 4.43612 120.053 5.14745 120.551 6.07145C121.065 6.98079 121.321 8.02945 121.321 9.21745ZM118.131 8.33745C118.117 7.54545 117.831 6.91479 117.273 6.44545C116.716 5.96145 116.034 5.71945 115.227 5.71945C114.465 5.71945 113.819 5.95412 113.291 6.42345C112.778 6.87812 112.463 7.51612 112.345 8.33745H118.131Z" fill="#0DD5EB"/><path d="M97.6558 3.18945C98.5652 3.18945 99.3645 3.37279 100.054 3.73945C100.743 4.09145 101.286 4.55345 101.682 5.12545V3.38745H104.784V15.6635C104.784 16.7928 104.557 17.7975 104.102 18.6775C103.647 19.5721 102.965 20.2761 102.056 20.7895C101.147 21.3175 100.047 21.5815 98.7558 21.5815C97.0252 21.5815 95.6025 21.1781 94.4878 20.3715C93.3878 19.5648 92.7645 18.4648 92.6178 17.0715H95.6758C95.8372 17.6288 96.1818 18.0688 96.7098 18.3915C97.2525 18.7288 97.9052 18.8975 98.6678 18.8975C99.5625 18.8975 100.289 18.6261 100.846 18.0835C101.403 17.5555 101.682 16.7488 101.682 15.6635V13.7715C101.286 14.3435 100.736 14.8201 100.032 15.2015C99.3425 15.5828 98.5505 15.7735 97.6558 15.7735C96.6292 15.7735 95.6905 15.5095 94.8398 14.9815C93.9892 14.4535 93.3145 13.7128 92.8158 12.7595C92.3318 11.7915 92.0898 10.6841 92.0898 9.43745C92.0898 8.20545 92.3318 7.11279 92.8158 6.15945C93.3145 5.20612 93.9818 4.47279 94.8178 3.95945C95.6685 3.44612 96.6145 3.18945 97.6558 3.18945ZM101.682 9.48145C101.682 8.73345 101.535 8.09545 101.242 7.56745C100.949 7.02479 100.553 6.61412 100.054 6.33545C99.5552 6.04212 99.0198 5.89545 98.4478 5.89545C97.8758 5.89545 97.3478 6.03479 96.8638 6.31345C96.3798 6.59212 95.9838 7.00279 95.6758 7.54545C95.3825 8.07345 95.2358 8.70412 95.2358 9.43745C95.2358 10.1708 95.3825 10.8161 95.6758 11.3735C95.9838 11.9161 96.3798 12.3341 96.8638 12.6275C97.3625 12.9208 97.8905 13.0675 98.4478 13.0675C99.0198 13.0675 99.5552 12.9281 100.054 12.6495C100.553 12.3561 100.949 11.9455 101.242 11.4175C101.535 10.8748 101.682 10.2295 101.682 9.48145Z" fill="#0DD5EB"/><path d="M74.9805 9.43745C74.9805 8.20545 75.2225 7.11279 75.7065 6.15945C76.2051 5.20612 76.8725 4.47279 77.7085 3.95945C78.5591 3.44612 79.5051 3.18945 80.5465 3.18945C81.4558 3.18945 82.2478 3.37279 82.9225 3.73945C83.6118 4.10612 84.1618 4.56812 84.5725 5.12545V3.38745H87.6745V15.5755H84.5725V13.7935C84.1765 14.3655 83.6265 14.8421 82.9225 15.2235C82.2331 15.5901 81.4338 15.7735 80.5245 15.7735C79.4978 15.7735 78.5591 15.5095 77.7085 14.9815C76.8725 14.4535 76.2051 13.7128 75.7065 12.7595C75.2225 11.7915 74.9805 10.6841 74.9805 9.43745ZM84.5725 9.48145C84.5725 8.73345 84.4258 8.09545 84.1325 7.56745C83.8391 7.02479 83.4431 6.61412 82.9445 6.33545C82.4458 6.04212 81.9105 5.89545 81.3385 5.89545C80.7665 5.89545 80.2385 6.03479 79.7545 6.31345C79.2705 6.59212 78.8745 7.00279 78.5665 7.54545C78.2731 8.07345 78.1265 8.70412 78.1265 9.43745C78.1265 10.1708 78.2731 10.8161 78.5665 11.3735C78.8745 11.9161 79.2705 12.3341 79.7545 12.6275C80.2531 12.9208 80.7811 13.0675 81.3385 13.0675C81.9105 13.0675 82.4458 12.9281 82.9445 12.6495C83.4431 12.3561 83.8391 11.9455 84.1325 11.4175C84.4258 10.8748 84.5725 10.2295 84.5725 9.48145Z" fill="#0DD5EB"/><path d="M71.3855 4.9727C71.3855 5.79404 71.1875 6.56404 70.7915 7.2827C70.4102 8.00137 69.8015 8.5807 68.9655 9.0207C68.1442 9.4607 67.1028 9.6807 65.8415 9.6807H63.2675V15.5767H60.1875V0.220703H65.8415C67.0295 0.220703 68.0415 0.426037 68.8775 0.836703C69.7135 1.24737 70.3368 1.81204 70.7475 2.5307C71.1728 3.24937 71.3855 4.06337 71.3855 4.9727ZM65.7095 7.1947C66.5602 7.1947 67.1908 7.00404 67.6015 6.6227C68.0122 6.2267 68.2175 5.6767 68.2175 4.9727C68.2175 3.4767 67.3815 2.7287 65.7095 2.7287H63.2675V7.1947H65.7095Z" fill="#0DD5EB"/><path d="M48.2978 9.21745C48.2978 9.65745 48.2684 10.0535 48.2098 10.4055H39.2998C39.3731 11.2855 39.6811 11.9748 40.2238 12.4735C40.7664 12.9721 41.4338 13.2215 42.2258 13.2215C43.3698 13.2215 44.1838 12.7301 44.6678 11.7475H47.9898C47.6378 12.9208 46.9631 13.8888 45.9658 14.6515C44.9684 15.3995 43.7438 15.7735 42.2918 15.7735C41.1184 15.7735 40.0624 15.5168 39.1238 15.0035C38.1998 14.4755 37.4738 13.7348 36.9458 12.7815C36.4324 11.8281 36.1758 10.7281 36.1758 9.48145C36.1758 8.22012 36.4324 7.11279 36.9458 6.15945C37.4591 5.20612 38.1778 4.47279 39.1018 3.95945C40.0258 3.44612 41.0891 3.18945 42.2918 3.18945C43.4504 3.18945 44.4844 3.43879 45.3938 3.93745C46.3178 4.43612 47.0291 5.14745 47.5278 6.07145C48.0411 6.98079 48.2978 8.02945 48.2978 9.21745ZM45.1078 8.33745C45.0931 7.54545 44.8071 6.91479 44.2498 6.44545C43.6924 5.96145 43.0104 5.71945 42.2038 5.71945C41.4411 5.71945 40.7958 5.95412 40.2678 6.42345C39.7544 6.87812 39.4391 7.51612 39.3218 8.33745H45.1078Z" fill="#0DD5EB"/><path d="M26.9767 3.21289C28.4287 3.21289 29.602 3.67489 30.4967 4.59889C31.3913 5.50822 31.8387 6.78422 31.8387 8.42689V15.5769H28.7587V8.84489C28.7587 7.87689 28.5167 7.13622 28.0327 6.62289C27.5487 6.09489 26.8887 5.83089 26.0527 5.83089C25.202 5.83089 24.5273 6.09489 24.0287 6.62289C23.5447 7.13622 23.3027 7.87689 23.3027 8.84489V15.5769H20.2227V3.38889H23.3027V4.90689C23.7133 4.37889 24.234 3.96822 24.8647 3.67489C25.51 3.36689 26.214 3.21289 26.9767 3.21289Z" fill="#0DD5EB"/><path d="M7.876 15.73C6.43867 15.73 5.11867 15.3927 3.916 14.718C2.71333 14.0433 1.76 13.112 1.056 11.924C0.352 10.7213 0 9.36467 0 7.854C0 6.358 0.352 5.016 1.056 3.828C1.76 2.62533 2.71333 1.68667 3.916 1.012C5.11867 0.337333 6.43867 0 7.876 0C9.328 0 10.648 0.337333 11.836 1.012C13.0387 1.68667 13.9847 2.62533 14.674 3.828C15.378 5.016 15.73 6.358 15.73 7.854C15.73 9.36467 15.378 10.7213 14.674 11.924C13.9847 13.112 13.0387 14.0433 11.836 14.718C10.6333 15.3927 9.31333 15.73 7.876 15.73ZM7.876 12.98C8.8 12.98 9.614 12.7747 10.318 12.364C11.022 11.9387 11.572 11.3373 11.968 10.56C12.364 9.78267 12.562 8.88067 12.562 7.854C12.562 6.82733 12.364 5.93267 11.968 5.17C11.572 4.39267 11.022 3.79867 10.318 3.388C9.614 2.97733 8.8 2.772 7.876 2.772C6.952 2.772 6.13067 2.97733 5.412 3.388C4.708 3.79867 4.158 4.39267 3.762 5.17C3.366 5.93267 3.168 6.82733 3.168 7.854C3.168 8.88067 3.366 9.78267 3.762 10.56C4.158 11.3373 4.708 11.9387 5.412 12.364C6.13067 12.7747 6.952 12.98 7.876 12.98Z" fill="#0DD5EB"/></svg>