<svg width="1440" height="258" viewBox="0 0 1440 258" fill="none" xmlns="http://www.w3.org/2000/svg"><path d="M1503.69 135.198C1503.69 138.318 1503.17 142.738 1502.91 146.118H1397.09C1400.99 163.538 1415.81 174.198 1437.13 174.198C1451.95 174.198 1462.61 169.778 1472.23 160.678L1493.81 184.078C1480.81 198.898 1461.31 206.698 1436.09 206.698C1387.73 206.698 1356.27 176.278 1356.27 134.678C1356.27 92.8182 1388.25 62.6582 1430.89 62.6582C1471.97 62.6582 1503.69 90.2182 1503.69 135.198ZM1431.15 93.3382C1412.69 93.3382 1399.43 104.518 1396.57 122.458H1465.47C1462.61 104.778 1449.35 93.3382 1431.15 93.3382Z" fill="white" fill-opacity="0.2"/><path d="M1298.97 11.6992H1339.53V204.619H1300.79V188.499C1290.65 200.719 1275.83 206.699 1257.11 206.699C1217.59 206.699 1187.17 178.619 1187.17 134.679C1187.17 90.7392 1217.59 62.6592 1257.11 62.6592C1274.27 62.6592 1288.83 68.1192 1298.97 79.5592V11.6992ZM1264.13 173.419C1284.15 173.419 1299.75 158.859 1299.75 134.679C1299.75 110.499 1284.15 95.9392 1264.13 95.9392C1243.85 95.9392 1228.25 110.499 1228.25 134.679C1228.25 158.859 1243.85 173.419 1264.13 173.419Z" fill="white" fill-opacity="0.2"/><path d="M1149.52 45.24C1134.44 45.24 1124.3 35.36 1124.3 22.62C1124.3 9.88001 1134.44 0 1149.52 0C1164.6 0 1174.74 9.36001 1174.74 21.84C1174.74 35.36 1164.6 45.24 1149.52 45.24ZM1129.24 204.62V64.74H1169.8V204.62H1129.24Z" fill="white" fill-opacity="0.2"/><path d="M1000.18 64.7382H1038.66V181.218C1038.66 233.218 1010.58 257.138 960.141 257.138C933.621 257.138 907.881 250.638 891.501 237.898L907.621 208.778C919.581 218.398 939.081 224.638 957.021 224.638C985.621 224.638 998.101 211.638 998.101 186.418V180.438C987.441 192.138 972.101 197.858 953.901 197.858C915.161 197.858 883.961 171.078 883.961 130.258C883.961 89.4382 915.161 62.6582 953.901 62.6582C973.401 62.6582 989.521 69.1582 1000.18 82.6782V64.7382ZM961.961 164.578C983.281 164.578 998.621 150.798 998.621 130.258C998.621 109.718 983.281 95.9382 961.961 95.9382C940.641 95.9382 925.041 109.718 925.041 130.258C925.041 150.798 940.641 164.578 961.961 164.578Z" fill="white" fill-opacity="0.2"/><path d="M808.493 62.6582C841.513 62.6582 866.473 81.8982 866.473 124.538V204.618H825.913V130.778C825.913 108.158 815.513 97.7582 797.573 97.7582C778.073 97.7582 764.033 109.718 764.033 135.458V204.618H723.473V64.7382H762.213V81.1182C773.133 69.1582 789.513 62.6582 808.493 62.6582Z" fill="white" fill-opacity="0.2"/><path d="M675.95 45.24C660.87 45.24 650.73 35.36 650.73 22.62C650.73 9.88001 660.87 0 675.95 0C691.03 0 701.17 9.36001 701.17 21.84C701.17 35.36 691.03 45.24 675.95 45.24ZM655.67 204.62V64.74H696.23V204.62H655.67Z" fill="white" fill-opacity="0.2"/><path d="M571.325 62.6582C604.345 62.6582 629.305 81.8982 629.305 124.538V204.618H588.745V130.778C588.745 108.158 578.345 97.7582 560.405 97.7582C540.905 97.7582 526.865 109.718 526.865 135.458V204.618H486.305V64.7382H525.045V81.1182C535.965 69.1582 552.345 62.6582 571.325 62.6582Z" fill="white" fill-opacity="0.2"/><path d="M438.836 45.24C423.756 45.24 413.616 35.36 413.616 22.62C413.616 9.88001 423.756 0 438.836 0C453.916 0 464.056 9.36001 464.056 21.84C464.056 35.36 453.916 45.24 438.836 45.24ZM360.056 41.6C348.096 41.6 341.596 48.1 341.596 61.88V67.86H377.476V99.06H342.636V204.62H302.076V99.06H280.496V67.86H302.076V61.62C302.076 30.16 321.316 9.62 356.156 9.62C367.596 9.62 379.556 11.96 387.096 17.16L376.436 46.54C372.016 43.42 366.296 41.6 360.056 41.6ZM418.556 204.62V64.74H459.116V204.62H418.556Z" fill="white" fill-opacity="0.2"/><path d="M280.533 135.198C280.533 138.318 280.013 142.738 279.753 146.118H173.933C177.833 163.538 192.653 174.198 213.973 174.198C228.793 174.198 239.453 169.778 249.073 160.678L270.653 184.078C257.653 198.898 238.153 206.698 212.933 206.698C164.573 206.698 133.113 176.278 133.113 134.678C133.113 92.8182 165.093 62.6582 207.733 62.6582C248.813 62.6582 280.533 90.2182 280.533 135.198ZM207.993 93.3382C189.533 93.3382 176.273 104.518 173.413 122.458H242.313C239.453 104.778 226.193 93.3382 207.993 93.3382Z" fill="white" fill-opacity="0.2"/><path d="M126.778 204.619H81.5381L46.4381 153.919H44.3581H7.69812V204.619H-34.4219V22.6191H44.3581C92.9781 22.6191 123.398 47.8391 123.398 88.6591C123.398 115.959 109.618 135.979 85.9581 146.119L126.778 204.619ZM80.7581 88.6591C80.7581 68.6392 67.7581 56.9391 42.0181 56.9391H7.69812V120.379H42.0181C67.7581 120.379 80.7581 108.419 80.7581 88.6591Z" fill="white" fill-opacity="0.2"/></svg>