<svg width="673" height="472" viewBox="0 0 673 472" fill="none" xmlns="http://www.w3.org/2000/svg"><path opacity="0.2" d="M657.572 471.19C655.292 471.19 653.402 470.5 651.902 469.12C650.462 467.68 649.742 465.91 649.742 463.81C649.742 461.71 650.462 459.97 651.902 458.59C653.402 457.15 655.292 456.43 657.572 456.43C659.792 456.43 661.622 457.15 663.062 458.59C664.502 459.97 665.222 461.71 665.222 463.81C665.222 465.91 664.502 467.68 663.062 469.12C661.622 470.5 659.792 471.19 657.572 471.19Z" fill="white"/><path opacity="0.2" d="M649.094 444.551C649.094 446.351 648.974 447.971 648.734 449.411H612.284C612.584 453.011 613.844 455.831 616.064 457.871C618.284 459.911 621.014 460.931 624.254 460.931C628.934 460.931 632.264 458.921 634.244 454.901H647.834C646.394 459.701 643.634 463.661 639.554 466.781C635.474 469.841 630.464 471.371 624.524 471.371C619.724 471.371 615.404 470.321 611.564 468.221C607.784 466.061 604.814 463.031 602.654 459.131C600.554 455.231 599.504 450.731 599.504 445.631C599.504 440.471 600.554 435.941 602.654 432.041C604.754 428.141 607.694 425.141 611.474 423.041C615.254 420.941 619.604 419.891 624.524 419.891C629.264 419.891 633.494 420.911 637.214 422.951C640.994 424.991 643.904 427.901 645.944 431.681C648.044 435.401 649.094 439.691 649.094 444.551ZM636.044 440.951C635.984 437.711 634.814 435.131 632.534 433.211C630.254 431.231 627.464 430.241 624.164 430.241C621.044 430.241 618.404 431.201 616.244 433.121C614.144 434.981 612.854 437.591 612.374 440.951H636.044Z" fill="white"/><path opacity="0.2" d="M585.256 428.44C586.876 425.8 588.976 423.73 591.556 422.23C594.196 420.73 597.196 419.98 600.556 419.98V433.21H597.226C593.266 433.21 590.266 434.14 588.226 436C586.246 437.86 585.256 441.1 585.256 445.72V470.56H572.656V420.7H585.256V428.44Z" fill="white"/><path opacity="0.2" d="M566.524 420.701V470.561H553.834V464.261C552.214 466.421 550.084 468.131 547.444 469.391C544.864 470.591 542.044 471.191 538.984 471.191C535.084 471.191 531.634 470.381 528.634 468.761C525.634 467.081 523.264 464.651 521.524 461.471C519.844 458.231 519.004 454.391 519.004 449.951V420.701H531.604V448.151C531.604 452.111 532.594 455.171 534.574 457.331C536.554 459.431 539.254 460.481 542.674 460.481C546.154 460.481 548.884 459.431 550.864 457.331C552.844 455.171 553.834 452.111 553.834 448.151V420.701H566.524Z" fill="white"/><path opacity="0.2" d="M505.532 431.051V455.171C505.532 456.851 505.922 458.081 506.702 458.861C507.542 459.581 508.922 459.941 510.842 459.941H516.692V470.561H508.772C498.152 470.561 492.842 465.401 492.842 455.081V431.051H486.902V420.701H492.842V408.371H505.532V420.701H516.692V431.051H505.532Z" fill="white"/><path opacity="0.2" d="M484.731 420.701V470.561H472.041V464.261C470.421 466.421 468.291 468.131 465.651 469.391C463.071 470.591 460.251 471.191 457.191 471.191C453.291 471.191 449.841 470.381 446.841 468.761C443.841 467.081 441.471 464.651 439.731 461.471C438.051 458.231 437.211 454.391 437.211 449.951V420.701H449.811V448.151C449.811 452.111 450.801 455.171 452.781 457.331C454.761 459.431 457.461 460.481 460.881 460.481C464.361 460.481 467.091 459.431 469.071 457.331C471.051 455.171 472.041 452.111 472.041 448.151V420.701H484.731Z" fill="white"/><path opacity="0.2" d="M435.797 431.051H427.067V470.561H414.287V431.051H408.617V420.701H414.287V418.181C414.287 412.061 416.027 407.561 419.507 404.681C422.987 401.801 428.237 400.451 435.257 400.631V411.251C432.197 411.191 430.067 411.701 428.867 412.781C427.667 413.861 427.067 415.811 427.067 418.631V420.701H435.797V431.051Z" fill="white"/><path opacity="0.2" d="M672.473 364.551C672.473 366.351 672.353 367.971 672.113 369.411H635.663C635.963 373.011 637.223 375.831 639.443 377.871C641.663 379.911 644.393 380.931 647.633 380.931C652.313 380.931 655.643 378.921 657.623 374.901H671.213C669.773 379.701 667.013 383.661 662.933 386.781C658.853 389.841 653.843 391.371 647.903 391.371C643.103 391.371 638.783 390.321 634.943 388.221C631.163 386.061 628.193 383.031 626.033 379.131C623.933 375.231 622.883 370.731 622.883 365.631C622.883 360.471 623.933 355.941 626.033 352.041C628.133 348.141 631.073 345.141 634.853 343.041C638.633 340.941 642.983 339.891 647.903 339.891C652.643 339.891 656.873 340.911 660.593 342.951C664.373 344.991 667.283 347.901 669.323 351.681C671.423 355.401 672.473 359.691 672.473 364.551ZM659.423 360.951C659.363 357.711 658.193 355.131 655.913 353.211C653.633 351.231 650.843 350.241 647.543 350.241C644.423 350.241 641.783 351.201 639.623 353.121C637.523 354.981 636.233 357.591 635.753 360.951H659.423Z" fill="white"/><path opacity="0.2" d="M601.002 339.981C604.782 339.981 608.142 340.821 611.082 342.501C614.022 344.121 616.302 346.551 617.922 349.791C619.602 352.971 620.442 356.811 620.442 361.311V390.561H607.842V363.021C607.842 359.061 606.852 356.031 604.872 353.931C602.892 351.771 600.192 350.691 596.772 350.691C593.292 350.691 590.532 351.771 588.492 353.931C586.512 356.031 585.522 359.061 585.522 363.021V390.561H572.922V323.961H585.522V346.911C587.142 344.751 589.302 343.071 592.002 341.871C594.702 340.611 597.702 339.981 601.002 339.981Z" fill="white"/><path opacity="0.2" d="M558.997 351.051V375.171C558.997 376.851 559.387 378.081 560.167 378.861C561.007 379.581 562.387 379.941 564.307 379.941H570.157V390.561H562.237C551.617 390.561 546.307 385.401 546.307 375.081V351.051H540.367V340.701H546.307V328.371H558.997V340.701H570.157V351.051H558.997Z" fill="white"/><path opacity="0.2" d="M494.016 339.891C497.736 339.891 501.006 340.641 503.826 342.141C506.646 343.581 508.866 345.471 510.486 347.811V340.701H523.176V390.921C523.176 395.541 522.246 399.651 520.386 403.251C518.526 406.911 515.736 409.791 512.016 411.891C508.296 414.051 503.796 415.131 498.516 415.131C491.436 415.131 485.616 413.481 481.056 410.181C476.556 406.881 474.006 402.381 473.406 396.681H485.916C486.576 398.961 487.986 400.761 490.146 402.081C492.366 403.461 495.036 404.151 498.156 404.151C501.816 404.151 504.786 403.041 507.066 400.821C509.346 398.661 510.486 395.361 510.486 390.921V383.181C508.866 385.521 506.616 387.471 503.736 389.031C500.916 390.591 497.676 391.371 494.016 391.371C489.816 391.371 485.976 390.291 482.496 388.131C479.016 385.971 476.256 382.941 474.216 379.041C472.236 375.081 471.246 370.551 471.246 365.451C471.246 360.411 472.236 355.941 474.216 352.041C476.256 348.141 478.986 345.141 482.406 343.041C485.886 340.941 489.756 339.891 494.016 339.891ZM510.486 365.631C510.486 362.571 509.886 359.961 508.686 357.801C507.486 355.581 505.866 353.901 503.826 352.761C501.786 351.561 499.596 350.961 497.256 350.961C494.916 350.961 492.756 351.531 490.776 352.671C488.796 353.811 487.176 355.491 485.916 357.711C484.716 359.871 484.116 362.451 484.116 365.451C484.116 368.451 484.716 371.091 485.916 373.371C487.176 375.591 488.796 377.301 490.776 378.501C492.816 379.701 494.976 380.301 497.256 380.301C499.596 380.301 501.786 379.731 503.826 378.591C505.866 377.391 507.486 375.711 508.686 373.551C509.886 371.331 510.486 368.691 510.486 365.631Z" fill="white"/><path opacity="0.2" d="M448.915 339.98C454.855 339.98 459.655 341.87 463.315 345.65C466.975 349.37 468.805 354.59 468.805 361.31V390.56H456.205V363.02C456.205 359.06 455.215 356.03 453.235 353.93C451.255 351.77 448.555 350.69 445.135 350.69C441.655 350.69 438.895 351.77 436.855 353.93C434.875 356.03 433.885 359.06 433.885 363.02V390.56H421.285V340.7H433.885V346.91C435.565 344.75 437.695 343.07 440.275 341.87C442.915 340.61 445.795 339.98 448.915 339.98Z" fill="white"/><path opacity="0.2" d="M408.928 334.76C406.708 334.76 404.848 334.07 403.348 332.69C401.908 331.25 401.188 329.48 401.188 327.38C401.188 325.28 401.908 323.54 403.348 322.16C404.848 320.72 406.708 320 408.928 320C411.148 320 412.978 320.72 414.418 322.16C415.918 323.54 416.668 325.28 416.668 327.38C416.668 329.48 415.918 331.25 414.418 332.69C412.978 334.07 411.148 334.76 408.928 334.76ZM415.138 340.7V390.56H402.538V340.7H415.138Z" fill="white"/><path opacity="0.2" d="M388.614 351.051V375.171C388.614 376.851 389.004 378.081 389.784 378.861C390.624 379.581 392.004 379.941 393.924 379.941H399.774V390.561H391.854C381.234 390.561 375.924 385.401 375.924 375.081V351.051H369.984V340.701H375.924V328.371H388.614V340.701H399.774V351.051H388.614Z" fill="white"/><path opacity="0.2" d="M316.008 365.451C316.008 360.411 316.998 355.941 318.978 352.041C321.018 348.141 323.748 345.141 327.168 343.041C330.648 340.941 334.518 339.891 338.778 339.891C342.498 339.891 345.738 340.641 348.498 342.141C351.318 343.641 353.568 345.531 355.248 347.811V340.701H367.938V390.561H355.248V383.271C353.628 385.611 351.378 387.561 348.498 389.121C345.678 390.621 342.408 391.371 338.688 391.371C334.488 391.371 330.648 390.291 327.168 388.131C323.748 385.971 321.018 382.941 318.978 379.041C316.998 375.081 316.008 370.551 316.008 365.451ZM355.248 365.631C355.248 362.571 354.648 359.961 353.448 357.801C352.248 355.581 350.628 353.901 348.588 352.761C346.548 351.561 344.358 350.961 342.018 350.961C339.678 350.961 337.518 351.531 335.538 352.671C333.558 353.811 331.938 355.491 330.678 357.711C329.478 359.871 328.878 362.451 328.878 365.451C328.878 368.451 329.478 371.091 330.678 373.371C331.938 375.591 333.558 377.301 335.538 378.501C337.578 379.701 339.738 380.301 342.018 380.301C344.358 380.301 346.548 379.731 348.588 378.591C350.628 377.391 352.248 375.711 353.448 373.551C354.648 371.331 355.248 368.691 355.248 365.631Z" fill="white"/><path opacity="0.2" d="M316.352 364.551C316.352 366.351 316.232 367.971 315.992 369.411H279.542C279.842 373.011 281.102 375.831 283.322 377.871C285.542 379.911 288.272 380.931 291.512 380.931C296.192 380.931 299.522 378.921 301.502 374.901H315.092C313.652 379.701 310.892 383.661 306.812 386.781C302.732 389.841 297.722 391.371 291.782 391.371C286.982 391.371 282.662 390.321 278.822 388.221C275.042 386.061 272.072 383.031 269.912 379.131C267.812 375.231 266.762 370.731 266.762 365.631C266.762 360.471 267.812 355.941 269.912 352.041C272.012 348.141 274.952 345.141 278.732 343.041C282.512 340.941 286.862 339.891 291.782 339.891C296.522 339.891 300.752 340.911 304.472 342.951C308.252 344.991 311.162 347.901 313.202 351.681C315.302 355.401 316.352 359.691 316.352 364.551ZM303.302 360.951C303.242 357.711 302.072 355.131 299.792 353.211C297.512 351.231 294.722 350.241 291.422 350.241C288.302 350.241 285.662 351.201 283.502 353.121C281.402 354.981 280.112 357.591 279.632 360.951H303.302Z" fill="white"/><path opacity="0.2" d="M252.514 348.44C254.134 345.8 256.234 343.73 258.814 342.23C261.454 340.73 264.454 339.98 267.814 339.98V353.21H264.484C260.524 353.21 257.524 354.14 255.484 356C253.504 357.86 252.514 361.1 252.514 365.72V390.56H239.914V340.7H252.514V348.44Z" fill="white"/><path opacity="0.2" d="M188.832 365.631C188.832 360.471 189.882 355.971 191.982 352.131C194.082 348.231 196.992 345.231 200.712 343.131C204.432 340.971 208.692 339.891 213.492 339.891C219.672 339.891 224.772 341.451 228.792 344.571C232.872 347.631 235.602 351.951 236.982 357.531H223.392C222.672 355.371 221.442 353.691 219.702 352.491C218.022 351.231 215.922 350.601 213.402 350.601C209.802 350.601 206.952 351.921 204.852 354.561C202.752 357.141 201.702 360.831 201.702 365.631C201.702 370.371 202.752 374.061 204.852 376.701C206.952 379.281 209.802 380.571 213.402 380.571C218.502 380.571 221.832 378.291 223.392 373.731H236.982C235.602 379.131 232.872 383.421 228.792 386.601C224.712 389.781 219.612 391.371 213.492 391.371C208.692 391.371 204.432 390.321 200.712 388.221C196.992 386.061 194.082 383.061 191.982 379.221C189.882 375.321 188.832 370.791 188.832 365.631Z" fill="white"/><path opacity="0.2" d="M661.238 273.121V283.741H623.078V273.121H661.238Z" fill="white"/><path opacity="0.2" d="M593.946 311.371C589.146 311.371 584.826 310.321 580.986 308.221C577.146 306.061 574.116 303.031 571.896 299.131C569.736 295.231 568.656 290.731 568.656 285.631C568.656 280.531 569.766 276.031 571.986 272.131C574.266 268.231 577.356 265.231 581.256 263.131C585.156 260.971 589.506 259.891 594.306 259.891C599.106 259.891 603.456 260.971 607.356 263.131C611.256 265.231 614.316 268.231 616.536 272.131C618.816 276.031 619.956 280.531 619.956 285.631C619.956 290.731 618.786 295.231 616.446 299.131C614.166 303.031 611.046 306.061 607.086 308.221C603.186 310.321 598.806 311.371 593.946 311.371ZM593.946 300.391C596.226 300.391 598.356 299.851 600.336 298.771C602.376 297.631 603.996 295.951 605.196 293.731C606.396 291.511 606.996 288.811 606.996 285.631C606.996 280.891 605.736 277.261 603.216 274.741C600.756 272.161 597.726 270.871 594.126 270.871C590.526 270.871 587.496 272.161 585.036 274.741C582.636 277.261 581.436 280.891 581.436 285.631C581.436 290.371 582.606 294.031 584.946 296.611C587.346 299.131 590.346 300.391 593.946 300.391Z" fill="white"/><path opacity="0.2" d="M520.727 285.631C520.727 280.471 521.777 275.971 523.877 272.131C525.977 268.231 528.887 265.231 532.607 263.131C536.327 260.971 540.587 259.891 545.387 259.891C551.567 259.891 556.667 261.451 560.687 264.571C564.767 267.631 567.497 271.951 568.877 277.531H555.287C554.567 275.371 553.337 273.691 551.597 272.491C549.917 271.231 547.817 270.601 545.297 270.601C541.697 270.601 538.847 271.921 536.747 274.561C534.647 277.141 533.597 280.831 533.597 285.631C533.597 290.371 534.647 294.061 536.747 296.701C538.847 299.281 541.697 300.571 545.297 300.571C550.397 300.571 553.727 298.291 555.287 293.731H568.877C567.497 299.131 564.767 303.421 560.687 306.601C556.607 309.781 551.507 311.371 545.387 311.371C540.587 311.371 536.327 310.321 532.607 308.221C528.887 306.061 525.977 303.061 523.877 299.221C521.777 295.321 520.727 290.791 520.727 285.631Z" fill="white"/><path opacity="0.2" d="M483.247 259.98C489.187 259.98 493.987 261.87 497.647 265.65C501.307 269.37 503.137 274.59 503.137 281.31V310.56H490.537V283.02C490.537 279.06 489.547 276.03 487.567 273.93C485.587 271.77 482.887 270.69 479.467 270.69C475.987 270.69 473.227 271.77 471.187 273.93C469.207 276.03 468.217 279.06 468.217 283.02V310.56H455.617V260.7H468.217V266.91C469.897 264.75 472.027 263.07 474.607 261.87C477.247 260.61 480.127 259.98 483.247 259.98Z" fill="white"/><path opacity="0.2" d="M443.26 254.76C441.04 254.76 439.18 254.07 437.68 252.69C436.24 251.25 435.52 249.48 435.52 247.38C435.52 245.28 436.24 243.54 437.68 242.16C439.18 240.72 441.04 240 443.26 240C445.48 240 447.31 240.72 448.75 242.16C450.25 243.54 451 245.28 451 247.38C451 249.48 450.25 251.25 448.75 252.69C447.31 254.07 445.48 254.76 443.26 254.76ZM449.47 260.7V310.56H436.87V260.7H449.47Z" fill="white"/><path opacity="0.2" d="M398.061 311.371C393.981 311.371 390.321 310.651 387.081 309.211C383.841 307.711 381.261 305.701 379.341 303.181C377.481 300.661 376.461 297.871 376.281 294.811H388.971C389.211 296.731 390.141 298.321 391.761 299.581C393.441 300.841 395.511 301.471 397.971 301.471C400.371 301.471 402.231 300.991 403.551 300.031C404.931 299.071 405.621 297.841 405.621 296.341C405.621 294.721 404.781 293.521 403.101 292.741C401.481 291.901 398.871 291.001 395.271 290.041C391.551 289.141 388.491 288.211 386.091 287.251C383.751 286.291 381.711 284.821 379.971 282.841C378.291 280.861 377.451 278.191 377.451 274.831C377.451 272.071 378.231 269.551 379.791 267.271C381.411 264.991 383.691 263.191 386.631 261.871C389.631 260.551 393.141 259.891 397.161 259.891C403.101 259.891 407.841 261.391 411.381 264.391C414.921 267.331 416.871 271.321 417.231 276.361H405.171C404.991 274.381 404.151 272.821 402.651 271.681C401.211 270.481 399.261 269.881 396.801 269.881C394.521 269.881 392.751 270.301 391.491 271.141C390.291 271.981 389.691 273.151 389.691 274.651C389.691 276.331 390.531 277.621 392.211 278.521C393.891 279.361 396.501 280.231 400.041 281.131C403.641 282.031 406.611 282.961 408.951 283.921C411.291 284.881 413.301 286.381 414.981 288.421C416.721 290.401 417.621 293.041 417.681 296.341C417.681 299.221 416.871 301.801 415.251 304.081C413.691 306.361 411.411 308.161 408.411 309.481C405.471 310.741 402.021 311.371 398.061 311.371Z" fill="white"/><path opacity="0.2" d="M361.495 268.44C363.115 265.8 365.215 263.73 367.795 262.23C370.435 260.73 373.435 259.98 376.795 259.98V273.21H373.465C369.505 273.21 366.505 274.14 364.465 276C362.485 277.86 361.495 281.1 361.495 285.72V310.56H348.895V260.7H361.495V268.44Z" fill="white"/><path opacity="0.2" d="M346 284.551C346 286.351 345.88 287.971 345.64 289.411H309.19C309.49 293.011 310.75 295.831 312.97 297.871C315.19 299.911 317.92 300.931 321.16 300.931C325.84 300.931 329.17 298.921 331.15 294.901H344.74C343.3 299.701 340.54 303.661 336.46 306.781C332.38 309.841 327.37 311.371 321.43 311.371C316.63 311.371 312.31 310.321 308.47 308.221C304.69 306.061 301.72 303.031 299.56 299.131C297.46 295.231 296.41 290.731 296.41 285.631C296.41 280.471 297.46 275.941 299.56 272.041C301.66 268.141 304.6 265.141 308.38 263.041C312.16 260.941 316.51 259.891 321.43 259.891C326.17 259.891 330.4 260.911 334.12 262.951C337.9 264.991 340.81 267.901 342.85 271.681C344.95 275.401 346 279.691 346 284.551ZM332.95 280.951C332.89 277.711 331.72 275.131 329.44 273.211C327.16 271.231 324.37 270.241 321.07 270.241C317.95 270.241 315.31 271.201 313.15 273.121C311.05 274.981 309.76 277.591 309.28 280.951H332.95Z" fill="white"/><path opacity="0.2" d="M274.075 259.98C280.015 259.98 284.815 261.87 288.475 265.65C292.135 269.37 293.965 274.59 293.965 281.31V310.56H281.365V283.02C281.365 279.06 280.375 276.03 278.395 273.93C276.415 271.77 273.715 270.69 270.295 270.69C266.815 270.69 264.055 271.77 262.015 273.93C260.035 276.03 259.045 279.06 259.045 283.02V310.56H246.445V260.7H259.045V266.91C260.725 264.75 262.855 263.07 265.435 261.87C268.075 260.61 270.955 259.98 274.075 259.98Z" fill="white"/><path opacity="0.2" d="M232.525 271.051V295.171C232.525 296.851 232.915 298.081 233.695 298.861C234.535 299.581 235.915 299.941 237.835 299.941H243.685V310.561H235.765C225.145 310.561 219.835 305.401 219.835 295.081V271.051H213.895V260.701H219.835V248.371H232.525V260.701H243.685V271.051H232.525Z" fill="white"/><path opacity="0.2" d="M200.366 268.44C201.986 265.8 204.086 263.73 206.666 262.23C209.306 260.73 212.306 259.98 215.666 259.98V273.21H212.336C208.376 273.21 205.376 274.14 203.336 276C201.356 277.86 200.366 281.1 200.366 285.72V310.56H187.766V260.7H200.366V268.44Z" fill="white"/><path opacity="0.2" d="M129.832 285.451C129.832 280.411 130.822 275.941 132.802 272.041C134.842 268.141 137.572 265.141 140.992 263.041C144.472 260.941 148.342 259.891 152.602 259.891C156.322 259.891 159.562 260.641 162.322 262.141C165.142 263.641 167.392 265.531 169.072 267.811V260.701H181.762V310.561H169.072V303.271C167.452 305.611 165.202 307.561 162.322 309.121C159.502 310.621 156.232 311.371 152.512 311.371C148.312 311.371 144.472 310.291 140.992 308.131C137.572 305.971 134.842 302.941 132.802 299.041C130.822 295.081 129.832 290.551 129.832 285.451ZM169.072 285.631C169.072 282.571 168.472 279.961 167.272 277.801C166.072 275.581 164.452 273.901 162.412 272.761C160.372 271.561 158.182 270.961 155.842 270.961C153.502 270.961 151.342 271.531 149.362 272.671C147.382 273.811 145.762 275.491 144.502 277.711C143.302 279.871 142.702 282.451 142.702 285.451C142.702 288.451 143.302 291.091 144.502 293.371C145.762 295.591 147.382 297.301 149.362 298.501C151.402 299.701 153.562 300.301 155.842 300.301C158.182 300.301 160.372 299.731 162.412 298.591C164.452 297.391 166.072 295.711 167.272 293.551C168.472 291.331 169.072 288.691 169.072 285.631Z" fill="white"/><path opacity="0.2" d="M90.975 267.901C92.595 265.621 94.815 263.731 97.635 262.231C100.515 260.671 103.785 259.891 107.445 259.891C111.705 259.891 115.545 260.941 118.965 263.041C122.445 265.141 125.175 268.141 127.155 272.041C129.195 275.881 130.215 280.351 130.215 285.451C130.215 290.551 129.195 295.081 127.155 299.041C125.175 302.941 122.445 305.971 118.965 308.131C115.545 310.291 111.705 311.371 107.445 311.371C103.785 311.371 100.545 310.621 97.725 309.121C94.965 307.621 92.715 305.731 90.975 303.451V334.321H78.375V260.701H90.975V267.901ZM117.345 285.451C117.345 282.451 116.715 279.871 115.455 277.711C114.255 275.491 112.635 273.811 110.595 272.671C108.615 271.531 106.455 270.961 104.115 270.961C101.835 270.961 99.675 271.561 97.635 272.761C95.655 273.901 94.035 275.581 92.775 277.801C91.575 280.021 90.975 282.631 90.975 285.631C90.975 288.631 91.575 291.241 92.775 293.461C94.035 295.681 95.655 297.391 97.635 298.591C99.675 299.731 101.835 300.301 104.115 300.301C106.455 300.301 108.615 299.701 110.595 298.501C112.635 297.301 114.255 295.591 115.455 293.371C116.715 291.151 117.345 288.511 117.345 285.451Z" fill="white"/><path opacity="0.2" d="M640.204 179.891C643.924 179.891 647.194 180.641 650.014 182.141C652.834 183.581 655.054 185.471 656.674 187.811V180.701H669.364V230.921C669.364 235.541 668.434 239.651 666.574 243.251C664.714 246.911 661.924 249.791 658.204 251.891C654.484 254.051 649.984 255.131 644.704 255.131C637.624 255.131 631.804 253.481 627.244 250.181C622.744 246.881 620.194 242.381 619.594 236.681H632.104C632.764 238.961 634.174 240.761 636.334 242.081C638.554 243.461 641.224 244.151 644.344 244.151C648.004 244.151 650.974 243.041 653.254 240.821C655.534 238.661 656.674 235.361 656.674 230.921V223.181C655.054 225.521 652.804 227.471 649.924 229.031C647.104 230.591 643.864 231.371 640.204 231.371C636.004 231.371 632.164 230.291 628.684 228.131C625.204 225.971 622.444 222.941 620.404 219.041C618.424 215.081 617.434 210.551 617.434 205.451C617.434 200.411 618.424 195.941 620.404 192.041C622.444 188.141 625.174 185.141 628.594 183.041C632.074 180.941 635.944 179.891 640.204 179.891ZM656.674 205.631C656.674 202.571 656.074 199.961 654.874 197.801C653.674 195.581 652.054 193.901 650.014 192.761C647.974 191.561 645.784 190.961 643.444 190.961C641.104 190.961 638.944 191.531 636.964 192.671C634.984 193.811 633.364 195.491 632.104 197.711C630.904 199.871 630.304 202.451 630.304 205.451C630.304 208.451 630.904 211.091 632.104 213.371C633.364 215.591 634.984 217.301 636.964 218.501C639.004 219.701 641.164 220.301 643.444 220.301C645.784 220.301 647.974 219.731 650.014 218.591C652.054 217.391 653.674 215.711 654.874 213.551C656.074 211.331 656.674 208.691 656.674 205.631Z" fill="white"/><path opacity="0.2" d="M595.103 179.98C601.043 179.98 605.843 181.87 609.503 185.65C613.163 189.37 614.993 194.59 614.993 201.31V230.56H602.393V203.02C602.393 199.06 601.403 196.03 599.423 193.93C597.443 191.77 594.743 190.69 591.323 190.69C587.843 190.69 585.083 191.77 583.043 193.93C581.063 196.03 580.073 199.06 580.073 203.02V230.56H567.473V180.7H580.073V186.91C581.753 184.75 583.883 183.07 586.463 181.87C589.103 180.61 591.983 179.98 595.103 179.98Z" fill="white"/><path opacity="0.2" d="M555.115 174.76C552.895 174.76 551.035 174.07 549.535 172.69C548.095 171.25 547.375 169.48 547.375 167.38C547.375 165.28 548.095 163.54 549.535 162.16C551.035 160.72 552.895 160 555.115 160C557.335 160 559.165 160.72 560.605 162.16C562.105 163.54 562.855 165.28 562.855 167.38C562.855 169.48 562.105 171.25 560.605 172.69C559.165 174.07 557.335 174.76 555.115 174.76ZM561.325 180.7V230.56H548.725V180.7H561.325Z" fill="white"/><path opacity="0.2" d="M522.635 179.98C528.755 179.98 533.675 181.87 537.395 185.65C541.175 189.37 543.065 194.59 543.065 201.31V230.56H530.465V203.02C530.465 199.12 529.475 196.15 527.495 194.11C525.515 192.01 522.815 190.96 519.395 190.96C515.975 190.96 513.245 192.01 511.205 194.11C509.225 196.15 508.235 199.12 508.235 203.02V230.56H495.635V203.02C495.635 199.12 494.645 196.15 492.665 194.11C490.685 192.01 487.985 190.96 484.565 190.96C481.085 190.96 478.325 192.01 476.285 194.11C474.305 196.15 473.315 199.12 473.315 203.02V230.56H460.715V180.7H473.315V186.73C474.935 184.63 477.005 182.98 479.525 181.78C482.105 180.58 484.925 179.98 487.985 179.98C491.885 179.98 495.365 180.82 498.425 182.5C501.485 184.12 503.855 186.46 505.535 189.52C507.155 186.64 509.495 184.33 512.555 182.59C515.675 180.85 519.035 179.98 522.635 179.98Z" fill="white"/><path opacity="0.2" d="M431.763 231.371C426.963 231.371 422.643 230.321 418.803 228.221C414.963 226.061 411.933 223.031 409.713 219.131C407.553 215.231 406.473 210.731 406.473 205.631C406.473 200.531 407.583 196.031 409.803 192.131C412.083 188.231 415.173 185.231 419.073 183.131C422.973 180.971 427.323 179.891 432.123 179.891C436.923 179.891 441.273 180.971 445.173 183.131C449.073 185.231 452.133 188.231 454.353 192.131C456.633 196.031 457.773 200.531 457.773 205.631C457.773 210.731 456.603 215.231 454.263 219.131C451.983 223.031 448.863 226.061 444.903 228.221C441.003 230.321 436.623 231.371 431.763 231.371ZM431.763 220.391C434.043 220.391 436.173 219.851 438.153 218.771C440.193 217.631 441.813 215.951 443.013 213.731C444.213 211.511 444.813 208.811 444.813 205.631C444.813 200.891 443.553 197.261 441.033 194.741C438.573 192.161 435.543 190.871 431.943 190.871C428.343 190.871 425.313 192.161 422.853 194.741C420.453 197.261 419.253 200.891 419.253 205.631C419.253 210.371 420.423 214.031 422.763 216.611C425.163 219.131 428.163 220.391 431.763 220.391Z" fill="white"/><path opacity="0.2" d="M358.543 205.631C358.543 200.471 359.593 195.971 361.693 192.131C363.793 188.231 366.703 185.231 370.423 183.131C374.143 180.971 378.403 179.891 383.203 179.891C389.383 179.891 394.483 181.451 398.503 184.571C402.583 187.631 405.313 191.951 406.693 197.531H393.103C392.383 195.371 391.153 193.691 389.413 192.491C387.733 191.231 385.633 190.601 383.113 190.601C379.513 190.601 376.663 191.921 374.563 194.561C372.463 197.141 371.413 200.831 371.413 205.631C371.413 210.371 372.463 214.061 374.563 216.701C376.663 219.281 379.513 220.571 383.113 220.571C388.213 220.571 391.543 218.291 393.103 213.731H406.693C405.313 219.131 402.583 223.421 398.503 226.601C394.423 229.781 389.323 231.371 383.203 231.371C378.403 231.371 374.143 230.321 370.423 228.221C366.703 226.061 363.793 223.061 361.693 219.221C359.593 215.321 358.543 210.791 358.543 205.631Z" fill="white"/><path opacity="0.2" d="M358.887 204.551C358.887 206.351 358.767 207.971 358.527 209.411H322.077C322.377 213.011 323.637 215.831 325.857 217.871C328.077 219.911 330.807 220.931 334.047 220.931C338.727 220.931 342.057 218.921 344.037 214.901H357.627C356.187 219.701 353.427 223.661 349.347 226.781C345.267 229.841 340.257 231.371 334.317 231.371C329.517 231.371 325.197 230.321 321.357 228.221C317.577 226.061 314.607 223.031 312.447 219.131C310.347 215.231 309.297 210.731 309.297 205.631C309.297 200.471 310.347 195.941 312.447 192.041C314.547 188.141 317.487 185.141 321.267 183.041C325.047 180.941 329.397 179.891 334.317 179.891C339.057 179.891 343.287 180.911 347.007 182.951C350.787 184.991 353.697 187.901 355.737 191.681C357.837 195.401 358.887 199.691 358.887 204.551ZM345.837 200.951C345.777 197.711 344.607 195.131 342.327 193.211C340.047 191.231 337.257 190.241 333.957 190.241C330.837 190.241 328.197 191.201 326.037 193.121C323.937 194.981 322.647 197.591 322.167 200.951H345.837Z" fill="white"/><path opacity="0.2" d="M296.644 198.34C300.184 199 303.094 200.77 305.374 203.65C307.654 206.53 308.794 209.83 308.794 213.55C308.794 216.91 307.954 219.88 306.274 222.46C304.654 224.98 302.284 226.96 299.164 228.4C296.044 229.84 292.354 230.56 288.094 230.56H261.004V167.74H286.924C291.184 167.74 294.844 168.43 297.904 169.81C301.024 171.19 303.364 173.11 304.924 175.57C306.544 178.03 307.354 180.82 307.354 183.94C307.354 187.6 306.364 190.66 304.384 193.12C302.464 195.58 299.884 197.32 296.644 198.34ZM273.604 193.66H285.124C288.124 193.66 290.434 193 292.054 191.68C293.674 190.3 294.484 188.35 294.484 185.83C294.484 183.31 293.674 181.36 292.054 179.98C290.434 178.6 288.124 177.91 285.124 177.91H273.604V193.66ZM286.294 220.3C289.354 220.3 291.724 219.58 293.404 218.14C295.144 216.7 296.014 214.66 296.014 212.02C296.014 209.32 295.114 207.22 293.314 205.72C291.514 204.16 289.084 203.38 286.024 203.38H273.604V220.3H286.294Z" fill="white"/><path opacity="0.2" d="M234.361 231.19C232.081 231.19 230.191 230.5 228.691 229.12C227.251 227.68 226.531 225.91 226.531 223.81C226.531 221.71 227.251 219.97 228.691 218.59C230.191 217.15 232.081 216.43 234.361 216.43C236.581 216.43 238.411 217.15 239.851 218.59C241.291 219.97 242.011 221.71 242.011 223.81C242.011 225.91 241.291 227.68 239.851 229.12C238.411 230.5 236.581 231.19 234.361 231.19Z" fill="white"/><path opacity="0.2" d="M225.883 204.551C225.883 206.351 225.763 207.971 225.523 209.411H189.073C189.373 213.011 190.633 215.831 192.853 217.871C195.073 219.911 197.803 220.931 201.043 220.931C205.723 220.931 209.053 218.921 211.033 214.901H224.623C223.183 219.701 220.423 223.661 216.343 226.781C212.263 229.841 207.253 231.371 201.313 231.371C196.513 231.371 192.193 230.321 188.353 228.221C184.573 226.061 181.603 223.031 179.443 219.131C177.343 215.231 176.293 210.731 176.293 205.631C176.293 200.471 177.343 195.941 179.443 192.041C181.543 188.141 184.483 185.141 188.263 183.041C192.043 180.941 196.393 179.891 201.313 179.891C206.053 179.891 210.283 180.911 214.003 182.951C217.783 184.991 220.693 187.901 222.733 191.681C224.833 195.401 225.883 199.691 225.883 204.551ZM212.833 200.951C212.773 197.711 211.603 195.131 209.323 193.211C207.043 191.231 204.253 190.241 200.953 190.241C197.833 190.241 195.193 191.201 193.033 193.121C190.933 194.981 189.643 197.591 189.163 200.951H212.833Z" fill="white"/><path opacity="0.2" d="M173.403 180.701V230.561H160.713V224.261C159.093 226.421 156.963 228.131 154.323 229.391C151.743 230.591 148.923 231.191 145.863 231.191C141.963 231.191 138.513 230.381 135.513 228.761C132.513 227.081 130.143 224.651 128.403 221.471C126.723 218.231 125.883 214.391 125.883 209.951V180.701H138.483V208.151C138.483 212.111 139.473 215.171 141.453 217.331C143.433 219.431 146.133 220.481 149.553 220.481C153.033 220.481 155.763 219.431 157.743 217.331C159.723 215.171 160.713 212.111 160.713 208.151V180.701H173.403Z" fill="white"/><path opacity="0.2" d="M120.182 163.961V230.561H107.582V163.961H120.182Z" fill="white"/><path opacity="0.2" d="M49.6484 205.451C49.6484 200.411 50.6384 195.941 52.6184 192.041C54.6584 188.141 57.3884 185.141 60.8084 183.041C64.2884 180.941 68.1584 179.891 72.4184 179.891C76.1384 179.891 79.3784 180.641 82.1384 182.141C84.9584 183.641 87.2084 185.531 88.8884 187.811V180.701H101.578V230.561H88.8884V223.271C87.2684 225.611 85.0184 227.561 82.1384 229.121C79.3184 230.621 76.0484 231.371 72.3284 231.371C68.1284 231.371 64.2884 230.291 60.8084 228.131C57.3884 225.971 54.6584 222.941 52.6184 219.041C50.6384 215.081 49.6484 210.551 49.6484 205.451ZM88.8884 205.631C88.8884 202.571 88.2884 199.961 87.0884 197.801C85.8884 195.581 84.2684 193.901 82.2284 192.761C80.1884 191.561 77.9984 190.961 75.6584 190.961C73.3184 190.961 71.1584 191.531 69.1784 192.671C67.1984 193.811 65.5784 195.491 64.3184 197.711C63.1184 199.871 62.5184 202.451 62.5184 205.451C62.5184 208.451 63.1184 211.091 64.3184 213.371C65.5784 215.591 67.1984 217.301 69.1784 218.501C71.2184 219.701 73.3784 220.301 75.6584 220.301C77.9984 220.301 80.1884 219.731 82.2284 218.591C84.2684 217.391 85.8884 215.711 87.0884 213.551C88.2884 211.331 88.8884 208.691 88.8884 205.631Z" fill="white"/><path opacity="0.2" d="M26.1 218.951L38.7 180.701H52.11L33.66 230.561H18.36L0 180.701H13.5L26.1 218.951Z" fill="white"/><path opacity="0.2" d="M640.204 99.8906C643.924 99.8906 647.194 100.641 650.014 102.141C652.834 103.581 655.054 105.471 656.674 107.811V100.701H669.364V150.921C669.364 155.541 668.434 159.651 666.574 163.251C664.714 166.911 661.924 169.791 658.204 171.891C654.484 174.051 649.984 175.131 644.704 175.131C637.624 175.131 631.804 173.481 627.244 170.181C622.744 166.881 620.194 162.381 619.594 156.681H632.104C632.764 158.961 634.174 160.761 636.334 162.081C638.554 163.461 641.224 164.151 644.344 164.151C648.004 164.151 650.974 163.041 653.254 160.821C655.534 158.661 656.674 155.361 656.674 150.921V143.181C655.054 145.521 652.804 147.471 649.924 149.031C647.104 150.591 643.864 151.371 640.204 151.371C636.004 151.371 632.164 150.291 628.684 148.131C625.204 145.971 622.444 142.941 620.404 139.041C618.424 135.081 617.434 130.551 617.434 125.451C617.434 120.411 618.424 115.941 620.404 112.041C622.444 108.141 625.174 105.141 628.594 103.041C632.074 100.941 635.944 99.8906 640.204 99.8906ZM656.674 125.631C656.674 122.571 656.074 119.961 654.874 117.801C653.674 115.581 652.054 113.901 650.014 112.761C647.974 111.561 645.784 110.961 643.444 110.961C641.104 110.961 638.944 111.531 636.964 112.671C634.984 113.811 633.364 115.491 632.104 117.711C630.904 119.871 630.304 122.451 630.304 125.451C630.304 128.451 630.904 131.091 632.104 133.371C633.364 135.591 634.984 137.301 636.964 138.501C639.004 139.701 641.164 140.301 643.444 140.301C645.784 140.301 647.974 139.731 650.014 138.591C652.054 137.391 653.674 135.711 654.874 133.551C656.074 131.331 656.674 128.691 656.674 125.631Z" fill="white"/><path opacity="0.2" d="M595.103 99.9805C601.043 99.9805 605.843 101.87 609.503 105.65C613.163 109.37 614.993 114.59 614.993 121.31V150.56H602.393V123.02C602.393 119.06 601.403 116.03 599.423 113.93C597.443 111.77 594.743 110.69 591.323 110.69C587.843 110.69 585.083 111.77 583.043 113.93C581.063 116.03 580.073 119.06 580.073 123.02V150.56H567.473V100.7H580.073V106.91C581.753 104.75 583.883 103.07 586.463 101.87C589.103 100.61 591.983 99.9805 595.103 99.9805Z" fill="white"/><path opacity="0.2" d="M555.115 94.76C552.895 94.76 551.035 94.07 549.535 92.69C548.095 91.25 547.375 89.48 547.375 87.38C547.375 85.28 548.095 83.54 549.535 82.16C551.035 80.72 552.895 80 555.115 80C557.335 80 559.165 80.72 560.605 82.16C562.105 83.54 562.855 85.28 562.855 87.38C562.855 89.48 562.105 91.25 560.605 92.69C559.165 94.07 557.335 94.76 555.115 94.76ZM561.325 100.7V150.56H548.725V100.7H561.325Z" fill="white"/><path opacity="0.2" d="M534.802 111.051V135.171C534.802 136.851 535.192 138.081 535.972 138.861C536.812 139.581 538.192 139.941 540.112 139.941H545.962V150.561H538.042C527.422 150.561 522.112 145.401 522.112 135.081V111.051H516.172V100.701H522.112V88.3711H534.802V100.701H545.962V111.051H534.802Z" fill="white"/><path opacity="0.2" d="M469.051 125.631C469.051 120.471 470.101 115.971 472.201 112.131C474.301 108.231 477.211 105.231 480.931 103.131C484.651 100.971 488.911 99.8906 493.711 99.8906C499.891 99.8906 504.991 101.451 509.011 104.571C513.091 107.631 515.821 111.951 517.201 117.531H503.611C502.891 115.371 501.661 113.691 499.921 112.491C498.241 111.231 496.141 110.601 493.621 110.601C490.021 110.601 487.171 111.921 485.071 114.561C482.971 117.141 481.921 120.831 481.921 125.631C481.921 130.371 482.971 134.061 485.071 136.701C487.171 139.281 490.021 140.571 493.621 140.571C498.721 140.571 502.051 138.291 503.611 133.731H517.201C515.821 139.131 513.091 143.421 509.011 146.601C504.931 149.781 499.831 151.371 493.711 151.371C488.911 151.371 484.651 150.321 480.931 148.221C477.211 146.061 474.301 143.061 472.201 139.221C470.101 135.321 469.051 130.791 469.051 125.631Z" fill="white"/><path opacity="0.2" d="M469.395 124.551C469.395 126.351 469.275 127.971 469.035 129.411H432.585C432.885 133.011 434.145 135.831 436.365 137.871C438.585 139.911 441.315 140.931 444.555 140.931C449.235 140.931 452.565 138.921 454.545 134.901H468.135C466.695 139.701 463.935 143.661 459.855 146.781C455.775 149.841 450.765 151.371 444.825 151.371C440.025 151.371 435.705 150.321 431.865 148.221C428.085 146.061 425.115 143.031 422.955 139.131C420.855 135.231 419.805 130.731 419.805 125.631C419.805 120.471 420.855 115.941 422.955 112.041C425.055 108.141 427.995 105.141 431.775 103.041C435.555 100.941 439.905 99.8906 444.825 99.8906C449.565 99.8906 453.795 100.911 457.515 102.951C461.295 104.991 464.205 107.901 466.245 111.681C468.345 115.401 469.395 119.691 469.395 124.551ZM456.345 120.951C456.285 117.711 455.115 115.131 452.835 113.211C450.555 111.231 447.765 110.241 444.465 110.241C441.345 110.241 438.705 111.201 436.545 113.121C434.445 114.981 433.155 117.591 432.675 120.951H456.345Z" fill="white"/><path opacity="0.2" d="M397.47 99.9805C403.41 99.9805 408.21 101.87 411.87 105.65C415.53 109.37 417.36 114.59 417.36 121.31V150.56H404.76V123.02C404.76 119.06 403.77 116.03 401.79 113.93C399.81 111.77 397.11 110.69 393.69 110.69C390.21 110.69 387.45 111.77 385.41 113.93C383.43 116.03 382.44 119.06 382.44 123.02V150.56H369.84V100.7H382.44V106.91C384.12 104.75 386.25 103.07 388.83 101.87C391.47 100.61 394.35 99.9805 397.47 99.9805Z" fill="white"/><path opacity="0.2" d="M344.271 99.9805C350.211 99.9805 355.011 101.87 358.671 105.65C362.331 109.37 364.161 114.59 364.161 121.31V150.56H351.561V123.02C351.561 119.06 350.571 116.03 348.591 113.93C346.611 111.77 343.911 110.69 340.491 110.69C337.011 110.69 334.251 111.77 332.211 113.93C330.231 116.03 329.241 119.06 329.241 123.02V150.56H316.641V100.7H329.241V106.91C330.921 104.75 333.051 103.07 335.631 101.87C338.271 100.61 341.151 99.9805 344.271 99.9805Z" fill="white"/><path opacity="0.2" d="M287.688 151.371C282.888 151.371 278.568 150.321 274.728 148.221C270.888 146.061 267.858 143.031 265.638 139.131C263.478 135.231 262.398 130.731 262.398 125.631C262.398 120.531 263.508 116.031 265.728 112.131C268.008 108.231 271.098 105.231 274.998 103.131C278.898 100.971 283.248 99.8906 288.048 99.8906C292.848 99.8906 297.198 100.971 301.098 103.131C304.998 105.231 308.058 108.231 310.278 112.131C312.558 116.031 313.698 120.531 313.698 125.631C313.698 130.731 312.528 135.231 310.188 139.131C307.908 143.031 304.788 146.061 300.828 148.221C296.928 150.321 292.548 151.371 287.688 151.371ZM287.688 140.391C289.968 140.391 292.098 139.851 294.078 138.771C296.118 137.631 297.738 135.951 298.938 133.731C300.138 131.511 300.738 128.811 300.738 125.631C300.738 120.891 299.478 117.261 296.958 114.741C294.498 112.161 291.468 110.871 287.868 110.871C284.268 110.871 281.238 112.161 278.778 114.741C276.378 117.261 275.178 120.891 275.178 125.631C275.178 130.371 276.348 134.031 278.688 136.611C281.088 139.131 284.088 140.391 287.688 140.391Z" fill="white"/><path opacity="0.2" d="M214.465 125.631C214.465 120.471 215.515 115.971 217.615 112.131C219.715 108.231 222.625 105.231 226.345 103.131C230.065 100.971 234.325 99.8906 239.125 99.8906C245.305 99.8906 250.405 101.451 254.425 104.571C258.505 107.631 261.235 111.951 262.615 117.531H249.025C248.305 115.371 247.075 113.691 245.335 112.491C243.655 111.231 241.555 110.601 239.035 110.601C235.435 110.601 232.585 111.921 230.485 114.561C228.385 117.141 227.335 120.831 227.335 125.631C227.335 130.371 228.385 134.061 230.485 136.701C232.585 139.281 235.435 140.571 239.035 140.571C244.135 140.571 247.465 138.291 249.025 133.731H262.615C261.235 139.131 258.505 143.421 254.425 146.601C250.345 149.781 245.245 151.371 239.125 151.371C234.325 151.371 230.065 150.321 226.345 148.221C222.625 146.061 219.715 143.061 217.615 139.221C215.515 135.321 214.465 130.791 214.465 125.631Z" fill="white"/><path opacity="0.2" d="M144.625 125.451C144.625 120.411 145.615 115.941 147.595 112.041C149.635 108.141 152.395 105.141 155.875 103.041C159.355 100.941 163.225 99.8909 167.485 99.8909C170.725 99.8909 173.815 100.611 176.755 102.051C179.695 103.431 182.035 105.291 183.775 107.631V83.9609H196.555V150.561H183.775V143.181C182.215 145.641 180.025 147.621 177.205 149.121C174.385 150.621 171.115 151.371 167.395 151.371C163.195 151.371 159.355 150.291 155.875 148.131C152.395 145.971 149.635 142.941 147.595 139.041C145.615 135.081 144.625 130.551 144.625 125.451ZM183.865 125.631C183.865 122.571 183.265 119.961 182.065 117.801C180.865 115.581 179.245 113.901 177.205 112.761C175.165 111.561 172.975 110.961 170.635 110.961C168.295 110.961 166.135 111.531 164.155 112.671C162.175 113.811 160.555 115.491 159.295 117.711C158.095 119.871 157.495 122.451 157.495 125.451C157.495 128.451 158.095 131.091 159.295 133.371C160.555 135.591 162.175 137.301 164.155 138.501C166.195 139.701 168.355 140.301 170.635 140.301C172.975 140.301 175.165 139.731 177.205 138.591C179.245 137.391 180.865 135.711 182.065 133.551C183.265 131.331 183.865 128.691 183.865 125.631Z" fill="white"/><path opacity="0.2" d="M122.294 99.9805C128.234 99.9805 133.034 101.87 136.694 105.65C140.354 109.37 142.184 114.59 142.184 121.31V150.56H129.584V123.02C129.584 119.06 128.594 116.03 126.614 113.93C124.634 111.77 121.934 110.69 118.514 110.69C115.034 110.69 112.274 111.77 110.234 113.93C108.254 116.03 107.264 119.06 107.264 123.02V150.56H94.6641V100.7H107.264V106.91C108.944 104.75 111.074 103.07 113.654 101.87C116.294 100.61 119.174 99.9805 122.294 99.9805Z" fill="white"/><path opacity="0.2" d="M36.7266 125.451C36.7266 120.411 37.7166 115.941 39.6966 112.041C41.7366 108.141 44.4666 105.141 47.8866 103.041C51.3666 100.941 55.2366 99.8906 59.4966 99.8906C63.2166 99.8906 66.4566 100.641 69.2166 102.141C72.0366 103.641 74.2866 105.531 75.9666 107.811V100.701H88.6566V150.561H75.9666V143.271C74.3466 145.611 72.0966 147.561 69.2166 149.121C66.3966 150.621 63.1266 151.371 59.4066 151.371C55.2066 151.371 51.3666 150.291 47.8866 148.131C44.4666 145.971 41.7366 142.941 39.6966 139.041C37.7166 135.081 36.7266 130.551 36.7266 125.451ZM75.9666 125.631C75.9666 122.571 75.3666 119.961 74.1666 117.801C72.9666 115.581 71.3466 113.901 69.3066 112.761C67.2666 111.561 65.0766 110.961 62.7366 110.961C60.3966 110.961 58.2366 111.531 56.2566 112.671C54.2766 113.811 52.6566 115.491 51.3966 117.711C50.1966 119.871 49.5966 122.451 49.5966 125.451C49.5966 128.451 50.1966 131.091 51.3966 133.371C52.6566 135.591 54.2766 137.301 56.2566 138.501C58.2966 139.701 60.4566 140.301 62.7366 140.301C65.0766 140.301 67.2666 139.731 69.3066 138.591C71.3466 137.391 72.9666 135.711 74.1666 133.551C75.3666 131.331 75.9666 128.691 75.9666 125.631Z" fill="white"/><path opacity="0.2" d="M651.706 71.3706C647.626 71.3706 643.966 70.6506 640.726 69.2106C637.486 67.7106 634.906 65.7006 632.986 63.1806C631.126 60.6606 630.106 57.8706 629.926 54.8106H642.616C642.856 56.7306 643.786 58.3206 645.406 59.5806C647.086 60.8406 649.156 61.4706 651.616 61.4706C654.016 61.4706 655.876 60.9906 657.196 60.0306C658.576 59.0706 659.266 57.8406 659.266 56.3406C659.266 54.7206 658.426 53.5206 656.746 52.7406C655.126 51.9006 652.516 51.0006 648.916 50.0406C645.196 49.1406 642.136 48.2106 639.736 47.2506C637.396 46.2906 635.356 44.8206 633.616 42.8406C631.936 40.8606 631.096 38.1906 631.096 34.8306C631.096 32.0706 631.876 29.5506 633.436 27.2706C635.056 24.9906 637.336 23.1906 640.276 21.8706C643.276 20.5506 646.786 19.8906 650.806 19.8906C656.746 19.8906 661.486 21.3906 665.026 24.3906C668.566 27.3306 670.516 31.3206 670.876 36.3606H658.816C658.636 34.3806 657.796 32.8206 656.296 31.6806C654.856 30.4806 652.906 29.8806 650.446 29.8806C648.166 29.8806 646.396 30.3006 645.136 31.1406C643.936 31.9806 643.336 33.1506 643.336 34.6506C643.336 36.3306 644.176 37.6206 645.856 38.5206C647.536 39.3606 650.146 40.2306 653.686 41.1306C657.286 42.0306 660.256 42.9606 662.596 43.9206C664.936 44.8806 666.946 46.3806 668.626 48.4206C670.366 50.4006 671.266 53.0406 671.326 56.3406C671.326 59.2206 670.516 61.8006 668.896 64.0806C667.336 66.3606 665.056 68.1606 662.056 69.4806C659.116 70.7406 655.666 71.3706 651.706 71.3706Z" fill="white"/><path opacity="0.2" d="M574.691 45.4506C574.691 40.4106 575.681 35.9406 577.661 32.0406C579.701 28.1406 582.431 25.1406 585.851 23.0406C589.331 20.9406 593.201 19.8906 597.461 19.8906C601.181 19.8906 604.421 20.6406 607.181 22.1406C610.001 23.6406 612.251 25.5306 613.931 27.8106V20.7006H626.621V70.5606H613.931V63.2706C612.311 65.6106 610.061 67.5606 607.181 69.1206C604.361 70.6206 601.091 71.3706 597.371 71.3706C593.171 71.3706 589.331 70.2906 585.851 68.1306C582.431 65.9706 579.701 62.9406 577.661 59.0406C575.681 55.0806 574.691 50.5506 574.691 45.4506ZM613.931 45.6306C613.931 42.5706 613.331 39.9606 612.131 37.8006C610.931 35.5806 609.311 33.9006 607.271 32.7606C605.231 31.5606 603.041 30.9606 600.701 30.9606C598.361 30.9606 596.201 31.5306 594.221 32.6706C592.241 33.8106 590.621 35.4906 589.361 37.7106C588.161 39.8706 587.561 42.4506 587.561 45.4506C587.561 48.4506 588.161 51.0906 589.361 53.3706C590.621 55.5906 592.241 57.3006 594.221 58.5006C596.261 59.7006 598.421 60.3006 600.701 60.3006C603.041 60.3006 605.231 59.7306 607.271 58.5906C609.311 57.3906 610.931 55.7106 612.131 53.5506C613.331 51.3306 613.931 48.6906 613.931 45.6306Z" fill="white"/><path opacity="0.2" d="M575.035 44.5506C575.035 46.3506 574.915 47.9706 574.675 49.4106H538.225C538.525 53.0106 539.785 55.8306 542.005 57.8706C544.225 59.9106 546.955 60.9306 550.195 60.9306C554.875 60.9306 558.205 58.9206 560.185 54.9006H573.775C572.335 59.7006 569.575 63.6606 565.495 66.7806C561.415 69.8406 556.405 71.3706 550.465 71.3706C545.665 71.3706 541.345 70.3206 537.505 68.2206C533.725 66.0606 530.755 63.0306 528.595 59.1306C526.495 55.2306 525.445 50.7306 525.445 45.6306C525.445 40.4706 526.495 35.9406 528.595 32.0406C530.695 28.1406 533.635 25.1406 537.415 23.0406C541.195 20.9406 545.545 19.8906 550.465 19.8906C555.205 19.8906 559.435 20.9106 563.155 22.9506C566.935 24.9906 569.845 27.9006 571.885 31.6806C573.985 35.4006 575.035 39.6906 575.035 44.5506ZM561.985 40.9506C561.925 37.7106 560.755 35.1306 558.475 33.2106C556.195 31.2306 553.405 30.2406 550.105 30.2406C546.985 30.2406 544.345 31.2006 542.185 33.1206C540.085 34.9806 538.795 37.5906 538.315 40.9506H561.985Z" fill="white"/><path opacity="0.2" d="M470.75 45.4509C470.75 40.4109 471.74 35.9409 473.72 32.0409C475.76 28.1409 478.52 25.1409 482 23.0409C485.48 20.9409 489.35 19.8909 493.61 19.8909C496.85 19.8909 499.94 20.6109 502.88 22.0509C505.82 23.4309 508.16 25.2909 509.9 27.6309V3.96094H522.68V70.5609H509.9V63.1809C508.34 65.6409 506.15 67.6209 503.33 69.1209C500.51 70.6209 497.24 71.3709 493.52 71.3709C489.32 71.3709 485.48 70.2909 482 68.1309C478.52 65.9709 475.76 62.9409 473.72 59.0409C471.74 55.0809 470.75 50.5509 470.75 45.4509ZM509.99 45.6309C509.99 42.5709 509.39 39.9609 508.19 37.8009C506.99 35.5809 505.37 33.9009 503.33 32.7609C501.29 31.5609 499.1 30.9609 496.76 30.9609C494.42 30.9609 492.26 31.5309 490.28 32.6709C488.3 33.8109 486.68 35.4909 485.42 37.7109C484.22 39.8709 483.62 42.4509 483.62 45.4509C483.62 48.4509 484.22 51.0909 485.42 53.3709C486.68 55.5909 488.3 57.3009 490.28 58.5009C492.32 59.7009 494.48 60.3009 496.76 60.3009C499.1 60.3009 501.29 59.7309 503.33 58.5909C505.37 57.3909 506.99 55.7109 508.19 53.5509C509.39 51.3309 509.99 48.6909 509.99 45.6309Z" fill="white"/><path opacity="0.2" d="M461.631 14.76C459.411 14.76 457.551 14.07 456.051 12.69C454.611 11.25 453.891 9.48 453.891 7.38C453.891 5.28 454.611 3.54 456.051 2.16C457.551 0.72 459.411 0 461.631 0C463.851 0 465.681 0.72 467.121 2.16C468.621 3.54 469.371 5.28 469.371 7.38C469.371 9.48 468.621 11.25 467.121 12.69C465.681 14.07 463.851 14.76 461.631 14.76ZM467.841 20.7V70.56H455.241V20.7H467.841Z" fill="white"/><path opacity="0.2" d="M404.926 19.8906C408.646 19.8906 411.916 20.6406 414.736 22.1406C417.556 23.5806 419.776 25.4706 421.396 27.8106V20.7006H434.086V70.9206C434.086 75.5406 433.156 79.6506 431.296 83.2506C429.436 86.9106 426.646 89.7906 422.926 91.8906C419.206 94.0506 414.706 95.1306 409.426 95.1306C402.346 95.1306 396.526 93.4806 391.966 90.1806C387.466 86.8806 384.916 82.3806 384.316 76.6806H396.826C397.486 78.9606 398.896 80.7606 401.056 82.0806C403.276 83.4606 405.946 84.1506 409.066 84.1506C412.726 84.1506 415.696 83.0406 417.976 80.8206C420.256 78.6606 421.396 75.3606 421.396 70.9206V63.1806C419.776 65.5206 417.526 67.4706 414.646 69.0306C411.826 70.5906 408.586 71.3706 404.926 71.3706C400.726 71.3706 396.886 70.2906 393.406 68.1306C389.926 65.9706 387.166 62.9406 385.126 59.0406C383.146 55.0806 382.156 50.5506 382.156 45.4506C382.156 40.4106 383.146 35.9406 385.126 32.0406C387.166 28.1406 389.896 25.1406 393.316 23.0406C396.796 20.9406 400.666 19.8906 404.926 19.8906ZM421.396 45.6306C421.396 42.5706 420.796 39.9606 419.596 37.8006C418.396 35.5806 416.776 33.9006 414.736 32.7606C412.696 31.5606 410.506 30.9606 408.166 30.9606C405.826 30.9606 403.666 31.5306 401.686 32.6706C399.706 33.8106 398.086 35.4906 396.826 37.7106C395.626 39.8706 395.026 42.4506 395.026 45.4506C395.026 48.4506 395.626 51.0906 396.826 53.3706C398.086 55.5906 399.706 57.3006 401.686 58.5006C403.726 59.7006 405.886 60.3006 408.166 60.3006C410.506 60.3006 412.696 59.7306 414.736 58.5906C416.776 57.3906 418.396 55.7106 419.596 53.5506C420.796 51.3306 421.396 48.6906 421.396 45.6306Z" fill="white"/><path opacity="0.2" d="M359.825 19.9805C365.765 19.9805 370.565 21.8705 374.225 25.6505C377.885 29.3705 379.715 34.5905 379.715 41.3105V70.5605H367.115V43.0205C367.115 39.0605 366.125 36.0305 364.145 33.9305C362.165 31.7705 359.465 30.6905 356.045 30.6905C352.565 30.6905 349.805 31.7705 347.765 33.9305C345.785 36.0305 344.795 39.0605 344.795 43.0205V70.5605H332.195V20.7005H344.795V26.9105C346.475 24.7505 348.605 23.0705 351.185 21.8705C353.825 20.6105 356.705 19.9805 359.825 19.9805Z" fill="white"/><path opacity="0.2" d="M319.838 14.76C317.618 14.76 315.758 14.07 314.258 12.69C312.818 11.25 312.098 9.48 312.098 7.38C312.098 5.28 312.818 3.54 314.258 2.16C315.758 0.72 317.618 0 319.838 0C322.058 0 323.888 0.72 325.328 2.16C326.828 3.54 327.578 5.28 327.578 7.38C327.578 9.48 326.828 11.25 325.328 12.69C323.888 14.07 322.058 14.76 319.838 14.76ZM326.048 20.7V70.56H313.448V20.7H326.048Z" fill="white"/><path opacity="0.2" d="M287.876 19.9805C293.816 19.9805 298.616 21.8705 302.276 25.6505C305.936 29.3705 307.766 34.5905 307.766 41.3105V70.5605H295.166V43.0205C295.166 39.0605 294.176 36.0305 292.196 33.9305C290.216 31.7705 287.516 30.6905 284.096 30.6905C280.616 30.6905 277.856 31.7705 275.816 33.9305C273.836 36.0305 272.846 39.0605 272.846 43.0205V70.5605H260.246V20.7005H272.846V26.9105C274.526 24.7505 276.656 23.0705 279.236 21.8705C281.876 20.6105 284.756 19.9805 287.876 19.9805Z" fill="white"/><path opacity="0.2" d="M247.885 14.76C245.665 14.76 243.805 14.07 242.305 12.69C240.865 11.25 240.145 9.48 240.145 7.38C240.145 5.28 240.865 3.54 242.305 2.16C243.805 0.72 245.665 0 247.885 0C250.105 0 251.935 0.72 253.375 2.16C254.875 3.54 255.625 5.28 255.625 7.38C255.625 9.48 254.875 11.25 253.375 12.69C251.935 14.07 250.105 14.76 247.885 14.76ZM254.095 20.7V70.56H241.495V20.7H254.095Z" fill="white"/><path opacity="0.2" d="M239.629 31.0511H230.899V70.5611H218.119V31.0511H212.449V20.7011H218.119V18.1811C218.119 12.0611 219.859 7.56112 223.339 4.68111C226.819 1.80111 232.069 0.451116 239.089 0.631117V11.2511C236.029 11.1911 233.899 11.7011 232.699 12.7811C231.499 13.8611 230.899 15.8111 230.899 18.6311V20.7011H239.629V31.0511Z" fill="white"/><path opacity="0.2" d="M213.875 44.5506C213.875 46.3506 213.755 47.9706 213.515 49.4106H177.065C177.365 53.0106 178.625 55.8306 180.845 57.8706C183.065 59.9106 185.795 60.9306 189.035 60.9306C193.715 60.9306 197.045 58.9206 199.025 54.9006H212.615C211.175 59.7006 208.415 63.6606 204.335 66.7806C200.255 69.8406 195.245 71.3706 189.305 71.3706C184.505 71.3706 180.185 70.3206 176.345 68.2206C172.565 66.0606 169.595 63.0306 167.435 59.1306C165.335 55.2306 164.285 50.7306 164.285 45.6306C164.285 40.4706 165.335 35.9406 167.435 32.0406C169.535 28.1406 172.475 25.1406 176.255 23.0406C180.035 20.9406 184.385 19.8906 189.305 19.8906C194.045 19.8906 198.275 20.9106 201.995 22.9506C205.775 24.9906 208.685 27.9006 210.725 31.6806C212.825 35.4006 213.875 39.6906 213.875 44.5506ZM200.825 40.9506C200.765 37.7106 199.595 35.1306 197.315 33.2106C195.035 31.2306 192.245 30.2406 188.945 30.2406C185.825 30.2406 183.185 31.2006 181.025 33.1206C178.925 34.9806 177.635 37.5906 177.155 40.9506H200.825Z" fill="white"/><path opacity="0.2" d="M148.568 70.5602L134.708 46.0802H128.768V70.5602H116.168V7.74023H139.748C144.608 7.74023 148.748 8.61023 152.168 10.3502C155.588 12.0302 158.138 14.3402 159.818 17.2802C161.558 20.1602 162.428 23.4002 162.428 27.0002C162.428 31.1402 161.228 34.8902 158.828 38.2502C156.428 41.5502 152.858 43.8302 148.118 45.0902L163.148 70.5602H148.568ZM128.768 36.6302H139.298C142.718 36.6302 145.268 35.8202 146.948 34.2002C148.628 32.5202 149.468 30.2102 149.468 27.2702C149.468 24.3902 148.628 22.1702 146.948 20.6102C145.268 18.9902 142.718 18.1802 139.298 18.1802H128.768V36.6302Z" fill="white"/></svg>