<svg width="42" height="42" viewBox="0 0 42 42" fill="none" xmlns="http://www.w3.org/2000/svg"><path d="M20.8678 10.1133C14.9376 10.1133 10.1133 14.9376 10.1133 20.8661C10.1133 26.7945 14.9376 31.6206 20.8678 31.6206C26.7979 31.6206 31.6222 26.7962 31.6222 20.8661C31.6222 14.936 26.7962 10.1133 20.8678 10.1133ZM20.8678 27.9153C16.9793 27.9153 13.8169 24.7546 13.8169 20.8644C13.8169 16.9743 16.9793 13.8152 20.8678 13.8152C24.7562 13.8152 27.9203 16.9793 27.9203 20.8644C27.9203 24.7496 24.7562 27.9153 20.8678 27.9153Z" fill="white"/><path d="M32.0738 6.97266C31.3594 6.97266 30.66 7.26075 30.1571 7.76867C29.6491 8.27325 29.3594 8.97434 29.3594 9.68875C29.3594 10.4032 29.6508 11.1026 30.1571 11.6088C30.66 12.1118 31.3594 12.4032 32.0738 12.4032C32.7882 12.4032 33.4876 12.1118 33.9939 11.6088C34.5001 11.1026 34.7899 10.3998 34.7899 9.68875C34.7899 8.97767 34.5018 8.27325 33.9939 7.76867C33.491 7.26242 32.7882 6.97266 32.0738 6.97266Z" fill="white"/><path d="M30.2168 0H11.5172C5.16742 0 0 5.16575 0 11.5172V30.2168C0 36.5666 5.16742 41.7323 11.5172 41.7323H30.2168C36.5682 41.7323 41.7323 36.5649 41.7323 30.2168V11.5172C41.7323 5.16575 36.5682 0 30.2168 0ZM38.032 30.2168C38.032 34.5249 34.5282 38.0304 30.2185 38.0304H11.5189C7.21073 38.0304 3.70529 34.5249 3.70529 30.2168V11.5172C3.70529 7.2074 7.21073 3.70362 11.5189 3.70362H30.2185C34.5282 3.70362 38.032 7.2074 38.032 11.5172V30.2168Z" fill="white"/></svg>