<svg width="38" height="42" viewBox="0 0 38 42" fill="none" xmlns="http://www.w3.org/2000/svg"><path fill-rule="evenodd" clip-rule="evenodd" d="M13.0335 20.4948C14.9651 17.2307 20.7449 14.609 24.8167 21.0413C27.8171 25.4023 32.9551 29.4351 32.9551 29.4351C32.9551 29.4351 36.8057 32.491 34.3416 38.3767C31.9855 44.0199 23.6259 41.4441 22.9333 41.2219L22.8875 41.2053C22.8875 41.2053 19.5707 40.1211 15.7137 40.9921C11.8643 41.8668 8.54488 41.5386 8.54488 41.5386H8.45973C7.83702 41.5182 3.9381 41.1798 2.75876 35.87C1.47649 30.0889 7.25244 26.922 7.68325 26.3856C8.11279 25.8352 11.1069 23.7703 13.0335 20.496V20.4948ZM14.9067 23.8124V27.692H11.7906C11.7906 27.692 8.6745 27.9551 7.58667 31.5371C7.20669 33.9276 7.92344 35.3362 8.04671 35.6376C8.17379 35.9377 9.17903 37.6859 11.708 38.1992H17.5564V23.8546L14.908 23.8124H14.9067ZM21.7235 27.9946L18.9873 28.0406V35.5929C18.9873 35.5929 19.1093 37.4739 21.7235 38.1584H28.4513V28.0406H25.5487V35.6376H22.7744C22.7744 35.6376 21.8887 35.5073 21.7235 34.7845V27.9959V27.9946ZM14.8584 30.0021V35.8444H12.5023C12.5023 35.8444 10.8629 35.7589 10.3634 33.8421C10.1055 32.9929 10.4016 32.0108 10.5312 31.6277C10.6507 31.2408 11.2022 30.3469 12.3383 30.0047H14.8597L14.8584 30.0021ZM32.9551 12.751C36.9188 12.751 37.9825 16.6842 37.9825 17.9854C37.9825 19.2867 38.5226 24.8519 33.5956 24.963C28.666 25.0716 28.4589 21.584 28.4589 19.0824C28.4589 16.4594 28.985 12.7497 32.9564 12.7497L32.9551 12.751ZM4.25708 9.6989C7.15077 9.44094 9.28196 12.6577 9.50436 14.4966C9.6378 15.6894 10.2516 21.1524 5.75158 22.1332C1.26171 23.1152 -0.410706 17.8386 0.0836494 15.3663C0.0836494 15.3663 0.61613 10.0271 4.25708 9.69762V9.6989ZM21.0652 6.86649C21.3308 4.3661 24.2766 0.536345 26.634 1.08546C28.9825 1.62947 31.1315 4.79645 30.6943 7.51904C30.2686 10.2455 28.1386 13.8441 24.8141 13.4035C21.4934 12.9719 20.7424 9.92366 21.0652 6.86649ZM14.1086 0C16.5918 0 18.5997 2.90009 18.5997 6.48722C18.5997 10.0743 16.5918 12.9783 14.1086 12.9783C11.6254 12.9783 9.61111 10.0743 9.61111 6.48722C9.61111 2.90009 11.6254 0 14.1086 0Z" fill="white"/></svg>